<?xml version="1.0" encoding="utf-8"?>
<!-- Generator: Adobe Illustrator 16.0.4, SVG Export Plug-In . SVG Version: 6.00 Build 0)  -->
<!DOCTYPE svg PUBLIC "-//W3C//DTD SVG 1.1//EN" "http://www.w3.org/Graphics/SVG/1.1/DTD/svg11.dtd">
<svg version="1.1" id="Layer_1" xmlns="http://www.w3.org/2000/svg" xmlns:xlink="http://www.w3.org/1999/xlink" x="0px" y="0px"
	 width="354.833px" height="86.011px" viewBox="0 0 354.833 86.011" enable-background="new 0 0 354.833 86.011"
	 xml:space="preserve">
<g>
	<g>
		<g opacity="0.2">
			<g>
				<path fill="#403130" d="M28.468,55.339c-2.082,0-3.724-0.659-4.881-1.958c-0.986-1.094-1.548-2.571-1.673-4.397
					c-2.145,1.937-4.009,3.396-5.56,4.351c-2.175,1.331-4.206,2.005-6.039,2.005c-2.769,0-5.018-1.042-6.685-3.096
					c-1.607-1.981-2.421-4.623-2.421-7.853c0-2.908,0.568-5.797,1.689-8.587c1.115-2.784,2.731-5.361,4.802-7.659
					c2.334-2.583,5.047-4.651,8.064-6.147c3.043-1.511,6.044-2.278,8.918-2.278c1.258,0,2.46,0.17,3.572,0.506
					c0.949,0.286,1.894,0.706,2.813,1.252l6.723-1.656c0.096-0.023,0.193-0.035,0.289-0.035c0.307,0,0.605,0.117,0.833,0.333
					c0.298,0.284,0.432,0.701,0.353,1.105c-1.533,7.881-2.552,13.298-3.117,16.559c-0.696,4.001-0.842,5.43-0.842,5.923
					c0,0.622,0.126,0.857,0.165,0.915c0,0,0.002,0,0.004,0c0.054,0,0.618-0.163,2.36-1.484l0.827-0.637
					c0.215-0.168,0.478-0.256,0.744-0.256c0.122,0,0.245,0.018,0.364,0.056c0.38,0.12,0.676,0.42,0.792,0.801l1.069,3.527
					c0.141,0.466-0.011,0.971-0.386,1.281l-2.462,2.037c-2.024,1.691-3.93,3.014-5.662,3.924
					C31.268,54.859,29.744,55.339,28.468,55.339z M22.903,27.641c-1.84,0-3.623,1.463-5.298,4.348
					c-1.806,3.103-2.722,6.623-2.722,10.462c0,1.308,0.245,1.953,0.451,2.264c0.211,0.321,0.455,0.446,0.871,0.446
					c0.021,0,0.52-0.017,2.109-1.076c1.181-0.792,2.625-1.927,4.292-3.374c0.447-2.251,0.871-4.451,1.279-6.606
					c0.378-2.001,0.736-3.941,1.082-5.824c-0.324-0.186-0.621-0.328-0.887-0.424C23.676,27.712,23.29,27.641,22.903,27.641z"/>
				<path fill="#403130" d="M24.682,20.929c1.142,0,2.219,0.151,3.223,0.455c1.002,0.301,1.987,0.764,2.959,1.39l7.216-1.777
					c-1.51,7.764-2.552,13.294-3.121,16.583c-0.572,3.292-0.859,5.335-0.859,6.129c0,0.697,0.125,1.225,0.371,1.59
					c0.25,0.366,0.591,0.55,1.021,0.55c0.517,0,1.541-0.583,3.074-1.746c0.366-0.281,0.648-0.497,0.841-0.647l1.069,3.527
					l-2.462,2.037c-1.962,1.64-3.779,2.904-5.454,3.785c-1.672,0.889-3.036,1.327-4.092,1.327c-1.729,0-3.054-0.515-3.979-1.554
					c-0.932-1.033-1.395-2.5-1.395-4.396c0-0.26,0.034-0.789,0.097-1.587c0.022-0.216,0.031-0.38,0.031-0.487
					c-3.02,2.912-5.521,4.979-7.503,6.199c-1.987,1.216-3.79,1.825-5.405,1.825c-2.396,0-4.312-0.882-5.747-2.649
					c-1.436-1.77-2.151-4.132-2.151-7.091c0-2.762,0.532-5.473,1.603-8.136c1.068-2.668,2.592-5.097,4.578-7.3
					c2.242-2.481,4.81-4.438,7.703-5.874C19.19,21.646,21.986,20.929,24.682,20.929 M16.205,46.369c0.583,0,1.506-0.43,2.779-1.279
					c1.274-0.854,2.853-2.097,4.726-3.739c0.478-2.396,0.929-4.734,1.361-7.021c0.433-2.291,0.84-4.5,1.23-6.636
					c-0.67-0.453-1.273-0.778-1.812-0.973c-0.54-0.193-1.068-0.287-1.587-0.287c-2.31,0-4.427,1.649-6.343,4.949
					c-1.921,3.301-2.885,6.992-2.885,11.069c0,1.295,0.216,2.271,0.65,2.93C14.758,46.039,15.383,46.369,16.205,46.369
					 M24.682,18.512c-3.062,0-6.244,0.809-9.457,2.405c-3.152,1.563-5.985,3.722-8.421,6.417c-2.168,2.405-3.86,5.104-5.028,8.022
					C0.598,38.288,0,41.328,0,44.391c0,3.514,0.906,6.412,2.691,8.613c1.881,2.318,4.518,3.543,7.624,3.543
					c2.059,0,4.302-0.733,6.667-2.18c1.225-0.755,2.588-1.769,4.119-3.062c0.334,1.117,0.867,2.084,1.595,2.891
					c1.385,1.557,3.331,2.352,5.773,2.352c1.479,0,3.188-0.526,5.226-1.609c1.797-0.945,3.775-2.314,5.87-4.064l2.453-2.03
					c0.75-0.62,1.054-1.631,0.772-2.562l-1.069-3.527c-0.231-0.763-0.824-1.362-1.583-1.603c-0.239-0.076-0.485-0.113-0.729-0.113
					c-0.532,0-1.058,0.176-1.488,0.513c-0.146,0.114-0.346,0.268-0.596,0.459l-0.229,0.175c-0.17,0.129-0.326,0.245-0.47,0.35
					c0.106-0.843,0.314-2.238,0.715-4.542c0.563-3.255,1.581-8.664,3.112-16.536c0.157-0.81-0.109-1.643-0.706-2.212
					c-0.455-0.433-1.053-0.666-1.666-0.666c-0.193,0-0.387,0.023-0.578,0.07l-6.254,1.541c-0.867-0.477-1.753-0.852-2.647-1.121
					C27.378,18.7,26.059,18.512,24.682,18.512L24.682,18.512z M16.267,43.879c-0.077-0.217-0.175-0.646-0.175-1.429
					c0-3.623,0.86-6.938,2.557-9.854c0.994-1.71,2.537-3.748,4.254-3.748c0.226,0,0.458,0.04,0.707,0.123
					c-0.293,1.594-0.597,3.229-0.914,4.908c-0.415,2.194-0.808,4.227-1.196,6.188c-1.497,1.286-2.793,2.298-3.862,3.015
					C16.937,43.55,16.503,43.775,16.267,43.879L16.267,43.879z"/>
			</g>
			<g>
				<path fill="#403130" d="M49.344,55.407c-2.011,0-3.687-0.796-4.98-2.365c-1.234-1.5-1.86-3.451-1.86-5.8
					c0-1.49,0.507-4.509,1.551-9.227c0.639-2.982,1.135-5.359,1.482-7.125l0.901-4.935c0.262-1.355,0.617-3.156,1.069-5.424
					c1.475-7.564,1.695-9.568,1.695-10.088c0-0.837-0.202-1.046-0.225-1.067c-0.017-0.016-0.28-0.249-1.351-0.249
					c-0.178,0-0.597,0.021-1.59,0.124c-0.01,0.001-0.02,0.002-0.03,0.003c-0.096,0.023-0.193,0.035-0.291,0.035
					c-0.214,0-0.428-0.057-0.617-0.169c-0.347-0.206-0.567-0.571-0.589-0.973l-0.194-3.594c-0.036-0.666,0.474-1.234,1.139-1.271
					c2.957-0.167,5.944-0.421,8.877-0.755c2.931-0.333,5.819-0.748,8.587-1.234c0.069-0.012,0.14-0.018,0.209-0.018
					c0.321,0,0.632,0.128,0.861,0.361c0.279,0.283,0.4,0.686,0.325,1.076c-0.691,3.583-1.641,8.426-2.849,14.538
					c-4.019,20.535-4.863,25.884-4.863,26.755c0,0.202,0.056,0.357,0.186,0.52c0.078,0.098,0.12,0.117,0.12,0.117
					c0.005-0.001,0.201-0.018,0.733-0.261c0.437-0.202,0.824-0.443,1.146-0.714l1.113-0.986c0.224-0.198,0.51-0.303,0.801-0.303
					c0.112,0,0.225,0.016,0.335,0.047c0.398,0.115,0.709,0.425,0.825,0.823l0.97,3.329c0.135,0.466-0.021,0.967-0.396,1.273
					l-2.105,1.72c-2.292,1.853-4.36,3.287-6.151,4.267C52.248,54.893,50.666,55.407,49.344,55.407z"/>
				<path fill="#403130" d="M63.128,2.481c-0.69,3.581-1.64,8.423-2.848,14.532c-3.256,16.635-4.886,25.629-4.886,26.99
					c0,0.477,0.149,0.9,0.453,1.277c0.301,0.379,0.657,0.567,1.069,0.567c0.276,0,0.688-0.123,1.228-0.37
					c0.541-0.25,1.014-0.545,1.422-0.889l1.136-1.005l0.97,3.329l-2.105,1.72c-2.241,1.812-4.232,3.193-5.967,4.142
					c-1.737,0.951-3.159,1.424-4.256,1.424c-1.642,0-2.99-0.643-4.048-1.926c-1.058-1.285-1.584-2.961-1.584-5.031
					c0-1.384,0.506-4.37,1.522-8.966c0.643-2.998,1.14-5.382,1.488-7.152l0.904-4.951c0.26-1.341,0.614-3.14,1.065-5.406
					c1.147-5.887,1.718-9.331,1.718-10.324c0-0.928-0.204-1.58-0.616-1.958c-0.407-0.379-1.132-0.566-2.167-0.566
					c-0.304,0-0.872,0.043-1.714,0.13c-0.088,0-0.155,0.012-0.196,0.032l-0.194-3.594c3.022-0.17,6.003-0.425,8.946-0.76
					C57.418,3.392,60.303,2.978,63.128,2.481 M63.128,0.065c-0.139,0-0.279,0.012-0.418,0.037c-2.743,0.482-5.608,0.894-8.513,1.224
					c-2.912,0.331-5.875,0.583-8.81,0.749c-1.33,0.075-2.349,1.212-2.277,2.543l0.194,3.594c0.044,0.805,0.486,1.535,1.179,1.947
					c0.379,0.226,0.806,0.339,1.234,0.339c0.161,0,0.322-0.016,0.48-0.048c1.028-0.105,1.354-0.114,1.43-0.114
					c0.146,0,0.267,0.005,0.366,0.013c0,0.03,0.001,0.062,0.001,0.095c0,0.3-0.121,1.896-1.673,9.862
					c-0.451,2.261-0.806,4.065-1.066,5.409l-0.909,4.976c-0.333,1.688-0.817,4.015-1.474,7.08c-1.412,6.386-1.576,8.465-1.576,9.473
					c0,2.637,0.718,4.846,2.135,6.566c1.514,1.837,3.558,2.807,5.914,2.807c1.53,0,3.302-0.562,5.417-1.721
					c1.854-1.013,3.982-2.487,6.325-4.382l2.115-1.728c0.751-0.613,1.063-1.616,0.792-2.547l-0.97-3.329
					c-0.231-0.795-0.854-1.416-1.648-1.646c-0.221-0.064-0.447-0.095-0.671-0.095c-0.582,0-1.154,0.211-1.601,0.607l-1.111,0.982
					c-0.013,0.011-0.026,0.021-0.039,0.032c0.347-2.387,1.465-8.779,4.701-25.312c1.236-6.254,2.168-11.011,2.849-14.539
					c0.151-0.781-0.092-1.585-0.65-2.152C64.393,0.321,63.771,0.065,63.128,0.065L63.128,0.065z"/>
			</g>
			<g>
				<path fill="#403130" d="M90.896,55.339c-2.081,0-3.722-0.659-4.879-1.958c-0.985-1.093-1.547-2.57-1.672-4.396
					c-2.154,1.947-3.989,3.38-5.567,4.35c-2.169,1.33-4.199,2.004-6.035,2.004c-2.768,0-5.017-1.041-6.685-3.096
					c-1.605-1.98-2.418-4.622-2.418-7.853c0-2.908,0.566-5.796,1.683-8.585c1.117-2.784,2.734-5.36,4.807-7.66
					c2.336-2.584,5.049-4.652,8.065-6.147c3.04-1.511,6.041-2.278,8.916-2.278l0,0c1.255,0,2.457,0.17,3.57,0.506
					c0.953,0.286,1.898,0.706,2.817,1.252l6.724-1.656c0.096-0.023,0.193-0.035,0.289-0.035c0.307,0,0.606,0.117,0.833,0.333
					c0.299,0.284,0.432,0.702,0.353,1.106c-1.456,7.465-2.535,13.191-3.121,16.559c-0.695,4.016-0.841,5.438-0.841,5.922
					c0,0.618,0.128,0.856,0.168,0.915c0,0,0.002,0,0.003,0c0.053,0,0.615-0.162,2.358-1.484l0.828-0.637
					c0.215-0.168,0.478-0.256,0.744-0.256c0.123,0,0.246,0.019,0.365,0.056c0.38,0.121,0.676,0.421,0.792,0.803l1.065,3.527
					c0.14,0.466-0.012,0.97-0.386,1.28l-2.458,2.037c-2.021,1.688-3.925,3.01-5.658,3.923C93.695,54.86,92.169,55.339,90.896,55.339
					z M85.332,27.641c-1.838,0-3.621,1.463-5.298,4.348c-1.804,3.101-2.719,6.62-2.719,10.461c0,1.308,0.245,1.953,0.45,2.265
					c0.176,0.269,0.389,0.445,0.867,0.445c0.021,0,0.522-0.016,2.113-1.076c1.168-0.784,2.611-1.918,4.289-3.374
					c0.443-2.252,0.871-4.451,1.279-6.607c0.377-2.001,0.736-3.942,1.08-5.825c-0.321-0.185-0.617-0.326-0.885-0.423
					C86.104,27.712,85.716,27.641,85.332,27.641z"/>
				<path fill="#403130" d="M87.11,20.929c1.143,0,2.216,0.151,3.222,0.455c1.004,0.301,1.991,0.764,2.962,1.39l7.217-1.777
					c-1.514,7.764-2.553,13.294-3.125,16.583c-0.569,3.292-0.858,5.335-0.858,6.129c0,0.697,0.128,1.225,0.374,1.59
					c0.247,0.366,0.587,0.55,1.019,0.55c0.52,0,1.542-0.583,3.075-1.746c0.365-0.281,0.649-0.497,0.842-0.647l1.065,3.527
					l-2.458,2.037c-1.962,1.64-3.78,2.904-5.45,3.785c-1.678,0.889-3.04,1.327-4.098,1.327c-1.727,0-3.052-0.515-3.977-1.554
					c-0.932-1.033-1.394-2.5-1.394-4.396c0-0.26,0.031-0.789,0.096-1.587c0.021-0.216,0.031-0.38,0.031-0.487
					c-3.02,2.912-5.521,4.979-7.508,6.199c-1.982,1.216-3.785,1.825-5.402,1.825c-2.396,0-4.312-0.882-5.747-2.649
					c-1.435-1.77-2.148-4.132-2.148-7.091c0-2.762,0.53-5.473,1.597-8.136c1.07-2.668,2.597-5.097,4.583-7.3
					c2.242-2.481,4.809-4.438,7.704-5.874C81.618,21.646,84.413,20.929,87.11,20.929 M78.631,46.369c0.584,0,1.51-0.43,2.783-1.279
					c1.274-0.854,2.849-2.097,4.724-3.739c0.473-2.396,0.928-4.734,1.36-7.021c0.432-2.291,0.839-4.5,1.229-6.636
					c-0.667-0.453-1.271-0.778-1.808-0.973c-0.544-0.193-1.069-0.287-1.588-0.287c-2.308,0-4.425,1.649-6.343,4.949
					c-1.921,3.301-2.883,6.992-2.883,11.069c0,1.295,0.216,2.271,0.649,2.93C77.186,46.039,77.81,46.369,78.631,46.369
					 M87.11,18.512c-3.063,0-6.245,0.809-9.455,2.405c-3.15,1.561-5.984,3.721-8.421,6.417c-2.17,2.408-3.863,5.105-5.033,8.021
					c-1.175,2.935-1.771,5.974-1.771,9.036c0,3.515,0.904,6.413,2.688,8.612c1.883,2.319,4.52,3.544,7.624,3.544
					c2.062,0,4.305-0.733,6.666-2.182c1.225-0.752,2.589-1.766,4.123-3.062c0.334,1.118,0.867,2.085,1.594,2.892
					c1.385,1.557,3.331,2.352,5.771,2.352c1.476,0,3.186-0.525,5.229-1.607c1.804-0.952,3.779-2.32,5.869-4.066l2.45-2.031
					c0.749-0.62,1.052-1.629,0.771-2.559l-1.065-3.528c-0.23-0.763-0.823-1.364-1.583-1.604c-0.239-0.076-0.485-0.113-0.73-0.113
					c-0.532,0-1.058,0.176-1.488,0.513c-0.11,0.086-0.252,0.195-0.423,0.326l-0.405,0.311c-0.169,0.128-0.325,0.244-0.468,0.348
					c0.107-0.842,0.315-2.237,0.714-4.544c0.584-3.358,1.662-9.076,3.116-16.533c0.158-0.81-0.108-1.644-0.705-2.212
					c-0.455-0.433-1.053-0.667-1.667-0.667c-0.192,0-0.387,0.023-0.578,0.07l-6.255,1.541c-0.866-0.476-1.754-0.852-2.651-1.121
					C89.802,18.7,88.483,18.512,87.11,18.512L87.11,18.512z M78.697,43.878c-0.078-0.219-0.175-0.648-0.175-1.428
					c0-3.625,0.859-6.94,2.555-9.854c0.994-1.71,2.539-3.748,4.254-3.748c0.223,0,0.454,0.04,0.705,0.122
					c-0.293,1.595-0.596,3.23-0.913,4.91c-0.382,2.021-0.782,4.081-1.196,6.188c-1.506,1.292-2.801,2.305-3.859,3.014
					C79.368,43.55,78.934,43.774,78.697,43.878L78.697,43.878z"/>
			</g>
			<g>
				<path fill="#403130" d="M133.001,55.471c-2.36,0-4.591-1.084-6.633-3.223c-1.794-1.879-3.56-4.681-5.385-8.546
					c-0.266,0.047-0.54,0.09-0.821,0.126c-0.35,0.044-0.722,0.082-1.116,0.115l-0.227,1.303c-0.215,1.244-0.399,2.391-0.56,3.455
					c-0.164,1.055-0.306,2.132-0.432,3.237c-0.061,0.534-0.467,0.964-0.998,1.055l-11.812,2.008
					c-0.068,0.011-0.135,0.017-0.203,0.017c-0.327,0-0.643-0.133-0.873-0.373c-0.277-0.29-0.393-0.698-0.308-1.091
					c0.591-2.732,1.219-5.8,1.921-9.376c0.654-3.374,1.544-8.06,2.666-14.055l0.967-5.549c1.011-5.423,1.657-9.021,1.923-10.708
					c0.259-1.658,0.391-2.768,0.391-3.295c0-1.03-0.229-1.264-0.231-1.266c-0.003-0.003-0.262-0.243-1.343-0.243
					c-0.341,0-0.657,0.012-0.951,0.029c-0.268,0.022-0.565,0.053-0.873,0.092c-0.051,0.006-0.102,0.009-0.152,0.009
					c-0.281,0-0.555-0.098-0.773-0.28c-0.258-0.215-0.415-0.527-0.433-0.862l-0.192-3.497c-0.018-0.322,0.095-0.639,0.312-0.878
					s0.521-0.382,0.843-0.396c2.939-0.127,5.882-0.364,8.745-0.706c2.89-0.338,5.811-0.791,8.683-1.344
					c0.076-0.015,0.152-0.021,0.229-0.021c0.314,0,0.619,0.122,0.847,0.346c0.284,0.278,0.412,0.678,0.343,1.07
					c-0.567,3.247-1.225,6.728-2.011,10.643c-0.754,3.743-1.161,5.797-1.226,6.159l-1.125,6.166c5.005-4,8.498-5.872,10.94-5.872
					c2.341,0,4.4,0.916,6.12,2.723c1.702,1.787,2.564,3.978,2.564,6.511c0,2.704-0.939,5.063-2.792,7.013
					c-1.476,1.553-3.468,2.76-5.938,3.6c2.295,3.213,3.427,4.535,3.981,5.075c0.946,0.925,1.51,1.062,1.762,1.062
					c0.026,0,0.273-0.01,0.878-0.327c0.371-0.195,1.098-0.639,2.449-1.635c0.21-0.154,0.462-0.235,0.717-0.235
					c0.112,0,0.224,0.016,0.334,0.047c0.36,0.104,0.652,0.369,0.79,0.718l1.198,3.041c0.181,0.46,0.064,0.983-0.295,1.322
					c-2.413,2.277-4.583,3.987-6.45,5.083C136.47,54.881,134.637,55.471,133.001,55.471z M120.2,37.672
					c2.553-0.215,4.684-0.873,6.348-1.961c1.833-1.196,2.724-2.612,2.724-4.329c0-0.574-0.135-1-0.413-1.303
					c-0.171-0.188-0.44-0.399-1.037-0.399c-0.19,0-1.347,0.148-5.479,3.077c-0.6,0.423-1.099,0.778-1.501,1.065L120.2,37.672z"/>
				<path fill="#403130" d="M125.364,2.417c-0.58,3.321-1.252,6.86-2.006,10.613c-0.757,3.757-1.165,5.819-1.23,6.182l-1.714,9.387
					c0.367-0.302,0.896-0.731,1.584-1.295c5.177-4.252,8.89-6.375,11.134-6.375c2.006,0,3.755,0.782,5.245,2.348
					c1.485,1.56,2.231,3.458,2.231,5.678c0,2.396-0.821,4.457-2.46,6.181c-1.64,1.726-3.98,2.979-7.022,3.753
					c2.434,3.475,4.135,5.681,5.098,6.62c0.961,0.939,1.825,1.405,2.605,1.405c0.365,0,0.846-0.153,1.44-0.466
					c0.591-0.312,1.462-0.89,2.604-1.731l1.198,3.041c-2.355,2.223-4.431,3.862-6.232,4.92c-1.803,1.059-3.413,1.586-4.837,1.586
					c-2.029,0-3.947-0.951-5.759-2.849c-1.813-1.899-3.67-4.929-5.568-9.095c-0.518,0.131-1.073,0.233-1.668,0.311
					c-0.593,0.075-1.255,0.13-1.987,0.176l-0.39,2.232c-0.217,1.256-0.402,2.41-0.564,3.482c-0.165,1.066-0.31,2.159-0.438,3.281
					l-11.812,2.008c0.626-2.894,1.264-6.023,1.926-9.399c0.655-3.378,1.546-8.067,2.668-14.065l0.97-5.564
					c1.014-5.438,1.656-9.016,1.926-10.728c0.269-1.719,0.405-2.877,0.405-3.483c0-1.034-0.199-1.747-0.599-2.134
					c-0.399-0.388-1.127-0.583-2.184-0.583c-0.366,0-0.706,0.012-1.021,0.031c-0.312,0.025-0.628,0.058-0.954,0.1l-0.192-3.497
					c2.955-0.127,5.899-0.363,8.836-0.713C119.528,3.431,122.451,2.978,125.364,2.417 M118.761,38.954
					c3.453-0.065,6.269-0.807,8.447-2.231c2.181-1.423,3.271-3.203,3.271-5.34c0-0.887-0.244-1.59-0.73-2.12
					c-0.482-0.529-1.127-0.79-1.927-0.79c-1.011,0-3.072,1.098-6.178,3.299c-0.822,0.581-1.458,1.034-1.912,1.358L118.761,38.954
					 M125.364,0c-0.152,0-0.305,0.015-0.458,0.044c-2.843,0.548-5.734,0.996-8.592,1.33c-2.838,0.338-5.75,0.573-8.659,0.699
					c-0.646,0.028-1.252,0.312-1.687,0.791c-0.434,0.479-0.658,1.111-0.622,1.756l0.192,3.497c0.037,0.67,0.351,1.294,0.866,1.724
					c0.437,0.364,0.985,0.56,1.547,0.56c0.102,0,0.203-0.006,0.305-0.02c0.279-0.036,0.55-0.064,0.816-0.086
					c0.265-0.015,0.548-0.025,0.854-0.025c0.142,0,0.26,0.005,0.357,0.012c0.005,0.081,0.008,0.177,0.008,0.288
					c0,0.262-0.049,1.015-0.376,3.11c-0.263,1.673-0.907,5.26-1.914,10.658l-0.975,5.592c-1.077,5.752-1.973,10.479-2.66,14.02
					c-0.699,3.563-1.326,6.623-1.916,9.349c-0.169,0.784,0.061,1.601,0.615,2.181c0.46,0.48,1.093,0.746,1.747,0.746
					c0.134,0,0.27-0.011,0.405-0.034l11.812-2.008c1.061-0.18,1.874-1.039,1.996-2.108c0.127-1.112,0.27-2.185,0.424-3.186
					c0.173-1.143,0.355-2.266,0.558-3.44l0.068-0.394c0.069-0.008,0.136-0.017,0.203-0.024c1.746,3.57,3.459,6.215,5.213,8.052
					c2.278,2.386,4.804,3.596,7.506,3.596c1.879,0,3.862-0.627,6.061-1.918c1.972-1.158,4.153-2.874,6.667-5.246
					c0.718-0.678,0.952-1.725,0.59-2.644l-1.198-3.041c-0.275-0.698-0.859-1.229-1.58-1.437c-0.22-0.063-0.444-0.094-0.668-0.094
					c-0.51,0-1.014,0.162-1.434,0.472c-1.358,1.001-2.022,1.394-2.296,1.539c-0.151,0.08-0.263,0.129-0.338,0.158
					c-0.135-0.063-0.43-0.236-0.891-0.688c-0.446-0.435-1.299-1.422-2.93-3.649c1.976-0.854,3.622-1.969,4.917-3.333
					c2.073-2.181,3.125-4.82,3.125-7.845c0-2.854-0.975-5.325-2.898-7.344c-1.957-2.056-4.311-3.098-6.995-3.098
					c-2.269,0-5.237,1.356-9.191,4.224l0.564-3.09c0.061-0.339,0.462-2.365,1.222-6.139c0.789-3.926,1.449-7.418,2.018-10.674
					c0.137-0.783-0.12-1.583-0.687-2.14C126.601,0.245,125.991,0,125.364,0L125.364,0z M121.951,34.515
					c0.316-0.225,0.679-0.482,1.088-0.771c3.438-2.437,4.612-2.802,4.843-2.854c0.077,0.004,0.109,0.016,0.109,0.016
					c0.036,0.054,0.072,0.24,0.072,0.476c0,0.814-0.225,2.044-2.175,3.317c-1.152,0.753-2.567,1.278-4.229,1.57L121.951,34.515
					L121.951,34.515z"/>
			</g>
			<g>
				<path fill="#403130" d="M172.456,55.339c-2.079,0-3.721-0.658-4.883-1.956c-0.987-1.097-1.55-2.573-1.676-4.396
					c-2.144,1.935-4.008,3.393-5.562,4.348c-2.172,1.33-4.202,2.004-6.035,2.004c-2.771,0-5.021-1.042-6.688-3.096
					c-1.604-1.982-2.417-4.624-2.417-7.853c0-2.901,0.567-5.79,1.687-8.585c1.111-2.777,2.727-5.354,4.802-7.66
					c2.342-2.586,5.054-4.654,8.064-6.147c3.046-1.512,6.046-2.278,8.918-2.278c1.257,0,2.459,0.17,3.571,0.506
					c0.953,0.286,1.898,0.707,2.817,1.252l6.722-1.656c0.096-0.023,0.192-0.035,0.289-0.035c0.307,0,0.605,0.117,0.833,0.333
					c0.299,0.284,0.432,0.701,0.353,1.105c-1.502,7.726-2.551,13.297-3.116,16.56c-0.694,3.992-0.84,5.424-0.84,5.923
					c0,0.623,0.124,0.852,0.162,0.907c0.001,0.001,0.004,0.002,0.008,0.002c0.073,0,0.647-0.181,2.356-1.478
					c0.359-0.274,0.636-0.487,0.824-0.635c0.215-0.169,0.479-0.258,0.746-0.258c0.121,0,0.244,0.018,0.362,0.056
					c0.381,0.12,0.678,0.419,0.794,0.801l1.072,3.527c0.142,0.466-0.011,0.972-0.386,1.282l-2.462,2.037
					c-2.018,1.687-3.924,3.007-5.661,3.923C175.256,54.859,173.732,55.339,172.456,55.339z M166.885,27.641
					c-1.838,0-3.62,1.463-5.297,4.348c-1.803,3.097-2.717,6.616-2.717,10.461c0,1.312,0.244,1.954,0.448,2.261
					c0.178,0.272,0.392,0.449,0.87,0.449c0.021,0,0.527-0.018,2.111-1.076c1.18-0.793,2.623-1.928,4.291-3.374
					c0.445-2.252,0.87-4.451,1.278-6.607c0.377-2.001,0.736-3.941,1.08-5.824c-0.32-0.184-0.617-0.326-0.887-0.424
					C167.658,27.712,167.271,27.641,166.885,27.641z"/>
				<path fill="#403130" d="M168.665,20.929c1.144,0,2.218,0.151,3.222,0.455c1.003,0.301,1.991,0.764,2.962,1.39l7.215-1.777
					c-1.51,7.764-2.551,13.294-3.121,16.583c-0.572,3.292-0.857,5.335-0.857,6.129c0,0.697,0.123,1.225,0.373,1.59
					c0.246,0.366,0.586,0.55,1.017,0.55c0.52,0,1.543-0.583,3.075-1.746c0.368-0.281,0.648-0.497,0.84-0.647l1.072,3.527L182,49.019
					c-1.962,1.64-3.783,2.904-5.454,3.785c-1.67,0.889-3.033,1.327-4.09,1.327c-1.729,0-3.053-0.515-3.982-1.554
					c-0.931-1.033-1.396-2.5-1.396-4.396c0-0.26,0.034-0.789,0.099-1.587c0.021-0.216,0.034-0.38,0.034-0.487
					c-3.02,2.912-5.523,4.979-7.509,6.199c-1.985,1.216-3.787,1.825-5.402,1.825c-2.398,0-4.315-0.882-5.75-2.649
					c-1.433-1.77-2.147-4.132-2.147-7.091c0-2.762,0.534-5.473,1.601-8.136c1.067-2.668,2.595-5.097,4.578-7.3
					c2.246-2.481,4.811-4.438,7.703-5.874C163.175,21.646,165.969,20.929,168.665,20.929 M160.188,46.369
					c0.581,0,1.511-0.43,2.782-1.279c1.271-0.854,2.849-2.097,4.725-3.739c0.475-2.396,0.927-4.734,1.36-7.021
					c0.432-2.291,0.84-4.5,1.228-6.636c-0.666-0.453-1.273-0.778-1.81-0.973c-0.543-0.193-1.066-0.287-1.588-0.287
					c-2.307,0-4.424,1.649-6.342,4.949c-1.922,3.301-2.881,6.992-2.881,11.069c0,1.295,0.212,2.271,0.649,2.93
					C158.743,46.039,159.367,46.369,160.188,46.369 M168.665,18.512c-3.06,0-6.24,0.809-9.455,2.404
					c-3.146,1.561-5.979,3.719-8.42,6.417c-2.175,2.416-3.866,5.114-5.03,8.024c-1.177,2.938-1.773,5.978-1.773,9.034
					c0,3.513,0.904,6.41,2.686,8.611c1.883,2.32,4.52,3.545,7.628,3.545c2.059,0,4.301-0.733,6.664-2.181
					c1.226-0.754,2.59-1.766,4.121-3.06c0.334,1.115,0.867,2.081,1.594,2.888c1.395,1.56,3.341,2.353,5.778,2.353
					c1.479,0,3.189-0.526,5.225-1.61c1.804-0.951,3.782-2.319,5.869-4.063l2.452-2.03c0.751-0.621,1.056-1.632,0.771-2.564
					l-1.072-3.527c-0.231-0.763-0.825-1.363-1.586-1.603c-0.238-0.075-0.482-0.111-0.726-0.111c-0.534,0-1.062,0.178-1.493,0.517
					c-0.186,0.146-0.457,0.354-0.813,0.627c-0.171,0.13-0.329,0.247-0.474,0.353c0.105-0.843,0.313-2.239,0.714-4.541
					c0.564-3.255,1.611-8.818,3.112-16.536c0.157-0.81-0.109-1.644-0.706-2.212c-0.455-0.433-1.053-0.666-1.666-0.666
					c-0.192,0-0.387,0.023-0.578,0.07l-6.253,1.541c-0.866-0.476-1.754-0.852-2.65-1.121
					C171.359,18.7,170.041,18.512,168.665,18.512L168.665,18.512z M160.253,43.878c-0.077-0.218-0.174-0.648-0.174-1.428
					c0-3.629,0.859-6.944,2.553-9.853c0.994-1.71,2.539-3.748,4.253-3.748c0.224,0,0.457,0.04,0.708,0.123
					c-0.292,1.595-0.596,3.23-0.912,4.909c-0.383,2.02-0.781,4.08-1.196,6.187c-1.498,1.285-2.795,2.298-3.863,3.017
					C160.925,43.55,160.492,43.773,160.253,43.878L160.253,43.878z"/>
			</g>
			<g>
				<path fill="#403130" d="M200.895,55.211c-2.263,0-4.441-0.186-6.477-0.551c-2.045-0.37-4.005-0.934-5.827-1.676
					c-0.479-0.195-0.781-0.675-0.75-1.191c0.067-1.111,0.112-2.031,0.146-2.749c0.033-0.698,0.047-1.236,0.047-1.609
					c0-0.71-0.046-1.519-0.138-2.402c-0.085-0.82-0.267-2.108-0.589-4.176c-0.101-0.648,0.335-1.259,0.981-1.375l3.976-0.712
					c0.07-0.013,0.142-0.019,0.213-0.019c0.246,0,0.487,0.075,0.691,0.217c0.264,0.184,0.442,0.465,0.498,0.781
					c0.534,3.027,1.455,5.182,2.737,6.405c1.239,1.186,3.13,1.786,5.621,1.786c2.126,0,3.809-0.356,5.002-1.06
					c1.339-0.79,1.494-1.687,1.494-2.291c0-1.344-2.126-2.57-5.987-3.453c-0.884-0.222-1.537-0.381-1.99-0.49
					c-4.63-1.118-7.805-2.513-9.709-4.266c-1.988-1.826-2.996-4.325-2.996-7.425c0-4.125,1.743-7.472,5.182-9.946
					c3.312-2.383,7.767-3.591,13.243-3.591c2.103,0,4.108,0.158,5.963,0.47c1.868,0.315,3.653,0.818,5.308,1.493
					c0.498,0.203,0.802,0.711,0.745,1.246c-0.022,0.218-0.036,0.487-0.048,0.81c-0.009,0.336-0.014,0.838-0.014,1.493
					c0,1.345,0.06,2.652,0.177,3.885c0.112,1.221,0.285,2.414,0.513,3.548c0.065,0.324-0.006,0.662-0.196,0.932
					c-0.19,0.271-0.483,0.452-0.811,0.5l-3.691,0.549c-0.06,0.009-0.118,0.013-0.178,0.013c-0.274,0-0.542-0.093-0.758-0.267
					c-0.263-0.212-0.425-0.524-0.447-0.86c-0.149-2.238-0.809-3.872-1.958-4.857c-1.182-1.012-3.067-1.525-5.604-1.525
					c-1.815,0-3.27,0.327-4.321,0.973c-1.151,0.704-1.299,1.437-1.299,1.996c0,0.601,0.632,2.132,6.486,3.38
					c0.464,0.09,0.842,0.168,1.12,0.241c4.543,0.941,7.791,2.277,9.869,4.071c2.168,1.876,3.267,4.417,3.267,7.551
					c0,4.302-1.83,7.794-5.439,10.382C211.463,53.943,206.736,55.211,200.895,55.211z"/>
				<path fill="#403130" d="M206.264,16.625c2.052,0,3.971,0.152,5.763,0.453c1.788,0.302,3.475,0.777,5.052,1.42
					c-0.025,0.241-0.041,0.537-0.054,0.894c-0.01,0.354-0.015,0.867-0.015,1.536c0,1.404,0.062,2.732,0.182,3.999
					c0.116,1.259,0.293,2.485,0.531,3.671l-3.691,0.549c-0.173-2.588-0.967-4.485-2.377-5.694c-1.412-1.209-3.544-1.815-6.39-1.815
					c-2.052,0-3.704,0.385-4.953,1.15c-1.255,0.768-1.875,1.775-1.875,3.026c0,1.984,2.481,3.504,7.442,4.562
					c0.453,0.088,0.807,0.161,1.066,0.229c4.361,0.905,7.488,2.179,9.386,3.816c1.897,1.643,2.848,3.853,2.848,6.636
					c0,3.906-1.644,7.041-4.936,9.4c-3.289,2.362-7.74,3.545-13.349,3.545c-2.203,0-4.291-0.178-6.263-0.532
					c-1.973-0.356-3.838-0.894-5.585-1.605c0.067-1.117,0.113-2.042,0.147-2.765s0.048-1.279,0.048-1.666
					c0-0.756-0.048-1.597-0.144-2.526c-0.097-0.925-0.302-2.34-0.597-4.238l3.976-0.712c0.582,3.301,1.613,5.658,3.093,7.069
					c1.477,1.413,3.629,2.12,6.455,2.12c2.351,0,4.223-0.406,5.615-1.227c1.39-0.82,2.089-1.932,2.089-3.332
					c0-2.031-2.309-3.575-6.926-4.631c-0.864-0.217-1.521-0.378-1.978-0.487c-4.379-1.057-7.437-2.381-9.173-3.98
					c-1.737-1.596-2.606-3.773-2.606-6.537c0-3.731,1.561-6.721,4.68-8.965C196.844,17.746,201.026,16.625,206.264,16.625
					 M206.264,14.209c-5.735,0-10.428,1.285-13.949,3.819c-3.771,2.715-5.684,6.391-5.684,10.927c0,3.453,1.14,6.25,3.388,8.316
					c0.206,0.189,0.425,0.375,0.656,0.556l-2.599,0.466c-1.293,0.231-2.164,1.452-1.962,2.75c0.318,2.047,0.497,3.317,0.581,4.118
					c0.087,0.84,0.131,1.606,0.131,2.275c0,0.272-0.008,0.763-0.046,1.552c-0.033,0.715-0.079,1.629-0.146,2.733
					c-0.062,1.034,0.541,1.992,1.5,2.383c1.9,0.774,3.941,1.362,6.067,1.746c2.107,0.379,4.358,0.57,6.692,0.57
					c6.099,0,11.064-1.345,14.758-3.998c3.942-2.826,5.942-6.649,5.942-11.363c0-3.5-1.238-6.348-3.683-8.463
					c-0.539-0.465-1.147-0.902-1.827-1.31l1.993-0.296c0.655-0.098,1.241-0.459,1.622-1.001c0.38-0.542,0.521-1.216,0.392-1.865
					c-0.22-1.092-0.386-2.242-0.494-3.417c-0.114-1.201-0.172-2.47-0.172-3.777c0-0.64,0.005-1.131,0.014-1.469
					c0.01-0.271,0.021-0.511,0.042-0.707c0.112-1.069-0.495-2.084-1.49-2.491c-1.736-0.708-3.608-1.235-5.562-1.566
					C210.507,14.373,208.433,14.209,206.264,14.209L206.264,14.209z M207.493,28.251c-0.307-0.077-0.672-0.152-1.15-0.246
					c-4.874-1.04-5.492-2.221-5.497-2.232c0.008-0.167,0.008-0.482,0.729-0.923c0.86-0.528,2.103-0.795,3.691-0.795
					c2.209,0,3.875,0.427,4.818,1.234c0.893,0.765,1.41,2.118,1.537,4.02c0.001,0.006,0.001,0.012,0.001,0.018
					C210.378,28.925,209.004,28.567,207.493,28.251L207.493,28.251z M202.026,46.732c-2.17,0-3.779-0.488-4.784-1.45
					c-0.992-0.945-1.768-2.698-2.26-5.092c1.512,0.603,3.267,1.145,5.277,1.63c0.454,0.108,1.103,0.267,1.956,0.481
					c0.017,0.004,0.033,0.008,0.05,0.012c4.15,0.949,5.049,2.053,5.049,2.275c0,0.27,0,0.72-0.901,1.251
					C205.41,46.431,203.933,46.732,202.026,46.732L202.026,46.732z"/>
			</g>
			<g>
				<path fill="#403130" d="M251.348,54.142c-5.864-0.192-10.036-0.317-12.513-0.374c-2.47-0.049-4.532-0.078-6.185-0.078
					c-1.704,0-3.62,0.031-5.858,0.096c-2.115,0.067-4.675,0.187-7.603,0.354c-0.023,0.002-0.046,0.002-0.069,0.002
					c-0.308,0-0.604-0.117-0.829-0.329c-0.242-0.229-0.379-0.547-0.379-0.879v-3.04c0-0.341,0.145-0.667,0.397-0.896
					c0.223-0.202,0.513-0.312,0.811-0.312c0.04,0,0.08,0.002,0.12,0.006l0.982,0.099c0.158,0.016,0.3,0.026,0.42,0.026
					c1.468,0,1.79-0.565,1.896-0.751c0.186-0.326,0.618-1.541,0.618-5.746v-9.123c0-0.741,0.011-1.704,0.032-2.887
					c0.021-1.167,0.03-1.973,0.03-2.422c0-3.812-0.407-4.977-0.582-5.3c-0.104-0.191-0.387-0.709-1.67-0.709
					c-0.297,0-0.529,0.005-0.697,0.014c-0.197,0.013-0.394,0.018-0.57,0.018c-0.667,0-1.208-0.541-1.208-1.208v-3.043
					c0-0.33,0.135-0.646,0.374-0.874c0.225-0.215,0.523-0.334,0.834-0.334c0.019,0,0.037,0,0.056,0.001
					c1.876,0.087,3.646,0.158,5.324,0.211c1.641,0.054,3.13,0.081,4.429,0.081c1.341,0,2.859-0.027,4.512-0.081
					c1.686-0.054,3.488-0.125,5.401-0.211c0.019-0.001,0.036-0.001,0.055-0.001c0.311,0,0.609,0.119,0.835,0.334
					c0.238,0.228,0.373,0.543,0.373,0.874v3.078c0,0.667-0.541,1.208-1.208,1.208c-0.179,0-0.401-0.015-0.669-0.039
					c-0.169-0.015-0.286-0.025-0.349-0.027c-1.051,0-1.791,0.209-2.068,0.589c-0.131,0.179-0.561,1.011-0.561,4.158
					c0,0.407,0.013,1.156,0.034,2.257c0.022,1.122,0.032,2.029,0.032,2.728l0.06,15.029c0.871,0.064,1.702,0.117,2.494,0.154
					c1.049,0.052,2.102,0.078,3.131,0.078c3.227,0,4.737-0.611,5.436-1.124c1.019-0.75,1.931-2.295,2.708-4.591
					c0.17-0.501,0.639-0.821,1.145-0.821c0.107,0,0.217,0.015,0.325,0.045l3.238,0.906c0.316,0.088,0.583,0.302,0.739,0.591
					c0.155,0.289,0.187,0.629,0.086,0.942c-0.492,1.531-0.959,3.157-1.39,4.834c-0.448,1.735-0.885,3.596-1.298,5.531
					c-0.119,0.56-0.613,0.956-1.182,0.956C251.375,54.142,251.362,54.142,251.348,54.142z"/>
				<path fill="#403130" d="M239.476,17.659v3.078c-0.151,0-0.339-0.015-0.565-0.034s-0.374-0.032-0.436-0.032
					c-1.511,0-2.532,0.361-3.061,1.083c-0.528,0.724-0.793,2.349-0.793,4.872c0,0.411,0.013,1.168,0.034,2.281
					c0.022,1.112,0.032,2.012,0.032,2.704l0.063,16.147c1.297,0.105,2.509,0.19,3.642,0.243c1.131,0.056,2.193,0.079,3.188,0.079
					c2.871,0,4.917-0.453,6.15-1.357c1.23-0.906,2.275-2.633,3.138-5.178l3.238,0.906c-0.499,1.553-0.969,3.186-1.409,4.904
					c-0.442,1.713-0.881,3.572-1.31,5.579c-5.87-0.192-10.046-0.317-12.525-0.374c-2.482-0.049-4.554-0.078-6.212-0.078
					c-1.816,0-3.777,0.035-5.893,0.096c-2.114,0.067-4.66,0.186-7.638,0.356v-3.04c0.431,0.043,0.756,0.074,0.973,0.098
					c0.214,0.021,0.396,0.033,0.55,0.033c1.443,0,2.428-0.452,2.945-1.361c0.516-0.906,0.776-3.021,0.776-6.344v-4.628v-1.325v-3.17
					c0-0.735,0.011-1.69,0.032-2.865c0.021-1.178,0.03-1.991,0.03-2.444c0-3.021-0.243-4.979-0.728-5.875
					c-0.487-0.894-1.398-1.342-2.732-1.342c-0.324,0-0.578,0.005-0.762,0.015c-0.184,0.012-0.354,0.017-0.506,0.017v-3.043
					c1.882,0.087,3.658,0.158,5.342,0.212c1.685,0.055,3.172,0.082,4.467,0.082c1.338,0,2.853-0.026,4.551-0.082
					C235.75,17.817,237.557,17.746,239.476,17.659 M239.476,15.242c-0.036,0-0.073,0.001-0.109,0.002
					c-1.942,0.088-3.754,0.159-5.385,0.211c-1.641,0.053-3.146,0.08-4.474,0.08c-1.286,0-2.762-0.027-4.388-0.08
					c-1.63-0.052-3.366-0.121-5.31-0.211c-0.037-0.001-0.074-0.002-0.111-0.002c-0.62,0-1.218,0.239-1.669,0.669
					c-0.478,0.456-0.747,1.087-0.747,1.748v3.043c0,1.334,1.081,2.417,2.416,2.417c0.2,0,0.425-0.006,0.666-0.022
					c0.121-0.006,0.332-0.01,0.602-0.01c0.469,0,0.626,0.092,0.627,0.093c0.023,0.068,0.417,0.961,0.417,4.708
					c0,0.444-0.009,1.243-0.03,2.4c-0.021,1.193-0.032,2.163-0.032,2.909v3.17v1.325v4.628c0,4.107-0.419,5.063-0.467,5.159
					c-0.037,0.026-0.291,0.13-0.839,0.13c-0.086,0-0.188-0.01-0.309-0.021c-0.137-0.015-0.347-0.036-0.608-0.062l-0.365-0.036
					c-0.08-0.008-0.161-0.012-0.24-0.012c-0.597,0-1.175,0.221-1.622,0.625c-0.506,0.458-0.794,1.108-0.794,1.791v3.04
					c0,0.665,0.273,1.301,0.757,1.757c0.45,0.425,1.044,0.659,1.659,0.659c0.046,0,0.092-0.001,0.139-0.004
					c2.918-0.167,5.467-0.286,7.576-0.354c2.219-0.063,4.123-0.095,5.815-0.095c1.512,0,3.471,0.025,6.164,0.078
					c2.457,0.056,6.546,0.178,12.494,0.373c0.026,0.001,0.054,0.001,0.08,0.001c1.136,0,2.123-0.793,2.362-1.911
					c0.41-1.919,0.843-3.763,1.286-5.479c0.425-1.659,0.886-3.262,1.37-4.77c0.2-0.625,0.139-1.306-0.173-1.884
					c-0.311-0.579-0.844-1.005-1.477-1.183l-3.238-0.906c-0.218-0.061-0.437-0.09-0.652-0.09c-1.011,0-1.948,0.639-2.287,1.642
					c-0.914,2.697-1.822,3.669-2.282,4.008c-0.449,0.329-1.665,0.887-4.718,0.887c-1.01,0-2.042-0.026-3.068-0.076
					c-0.427-0.021-0.874-0.045-1.354-0.076l-0.055-13.91c0-0.695-0.01-1.611-0.032-2.744c-0.021-1.088-0.034-1.829-0.034-2.232
					c0-2.231,0.227-3.121,0.323-3.398c0.129-0.05,0.444-0.137,1.069-0.141c0.062,0.004,0.154,0.012,0.272,0.023
					c0.311,0.026,0.566,0.043,0.773,0.043c1.335,0,2.416-1.082,2.416-2.417v-3.078c0-0.66-0.27-1.291-0.746-1.747
					C240.695,15.481,240.096,15.242,239.476,15.242L239.476,15.242z"/>
			</g>
			<g>
				<path fill="#403130" d="M299.247,54.14c-2.213-0.129-4.178-0.223-5.882-0.288c-1.604-0.062-3.062-0.095-4.339-0.095
					c-1.172,0-2.577,0.032-4.176,0.095c-1.711,0.065-3.719,0.159-6.016,0.288c-0.023,0.002-0.046,0.002-0.068,0.002
					c-0.308,0-0.605-0.117-0.83-0.33c-0.241-0.229-0.378-0.546-0.378-0.878v-3.04c0-0.667,0.541-1.208,1.208-1.208h0.453
					c1.563,0,2.146-0.257,2.322-0.367c0.115-0.071,0.322-0.199,0.322-0.755c0-0.005-0.003-0.133-0.104-0.504
					c-0.082-0.306-0.223-0.719-0.432-1.271l-1.025-2.599c-0.76-0.014-1.542-0.026-2.342-0.034c-1.085-0.01-2.586-0.013-4.503-0.013
					c-0.729,0-1.547,0.003-2.446,0.013c-0.675,0.008-1.389,0.021-2.14,0.035c-1.374,3.078-1.486,3.97-1.486,4.177
					c0,0.708,0.222,0.854,0.295,0.901c0.129,0.084,0.688,0.364,2.48,0.417c0.652,0.02,1.172,0.555,1.172,1.208v3.04
					c0,0.333-0.138,0.651-0.38,0.88c-0.225,0.211-0.521,0.328-0.828,0.328c-0.024,0-0.251-0.013-0.251-0.013
					c-0.648-0.039-1.514-0.091-2.594-0.148c-3.148-0.185-4.502-0.224-5.084-0.224c-0.862,0-2.59,0.082-5.133,0.243
					c-1.161,0.073-2.066,0.118-2.721,0.141c-0.014,0.001-0.028,0.001-0.042,0.001c-0.312,0-0.613-0.121-0.84-0.339
					c-0.235-0.228-0.368-0.541-0.368-0.869v-3.04c0-0.667,0.541-1.208,1.208-1.208h0.451c1.951,0,3.66-1.601,5.081-4.757
					c0.175-0.371,0.302-0.641,0.382-0.826l5.516-11.937c1.854-3.995,3.261-7.075,4.183-9.156c0.886-2.014,1.612-3.774,2.158-5.228
					c0.177-0.472,0.627-0.784,1.131-0.784h9.256c0.521,0,0.983,0.333,1.146,0.828c1.2,3.62,2.876,7.989,4.982,12.985
					c0.649,1.517,1.106,2.606,1.367,3.262l4.5,11.324c0.073,0.168,0.188,0.438,0.322,0.774c1.38,3.515,3.246,3.515,3.859,3.515
					h0.682c0.667,0,1.208,0.541,1.208,1.208v3.04c0,0.333-0.137,0.65-0.379,0.879c-0.225,0.212-0.521,0.329-0.829,0.329
					C299.293,54.142,299.27,54.142,299.247,54.14z M271.818,35.827c0.471,0.01,0.958,0.025,1.462,0.044
					c0.308,0.019,0.488,0.03,0.569,0.03c0.875,0,1.755-0.011,2.644-0.031l1.089-0.025l-2.632-7.317L271.818,35.827z"/>
				<path fill="#403130" d="M282.458,17.206c1.209,3.648,2.878,8.003,5.016,13.075c0.646,1.51,1.1,2.589,1.357,3.238l4.5,11.324
					c0.085,0.195,0.194,0.455,0.324,0.778c1.118,2.849,2.782,4.272,4.98,4.272h0.682v3.04c-2.222-0.13-4.195-0.224-5.906-0.289
					c-1.717-0.067-3.176-0.096-4.385-0.096c-1.1,0-2.51,0.028-4.224,0.096c-1.716,0.065-3.73,0.159-6.036,0.289v-3.04h0.453
					c1.379,0,2.369-0.182,2.961-0.55c0.593-0.366,0.892-0.96,0.892-1.78c0-0.196-0.05-0.469-0.147-0.824
					c-0.096-0.357-0.253-0.814-0.467-1.379l-1.326-3.363c-1.015-0.022-2.069-0.04-3.158-0.051c-1.09-0.01-2.594-0.013-4.516-0.013
					c-0.732,0-1.555,0.003-2.459,0.013c-0.904,0.011-1.873,0.029-2.911,0.051l-0.033,0.062c-1.253,2.74-1.877,4.51-1.877,5.307
					c0,0.907,0.28,1.544,0.84,1.911c0.562,0.369,1.598,0.57,3.107,0.615v3.04c-0.667-0.04-1.595-0.097-2.781-0.159
					c-2.591-0.152-4.306-0.226-5.147-0.226c-0.885,0-2.618,0.081-5.209,0.245c-1.146,0.072-2.04,0.117-2.687,0.14v-3.04h0.451
					c2.481,0,4.541-1.821,6.183-5.469c0.173-0.366,0.305-0.647,0.389-0.841l5.504-11.912c1.872-4.033,3.269-7.091,4.19-9.174
					c0.915-2.08,1.642-3.846,2.185-5.292H282.458 M273.849,37.109c0.884,0,1.772-0.011,2.67-0.031
					c0.891-0.022,1.818-0.044,2.767-0.065l-4.237-11.78l-5.055,11.78c0.995,0,2.073,0.021,3.24,0.065
					C273.554,37.098,273.76,37.109,273.849,37.109 M282.458,14.79h-9.256c-1.007,0-1.908,0.625-2.263,1.567
					c-0.538,1.434-1.256,3.172-2.134,5.168c-0.916,2.07-2.32,5.144-4.17,9.13l-5.506,11.915c-0.008,0.017-0.016,0.034-0.023,0.051
					c-0.077,0.178-0.198,0.436-0.357,0.772c-1.226,2.723-2.564,4.084-3.997,4.084H254.3c-1.335,0-2.416,1.081-2.416,2.416v3.04
					c0,0.655,0.266,1.282,0.737,1.738c0.451,0.436,1.054,0.678,1.679,0.678c0.028,0,0.056,0,0.084-0.001
					c0.719-0.025,1.646-0.073,2.755-0.144c3.137-0.198,4.481-0.24,5.057-0.24c0.565,0,1.894,0.039,5.006,0.222
					c1.09,0.058,1.951,0.109,2.598,0.148l0.181,0.011c0.048,0.003,0.097,0.004,0.145,0.004c0.614,0,1.207-0.233,1.656-0.657
					c0.485-0.456,0.76-1.093,0.76-1.759v-3.04c0-1.307-1.038-2.377-2.344-2.415c-0.825-0.024-1.319-0.098-1.596-0.158
					c0.034-0.187,0.207-0.941,1.064-2.937c0.47-0.009,0.924-0.016,1.363-0.021c0.891-0.01,1.704-0.013,2.429-0.013
					c1.913,0,3.409,0.003,4.494,0.013c0.515,0.005,1.022,0.012,1.523,0.02l0.734,1.864c0.181,0.477,0.312,0.863,0.381,1.117
					c0.001,0.004,0.002,0.007,0.003,0.011c-0.256,0.05-0.688,0.103-1.374,0.103h-0.453c-1.335,0-2.416,1.081-2.416,2.416v3.04
					c0,0.664,0.273,1.3,0.756,1.756c0.45,0.426,1.045,0.66,1.66,0.66c0.045,0,0.091-0.001,0.136-0.004
					c2.133-0.12,4.149-0.216,5.992-0.286c1.587-0.062,2.976-0.095,4.132-0.095c1.26,0,2.703,0.032,4.29,0.094
					c1.831,0.07,3.802,0.167,5.86,0.287c0.047,0.003,0.094,0.004,0.141,0.004c0.615,0,1.208-0.234,1.658-0.658
					c0.483-0.456,0.758-1.093,0.758-1.758v-3.04c0-1.335-1.081-2.416-2.416-2.416h-0.682c-0.453,0-1.656,0-2.731-2.739
					c-0.139-0.347-0.252-0.616-0.342-0.823l-4.485-11.289c-0.258-0.649-0.71-1.728-1.382-3.297
					c-2.089-4.955-3.754-9.293-4.943-12.884C284.423,15.457,283.5,14.79,282.458,14.79L282.458,14.79z M273.624,34.681l1.227-2.858
					l1.026,2.852c-0.674,0.012-1.346,0.019-2.016,0.019C273.808,34.691,273.729,34.687,273.624,34.681L273.624,34.681z"/>
			</g>
			<g>
				<path fill="#403130" d="M320.67,54.142c-0.614,0-1.131-0.461-1.2-1.071c-0.079-0.688-0.963-3.72-6.003-16.287l-1.732-4.335
					l-1.355,12.43c-0.017,0.182-0.029,0.401-0.042,0.633c-0.008,0.217-0.014,0.529-0.014,0.92c0,1.354,0.32,1.743,0.419,1.83
					c0.11,0.098,0.616,0.425,2.354,0.425h0.484c0.322,0,0.632,0.129,0.859,0.358c0.227,0.229,0.353,0.54,0.349,0.863l-0.033,3.04
					c-0.004,0.327-0.14,0.639-0.377,0.863c-0.225,0.213-0.522,0.331-0.831,0.331c-0.018,0-0.035,0-0.053-0.001
					c-0.524-0.022-1.291-0.063-2.295-0.132c-2.769-0.169-4.575-0.252-5.514-0.252c-0.462,0-1.554,0.033-4.131,0.19
					c-1.229,0.087-2.193,0.152-2.886,0.192c-0.023,0.002-0.047,0.002-0.07,0.002c-0.308,0-0.604-0.117-0.829-0.329
					c-0.242-0.229-0.379-0.546-0.379-0.879v-3.04c0-0.345,0.147-0.674,0.405-0.903c0.223-0.197,0.509-0.305,0.803-0.305
					c0.047,0,0.095,0.003,0.142,0.008c0.155,0.019,0.3,0.033,0.444,0.044c0.148,0.013,0.337,0.013,0.58,0.013
					c0.01,0,0.019,0,0.028,0c1.47,0,2.613-2.791,3.138-7.658c0.192-1.82,0.356-3.27,0.486-4.353l0.748-5.709
					c0.253-2.009,0.449-3.66,0.578-4.947c0.155-1.544,0.188-2.247,0.188-2.564c0-0.8-0.153-1.223-0.284-1.342
					c-0.013-0.011-0.348-0.299-1.745-0.299c-0.114,0-0.304,0.012-0.569,0.029c-0.335,0.022-0.59,0.037-0.758,0.037
					c-0.667,0-1.208-0.541-1.208-1.208v-3.078c0-0.33,0.135-0.645,0.372-0.873c0.226-0.216,0.525-0.335,0.836-0.335
					c0.018,0,0.035,0,0.053,0.001c1.805,0.079,3.371,0.132,4.692,0.171c1.312,0.035,2.404,0.054,3.284,0.054
					c1.056,0,2.298-0.026,3.692-0.079c1.408-0.055,3.15-0.134,5.242-0.24c0.02-0.001,0.04-0.001,0.061-0.001
					c0.31,0,0.607,0.118,0.832,0.333c0.24,0.228,0.376,0.544,0.376,0.875c0,0.579,0.312,2.333,2.404,7.575
					c0.585,1.473,1.04,2.617,1.362,3.438l2.537,6.448l4.169-9.344l0.262-0.566c2.024-4.445,2.466-6.518,2.479-7.473
					c0.005-0.328,0.143-0.64,0.382-0.865c0.225-0.21,0.52-0.327,0.826-0.327c0.021,0,1.906,0.1,1.906,0.1
					c2.928,0.13,4.828,0.193,5.801,0.193c1.562,0,4.215-0.074,8.106-0.225c0.396-0.02,0.712-0.042,0.939-0.063
					c0.037-0.003,0.073-0.005,0.11-0.005c0.3,0,0.591,0.111,0.814,0.315c0.251,0.229,0.394,0.553,0.394,0.893v3.078
					c0,0.667-0.541,1.208-1.208,1.208c-2.645,0-3.216,0.358-3.272,0.399c-0.181,0.131-0.374,0.609-0.374,1.561
					c0,0.274,0.017,1.003,0.128,2.808c0.086,1.438,0.203,3,0.351,4.692l0.328,4.421c0.086,1.186,0.193,2.765,0.326,4.73
					c0.447,7.604,2.135,8.194,2.642,8.194c0.244,0,0.438,0,0.589-0.012c0.153-0.011,0.287-0.024,0.409-0.041
					c0.055-0.008,0.11-0.012,0.166-0.012c0.287,0,0.567,0.103,0.788,0.293c0.264,0.227,0.416,0.555,0.42,0.902l0.032,3.04
					c0.004,0.335-0.132,0.656-0.375,0.888c-0.225,0.215-0.523,0.333-0.833,0.333c-0.023,0-0.048-0.001-0.071-0.002
					c-2.188-0.129-4.143-0.223-5.865-0.288c-1.613-0.062-3.056-0.095-4.288-0.095c-1.084,0-3.359,0.078-6.58,0.225
					c-1.22,0.059-2.181,0.112-2.885,0.152c0,0-0.16,0.008-0.183,0.008c-0.306,0-0.602-0.116-0.826-0.326
					c-0.241-0.227-0.379-0.541-0.382-0.871l-0.027-3.04c-0.003-0.322,0.123-0.632,0.35-0.861c0.228-0.229,0.536-0.357,0.858-0.357
					h1.003c1.712,0,2.216-0.346,2.329-0.452c0.101-0.095,0.442-0.539,0.442-2.127c0-0.389-0.01-0.689-0.016-0.906
					c-0.011-0.224-0.026-0.423-0.047-0.62l-0.771-12.479l-6.665,14.825c-0.888,2.013-1.487,3.445-1.777,4.251
					c-0.281,0.785-0.485,1.463-0.604,2.014c-0.121,0.555-0.612,0.951-1.181,0.951H320.67z"/>
				<path fill="#403130" d="M318.599,17.565c0,1.185,0.829,3.86,2.49,8.022c0.584,1.47,1.038,2.613,1.36,3.432l3.592,9.127
					l5.342-11.974l0.255-0.551c1.709-3.752,2.569-6.41,2.591-7.963c0.435,0.022,1.048,0.058,1.845,0.099
					c2.871,0.127,4.826,0.195,5.862,0.195c1.618,0,4.332-0.077,8.153-0.226c0.432-0.022,0.764-0.046,1.003-0.068v3.078
					c-2.071,0-3.397,0.207-3.98,0.628c-0.586,0.424-0.874,1.268-0.874,2.54c0,0.475,0.041,1.438,0.13,2.882
					c0.087,1.447,0.204,3.019,0.354,4.724l0.326,4.405c0.086,1.182,0.193,2.76,0.326,4.722c0.365,6.214,1.647,9.321,3.847,9.321
					c0.283,0,0.508-0.002,0.683-0.016c0.172-0.012,0.334-0.028,0.481-0.049l0.032,3.04c-2.197-0.13-4.161-0.224-5.891-0.289
					c-1.727-0.067-3.168-0.096-4.334-0.096c-1.08,0-3.292,0.073-6.635,0.226c-1.295,0.062-2.297,0.119-3.013,0.159l-0.027-3.04
					h1.003c1.555,0,2.602-0.262,3.153-0.776c0.551-0.519,0.826-1.522,0.826-3.011c0-0.43-0.011-0.757-0.018-0.984
					c-0.012-0.229-0.028-0.449-0.051-0.666l-1.068-17.313l-8.671,19.288c-0.905,2.051-1.51,3.496-1.812,4.336
					c-0.301,0.84-0.518,1.564-0.648,2.167h-4.561c-0.152-1.335-2.179-6.867-6.082-16.6c-1.492-3.731-2.668-6.676-3.529-8.834
					l-1.881,17.248c-0.02,0.217-0.033,0.45-0.047,0.696c-0.01,0.249-0.016,0.577-0.016,0.987c0,1.338,0.276,2.248,0.825,2.734
					c0.552,0.486,1.604,0.729,3.155,0.729h0.484l-0.033,3.04c-0.518-0.022-1.274-0.062-2.266-0.13
					c-2.76-0.169-4.622-0.255-5.596-0.255c-0.669,0-2.074,0.062-4.204,0.192c-1.233,0.087-2.193,0.152-2.883,0.192v-3.04
					c0.174,0.021,0.337,0.037,0.499,0.049c0.164,0.014,0.395,0.016,0.695,0.016c2.27,0,3.712-2.914,4.339-8.736
					c0.192-1.815,0.355-3.26,0.484-4.339l0.747-5.695c0.255-2.027,0.452-3.688,0.582-4.984s0.193-2.189,0.193-2.685
					c0-1.079-0.227-1.825-0.682-2.237c-0.45-0.406-1.303-0.612-2.556-0.612c-0.13,0-0.346,0.012-0.647,0.032
					c-0.301,0.02-0.529,0.034-0.68,0.034v-3.078c1.812,0.079,3.384,0.133,4.71,0.171c1.328,0.035,2.431,0.055,3.319,0.055
					c1.077,0,2.321-0.026,3.737-0.079C314.755,17.75,316.502,17.671,318.599,17.565 M318.599,15.148
					c-0.04,0-0.081,0.001-0.122,0.003c-2.086,0.105-3.824,0.184-5.23,0.239c-1.375,0.051-2.602,0.077-3.643,0.077
					c-0.822,0-1.887-0.018-3.256-0.054c-1.563-0.045-3.093-0.101-4.668-0.17c-0.035-0.001-0.07-0.002-0.105-0.002
					c-0.621,0-1.221,0.24-1.671,0.671c-0.477,0.456-0.745,1.086-0.745,1.746v3.078c0,1.334,1.081,2.417,2.416,2.417
					c0.185,0,0.466-0.015,0.836-0.04c0.227-0.015,0.391-0.026,0.492-0.026c0.366,0,0.626,0.022,0.803,0.048
					c0.01,0.099,0.018,0.226,0.018,0.385c0,0.237-0.023,0.871-0.182,2.444c-0.117,1.173-0.301,2.738-0.575,4.924l-0.745,5.682
					c-0.134,1.115-0.298,2.57-0.492,4.398c-0.632,5.872-1.916,6.571-1.929,6.576c-0.221-0.001-0.385,0.001-0.502-0.009
					c-0.152-0.011-0.28-0.024-0.416-0.04c-0.095-0.012-0.189-0.017-0.283-0.017c-0.589,0-1.161,0.215-1.605,0.61
					c-0.516,0.458-0.811,1.115-0.811,1.806v3.04c0,0.665,0.273,1.301,0.758,1.758c0.449,0.424,1.043,0.658,1.658,0.658
					c0.047,0,0.093-0.001,0.14-0.004c0.697-0.04,1.667-0.106,2.913-0.194c2.658-0.162,3.67-0.187,4.034-0.187
					c0.901,0,2.734,0.085,5.448,0.251c1.001,0.068,1.777,0.108,2.309,0.132c0.035,0.002,0.069,0.002,0.104,0.002
					c0.617,0,1.212-0.235,1.662-0.661c0.475-0.45,0.747-1.074,0.754-1.729l0.033-3.04c0.007-0.646-0.244-1.267-0.698-1.726
					s-1.072-0.717-1.718-0.717h-0.484c-0.812,0-1.263-0.081-1.481-0.139c-0.038-0.157-0.083-0.442-0.083-0.908
					c0-0.371,0.005-0.668,0.014-0.893c0.011-0.178,0.022-0.383,0.039-0.574l0.826-7.569c5.064,12.637,5.785,15.271,5.859,15.818
					c0.14,1.221,1.172,2.137,2.4,2.137h4.561c1.137,0,2.12-0.792,2.361-1.903c0.108-0.499,0.298-1.126,0.562-1.865
					c0.278-0.774,0.867-2.181,1.748-4.175l4.651-10.346l0.465,7.544c0.002,0.034,0.005,0.067,0.009,0.101
					c0.018,0.168,0.03,0.34,0.04,0.517c0.007,0.244,0.016,0.525,0.016,0.885c0,0.665-0.069,1.041-0.12,1.228
					c-0.207,0.059-0.645,0.144-1.443,0.144h-1.003c-0.645,0-1.263,0.257-1.716,0.715c-0.454,0.458-0.706,1.078-0.7,1.723l0.027,3.04
					c0.006,0.661,0.282,1.29,0.764,1.741c0.449,0.421,1.04,0.653,1.652,0.653c0.045,0,0.09-0.001,0.135-0.003l0.112-0.007
					c0.702-0.039,1.661-0.093,2.882-0.151c4.04-0.185,5.775-0.224,6.519-0.224c1.218,0,2.644,0.032,4.24,0.095
					c1.829,0.068,3.794,0.165,5.842,0.286c0.048,0.003,0.096,0.004,0.143,0.004c0.619,0,1.216-0.237,1.667-0.666
					c0.485-0.463,0.757-1.105,0.749-1.775l-0.032-3.04c-0.007-0.694-0.312-1.353-0.839-1.806c-0.441-0.38-1.002-0.585-1.577-0.585
					c-0.11,0-0.222,0.007-0.333,0.022c-0.096,0.014-0.201,0.024-0.312,0.031c-0.118,0.01-0.243,0.011-0.391,0.011
					c-0.01,0-0.019,0-0.028,0c-0.227-0.238-1.212-1.574-1.534-7.046c-0.135-1.989-0.242-3.571-0.328-4.756l-0.326-4.408
					c-0.148-1.689-0.266-3.256-0.352-4.69c-0.113-1.843-0.126-2.528-0.126-2.737c0-0.265,0.018-0.455,0.038-0.584
					c0.35-0.072,1.064-0.167,2.4-0.167c1.335,0,2.416-1.082,2.416-2.417v-3.078c0-0.679-0.285-1.327-0.787-1.785
					c-0.447-0.408-1.029-0.631-1.629-0.631c-0.073,0-0.147,0.003-0.221,0.01c-0.216,0.02-0.516,0.041-0.905,0.061
					c-3.847,0.149-6.483,0.222-8.03,0.222c-0.955,0-2.838-0.063-5.755-0.192l-1.154-0.062l-0.676-0.036
					c-0.041-0.002-0.081-0.003-0.122-0.003c-0.612,0-1.204,0.233-1.652,0.654c-0.479,0.449-0.755,1.073-0.764,1.729
					c-0.008,0.553-0.254,2.342-2.374,6.995l-0.249,0.538l-3.009,6.745l-1.483-3.768c-0.322-0.821-0.777-1.967-1.363-3.439
					c-2.207-5.532-2.319-6.91-2.319-7.13c0-0.662-0.271-1.295-0.751-1.751C319.814,15.386,319.217,15.148,318.599,15.148
					L318.599,15.148z"/>
			</g>
		</g>
		<g>
			
				<linearGradient id="SVGID_1_" gradientUnits="userSpaceOnUse" x1="-556.2422" y1="-211.9341" x2="-556.2422" y2="-171.2559" gradientTransform="matrix(1 0 0 1 577.6885 224.5957)">
				<stop  offset="0" style="stop-color:#F1F0D4"/>
				<stop  offset="1" style="stop-color:#E1DFAA"/>
			</linearGradient>
			<path fill="url(#SVGID_1_)" d="M23.223,44.023c-3.02,2.91-5.521,4.979-7.503,6.195c-1.987,1.221-3.79,1.83-5.405,1.83
				c-2.396,0-4.312-0.887-5.747-2.651c-1.436-1.771-2.151-4.134-2.151-7.091c0-2.76,0.532-5.471,1.603-8.139
				c1.068-2.666,2.592-5.095,4.578-7.295c2.242-2.483,4.81-4.441,7.703-5.876c2.89-1.435,5.686-2.152,8.382-2.152
				c1.142,0,2.219,0.151,3.223,0.453c1.002,0.303,1.987,0.768,2.959,1.394l7.216-1.779c-1.51,7.765-2.552,13.293-3.121,16.583
				c-0.572,3.292-0.859,5.338-0.859,6.133c0,0.691,0.125,1.221,0.371,1.589c0.25,0.363,0.591,0.547,1.021,0.547
				c0.517,0,1.541-0.581,3.074-1.746c0.366-0.282,0.648-0.497,0.841-0.648l1.069,3.524l-2.462,2.039
				c-1.962,1.641-3.779,2.904-5.454,3.788c-1.672,0.886-3.036,1.327-4.092,1.327c-1.729,0-3.054-0.518-3.979-1.553
				c-0.932-1.036-1.395-2.505-1.395-4.402c0-0.26,0.034-0.787,0.097-1.584C23.214,44.292,23.223,44.13,23.223,44.023z
				 M23.709,39.264c0.478-2.395,0.929-4.733,1.361-7.021s0.84-4.498,1.23-6.636c-0.67-0.453-1.273-0.778-1.812-0.97
				c-0.54-0.195-1.068-0.289-1.587-0.289c-2.31,0-4.427,1.652-6.343,4.95c-1.921,3.302-2.885,6.989-2.885,11.067
				c0,1.297,0.216,2.272,0.65,2.93c0.433,0.655,1.058,0.987,1.879,0.987c0.583,0,1.506-0.429,2.779-1.281
				C20.258,42.152,21.836,40.907,23.709,39.264z"/>
			
				<linearGradient id="SVGID_2_" gradientUnits="userSpaceOnUse" x1="-524.2681" y1="-211.9351" x2="-524.2681" y2="-171.2575" gradientTransform="matrix(1 0 0 1 577.6885 224.5957)">
				<stop  offset="0" style="stop-color:#F1F0D4"/>
				<stop  offset="1" style="stop-color:#E1DFAA"/>
			</linearGradient>
			<path fill="url(#SVGID_2_)" d="M61.672,44.832l-2.105,1.715c-2.241,1.812-4.232,3.195-5.967,4.143
				c-1.737,0.949-3.159,1.424-4.256,1.424c-1.642,0-2.99-0.642-4.048-1.924c-1.058-1.285-1.584-2.961-1.584-5.035
				c0-1.38,0.506-4.37,1.522-8.964c0.643-2.998,1.14-5.381,1.488-7.151l0.904-4.951c0.26-1.338,0.614-3.14,1.065-5.403
				c1.147-5.892,1.718-9.331,1.718-10.326c0-0.926-0.204-1.582-0.616-1.957c-0.407-0.378-1.132-0.571-2.167-0.571
				c-0.304,0-0.872,0.049-1.714,0.133c-0.088,0-0.155,0.01-0.196,0.034l-0.194-3.598c3.022-0.167,6.003-0.423,8.946-0.758
				c2.949-0.332,5.834-0.751,8.659-1.247c-0.69,3.583-1.64,8.428-2.848,14.532c-3.256,16.636-4.886,25.632-4.886,26.995
				c0,0.474,0.149,0.898,0.453,1.276c0.301,0.378,0.657,0.566,1.069,0.566c0.276,0,0.688-0.123,1.228-0.374
				c0.541-0.245,1.014-0.542,1.422-0.886l1.136-1.004L61.672,44.832z"/>
			
				<linearGradient id="SVGID_3_" gradientUnits="userSpaceOnUse" x1="-493.814" y1="-211.9341" x2="-493.814" y2="-171.2559" gradientTransform="matrix(1 0 0 1 577.6885 224.5957)">
				<stop  offset="0" style="stop-color:#F1F0D4"/>
				<stop  offset="1" style="stop-color:#E1DFAA"/>
			</linearGradient>
			<path fill="url(#SVGID_3_)" d="M85.653,44.023c-3.02,2.91-5.521,4.979-7.508,6.195c-1.982,1.221-3.785,1.83-5.402,1.83
				c-2.396,0-4.312-0.887-5.747-2.651c-1.435-1.771-2.148-4.134-2.148-7.091c0-2.76,0.53-5.471,1.597-8.139
				c1.07-2.666,2.597-5.095,4.583-7.295c2.242-2.483,4.809-4.441,7.704-5.876c2.887-1.435,5.682-2.152,8.379-2.152
				c1.143,0,2.216,0.151,3.222,0.453c1.004,0.303,1.991,0.768,2.962,1.394l7.217-1.779c-1.514,7.765-2.553,13.293-3.125,16.583
				c-0.569,3.292-0.858,5.338-0.858,6.133c0,0.691,0.128,1.221,0.374,1.589c0.247,0.363,0.587,0.547,1.019,0.547
				c0.52,0,1.542-0.581,3.075-1.746c0.365-0.282,0.649-0.497,0.842-0.648l1.065,3.524l-2.458,2.039
				c-1.962,1.641-3.78,2.904-5.45,3.788c-1.678,0.886-3.04,1.327-4.098,1.327c-1.727,0-3.052-0.518-3.977-1.553
				c-0.932-1.036-1.394-2.505-1.394-4.402c0-0.26,0.031-0.787,0.096-1.584C85.643,44.292,85.653,44.13,85.653,44.023z
				 M86.138,39.264c0.473-2.395,0.928-4.733,1.36-7.021c0.432-2.288,0.839-4.498,1.229-6.636c-0.667-0.453-1.271-0.778-1.808-0.97
				c-0.544-0.195-1.069-0.289-1.588-0.289c-2.308,0-4.425,1.652-6.343,4.95c-1.921,3.302-2.883,6.989-2.883,11.067
				c0,1.297,0.216,2.272,0.649,2.93c0.431,0.655,1.055,0.987,1.876,0.987c0.584,0,1.51-0.429,2.783-1.281
				C82.689,42.152,84.263,40.907,86.138,39.264z"/>
			
				<linearGradient id="SVGID_4_" gradientUnits="userSpaceOnUse" x1="-453.2456" y1="-211.9326" x2="-453.2456" y2="-171.2571" gradientTransform="matrix(1 0 0 1 577.6885 224.5957)">
				<stop  offset="0" style="stop-color:#F1F0D4"/>
				<stop  offset="1" style="stop-color:#E1DFAA"/>
			</linearGradient>
			<path fill="url(#SVGID_4_)" d="M104.815,51.726c0.626-2.893,1.264-6.023,1.926-9.403c0.655-3.374,1.546-8.062,2.668-14.063
				l0.97-5.564c1.014-5.438,1.656-9.015,1.926-10.729c0.269-1.715,0.405-2.873,0.405-3.48c0-1.034-0.199-1.745-0.599-2.135
				c-0.399-0.388-1.127-0.58-2.184-0.58c-0.366,0-0.706,0.009-1.021,0.031c-0.312,0.019-0.628,0.053-0.954,0.097l-0.192-3.499
				c2.955-0.125,5.899-0.361,8.836-0.71c2.933-0.344,5.855-0.8,8.769-1.356c-0.58,3.321-1.252,6.86-2.006,10.615
				c-0.757,3.751-1.165,5.814-1.23,6.181l-1.714,9.383c0.367-0.301,0.896-0.731,1.584-1.293c5.177-4.25,8.89-6.376,11.134-6.376
				c2.006,0,3.755,0.785,5.245,2.345c1.485,1.566,2.231,3.461,2.231,5.684c0,2.393-0.821,4.454-2.46,6.178
				c-1.64,1.726-3.98,2.979-7.022,3.757c2.434,3.474,4.135,5.677,5.098,6.617c0.961,0.939,1.825,1.408,2.605,1.408
				c0.365,0,0.846-0.156,1.44-0.469c0.591-0.312,1.462-0.889,2.604-1.732l1.198,3.043c-2.355,2.223-4.431,3.86-6.232,4.917
				c-1.803,1.057-3.413,1.587-4.837,1.587c-2.029,0-3.947-0.948-5.759-2.847c-1.813-1.901-3.67-4.931-5.568-9.094
				c-0.518,0.127-1.073,0.231-1.668,0.306c-0.593,0.077-1.255,0.132-1.987,0.18l-0.39,2.232c-0.217,1.25-0.402,2.408-0.564,3.477
				c-0.165,1.066-0.31,2.165-0.438,3.287L104.815,51.726z M118.761,36.869c3.453-0.062,6.269-0.81,8.447-2.235
				c2.181-1.421,3.271-3.2,3.271-5.336c0-0.886-0.244-1.591-0.73-2.118c-0.482-0.53-1.127-0.795-1.927-0.795
				c-1.011,0-3.072,1.1-6.178,3.299c-0.822,0.583-1.458,1.037-1.912,1.36L118.761,36.869z"/>
			
				<linearGradient id="SVGID_5_" gradientUnits="userSpaceOnUse" x1="-412.2568" y1="-211.9341" x2="-412.2568" y2="-171.2559" gradientTransform="matrix(1 0 0 1 577.6885 224.5957)">
				<stop  offset="0" style="stop-color:#F1F0D4"/>
				<stop  offset="1" style="stop-color:#E1DFAA"/>
			</linearGradient>
			<path fill="url(#SVGID_5_)" d="M167.21,44.023c-3.02,2.91-5.523,4.979-7.509,6.195c-1.985,1.221-3.787,1.83-5.402,1.83
				c-2.398,0-4.315-0.887-5.75-2.651c-1.433-1.771-2.147-4.134-2.147-7.091c0-2.76,0.534-5.471,1.601-8.139
				c1.067-2.666,2.595-5.095,4.578-7.295c2.246-2.483,4.811-4.441,7.703-5.876c2.892-1.435,5.686-2.152,8.381-2.152
				c1.144,0,2.218,0.151,3.222,0.453c1.003,0.303,1.991,0.768,2.962,1.394l7.215-1.779c-1.51,7.765-2.551,13.293-3.121,16.583
				c-0.572,3.292-0.857,5.338-0.857,6.133c0,0.691,0.123,1.221,0.373,1.589c0.246,0.363,0.586,0.547,1.017,0.547
				c0.52,0,1.543-0.581,3.075-1.746c0.368-0.282,0.648-0.497,0.84-0.648l1.072,3.524L182,46.933
				c-1.962,1.641-3.783,2.904-5.454,3.788c-1.67,0.886-3.033,1.327-4.09,1.327c-1.729,0-3.053-0.518-3.982-1.553
				c-0.931-1.036-1.396-2.505-1.396-4.402c0-0.26,0.034-0.787,0.099-1.584C167.197,44.292,167.21,44.13,167.21,44.023z
				 M167.695,39.264c0.475-2.395,0.927-4.733,1.36-7.021c0.432-2.288,0.84-4.498,1.228-6.636c-0.666-0.453-1.273-0.778-1.81-0.97
				c-0.543-0.195-1.066-0.289-1.588-0.289c-2.307,0-4.424,1.652-6.342,4.95c-1.922,3.302-2.881,6.989-2.881,11.067
				c0,1.297,0.212,2.272,0.649,2.93c0.431,0.655,1.055,0.987,1.876,0.987c0.581,0,1.511-0.429,2.782-1.281
				C164.241,42.152,165.819,40.907,167.695,39.264z"/>
			
				<linearGradient id="SVGID_6_" gradientUnits="userSpaceOnUse" x1="-373.8481" y1="-211.9326" x2="-373.8481" y2="-171.2557" gradientTransform="matrix(1 0 0 1 577.6885 224.5957)">
				<stop  offset="0" style="stop-color:#F1F0D4"/>
				<stop  offset="1" style="stop-color:#E1DFAA"/>
			</linearGradient>
			<path fill="url(#SVGID_6_)" d="M217.079,16.416c-0.025,0.238-0.041,0.535-0.054,0.889c-0.01,0.357-0.015,0.872-0.015,1.539
				c0,1.401,0.062,2.733,0.182,3.997c0.116,1.265,0.293,2.487,0.531,3.672l-3.691,0.555c-0.173-2.594-0.967-4.489-2.377-5.698
				c-1.412-1.209-3.544-1.813-6.39-1.813c-2.052,0-3.704,0.382-4.953,1.146c-1.255,0.771-1.875,1.777-1.875,3.032
				c0,1.981,2.481,3.503,7.442,4.558c0.453,0.089,0.807,0.164,1.066,0.227c4.361,0.907,7.488,2.181,9.386,3.821
				c1.897,1.639,2.848,3.85,2.848,6.633c0,3.905-1.644,7.04-4.936,9.402c-3.289,2.363-7.74,3.546-13.349,3.546
				c-2.203,0-4.291-0.182-6.263-0.538c-1.973-0.354-3.838-0.888-5.585-1.602c0.067-1.118,0.113-2.043,0.147-2.769
				c0.034-0.718,0.048-1.276,0.048-1.663c0-0.757-0.048-1.597-0.144-2.524c-0.097-0.927-0.302-2.343-0.597-4.24l3.976-0.713
				c0.582,3.305,1.613,5.659,3.093,7.072c1.477,1.414,3.629,2.119,6.455,2.119c2.351,0,4.223-0.407,5.615-1.23
				c1.39-0.819,2.089-1.928,2.089-3.33c0-2.03-2.309-3.573-6.926-4.631c-0.864-0.214-1.521-0.377-1.978-0.483
				c-4.379-1.06-7.437-2.387-9.173-3.98c-1.737-1.6-2.606-3.776-2.606-6.538c0-3.732,1.561-6.721,4.68-8.968
				c3.117-2.242,7.299-3.363,12.537-3.363c2.052,0,3.971,0.149,5.763,0.453C213.815,15.294,215.501,15.771,217.079,16.416z"/>
			
				<linearGradient id="SVGID_7_" gradientUnits="userSpaceOnUse" x1="-341.0752" y1="-211.9346" x2="-341.0752" y2="-171.2555" gradientTransform="matrix(1 0 0 1 577.6885 224.5957)">
				<stop  offset="0" style="stop-color:#F1F0D4"/>
				<stop  offset="1" style="stop-color:#E1DFAA"/>
			</linearGradient>
			<path fill="url(#SVGID_7_)" d="M219.121,50.851V47.81c0.431,0.041,0.756,0.075,0.973,0.096c0.214,0.025,0.396,0.035,0.55,0.035
				c1.443,0,2.428-0.455,2.945-1.361c0.516-0.905,0.776-3.02,0.776-6.342v-4.631V34.28v-3.171c0-0.732,0.011-1.686,0.032-2.863
				s0.03-1.994,0.03-2.446c0-3.018-0.243-4.978-0.728-5.871c-0.487-0.896-1.398-1.346-2.732-1.346c-0.324,0-0.578,0.007-0.762,0.017
				c-0.184,0.012-0.354,0.017-0.506,0.017v-3.043c1.882,0.089,3.658,0.161,5.342,0.212c1.685,0.058,3.172,0.079,4.467,0.079
				c1.338,0,2.853-0.021,4.551-0.079c1.69-0.051,3.498-0.123,5.417-0.212v3.078c-0.151,0-0.339-0.012-0.565-0.034
				c-0.227-0.02-0.374-0.033-0.436-0.033c-1.511,0-2.532,0.364-3.061,1.086c-0.528,0.723-0.793,2.345-0.793,4.871
				c0,0.41,0.013,1.17,0.034,2.283c0.022,1.11,0.032,2.013,0.032,2.702l0.063,16.149c1.297,0.106,2.509,0.188,3.642,0.241
				c1.131,0.055,2.193,0.082,3.188,0.082c2.871,0,4.917-0.455,6.15-1.358c1.23-0.908,2.275-2.631,3.138-5.182l3.238,0.908
				c-0.499,1.556-0.969,3.189-1.409,4.902c-0.442,1.717-0.881,3.578-1.31,5.584c-5.87-0.192-10.046-0.318-12.525-0.373
				c-2.482-0.051-4.554-0.079-6.212-0.079c-1.816,0-3.777,0.034-5.893,0.097C224.644,50.558,222.098,50.678,219.121,50.851z"/>
			
				<linearGradient id="SVGID_8_" gradientUnits="userSpaceOnUse" x1="-300.8804" y1="-211.9321" x2="-300.8804" y2="-171.2558" gradientTransform="matrix(1 0 0 1 577.6885 224.5957)">
				<stop  offset="0" style="stop-color:#F1F0D4"/>
				<stop  offset="1" style="stop-color:#E1DFAA"/>
			</linearGradient>
			<path fill="url(#SVGID_8_)" d="M254.3,47.81h0.451c2.481,0,4.541-1.824,6.183-5.468c0.173-0.368,0.305-0.648,0.389-0.843
				l5.504-11.909c1.872-4.036,3.269-7.094,4.19-9.174c0.915-2.083,1.642-3.847,2.185-5.292h9.256
				c1.209,3.645,2.878,8.003,5.016,13.075c0.646,1.509,1.1,2.587,1.357,3.236l4.5,11.326c0.085,0.195,0.194,0.456,0.324,0.776
				c1.118,2.852,2.782,4.273,4.98,4.273h0.682v3.041c-2.222-0.13-4.195-0.226-5.906-0.293c-1.717-0.062-3.176-0.094-4.385-0.094
				c-1.1,0-2.51,0.031-4.224,0.094c-1.716,0.067-3.73,0.163-6.036,0.293V47.81h0.453c1.379,0,2.369-0.184,2.961-0.551
				c0.593-0.366,0.892-0.959,0.892-1.78c0-0.198-0.05-0.472-0.147-0.826c-0.096-0.356-0.253-0.815-0.467-1.377l-1.326-3.363
				c-1.015-0.02-2.069-0.039-3.158-0.048c-1.09-0.01-2.594-0.015-4.516-0.015c-0.732,0-1.555,0.005-2.459,0.015
				s-1.873,0.029-2.911,0.048l-0.033,0.065c-1.253,2.74-1.877,4.51-1.877,5.303c0,0.909,0.28,1.547,0.84,1.913
				c0.562,0.368,1.598,0.573,3.107,0.616v3.041c-0.667-0.043-1.595-0.096-2.781-0.162c-2.591-0.148-4.306-0.225-5.147-0.225
				c-0.885,0-2.618,0.081-5.209,0.246c-1.146,0.071-2.04,0.117-2.687,0.141V47.81z M269.994,34.928c0.995,0,2.073,0.025,3.24,0.065
				c0.32,0.022,0.526,0.035,0.615,0.035c0.884,0,1.772-0.013,2.67-0.035c0.891-0.021,1.818-0.04,2.767-0.065l-4.237-11.779
				L269.994,34.928z"/>
			
				<linearGradient id="SVGID_9_" gradientUnits="userSpaceOnUse" x1="-252.1812" y1="-211.9326" x2="-252.1812" y2="-171.2558" gradientTransform="matrix(1 0 0 1 577.6885 224.5957)">
				<stop  offset="0" style="stop-color:#F1F0D4"/>
				<stop  offset="1" style="stop-color:#E1DFAA"/>
			</linearGradient>
			<path fill="url(#SVGID_9_)" d="M326.042,36.06l5.342-11.972l0.255-0.551c1.709-3.754,2.569-6.408,2.591-7.963
				c0.435,0.024,1.048,0.056,1.845,0.099c2.871,0.131,4.826,0.192,5.862,0.192c1.618,0,4.332-0.075,8.153-0.226
				c0.432-0.019,0.764-0.041,1.003-0.065v3.078c-2.071,0-3.397,0.209-3.98,0.628c-0.586,0.424-0.874,1.269-0.874,2.542
				c0,0.474,0.041,1.435,0.13,2.88c0.087,1.448,0.204,3.02,0.354,4.724l0.326,4.402c0.086,1.187,0.193,2.762,0.326,4.725
				c0.365,6.217,1.647,9.32,3.847,9.32c0.283,0,0.508-0.005,0.683-0.015c0.172-0.014,0.334-0.026,0.481-0.048l0.032,3.041
				c-2.197-0.13-4.161-0.226-5.891-0.293c-1.727-0.062-3.168-0.094-4.334-0.094c-1.08,0-3.292,0.076-6.635,0.225
				c-1.295,0.066-2.297,0.119-3.013,0.162l-0.027-3.041h1.003c1.555,0,2.602-0.26,3.153-0.778c0.551-0.517,0.826-1.521,0.826-3.009
				c0-0.432-0.011-0.761-0.018-0.987c-0.012-0.227-0.028-0.449-0.051-0.663l-1.068-17.315l-8.671,19.289
				c-0.905,2.051-1.51,3.492-1.812,4.336c-0.301,0.84-0.518,1.563-0.648,2.168h-4.561c-0.152-1.338-2.179-6.871-6.082-16.602
				c-1.492-3.732-2.668-6.68-3.529-8.838l-1.881,17.251c-0.02,0.216-0.033,0.45-0.047,0.693c-0.01,0.249-0.016,0.583-0.016,0.991
				c0,1.337,0.276,2.247,0.825,2.732c0.552,0.488,1.604,0.73,3.155,0.73h0.484l-0.033,3.041c-0.518-0.023-1.274-0.064-2.266-0.13
				c-2.76-0.171-4.622-0.257-5.596-0.257c-0.669,0-2.074,0.064-4.204,0.194c-1.233,0.085-2.193,0.149-2.883,0.192V47.81
				c0.174,0.021,0.337,0.034,0.499,0.048c0.164,0.01,0.395,0.015,0.695,0.015c2.27,0,3.712-2.911,4.339-8.736
				c0.192-1.813,0.355-3.26,0.484-4.336l0.747-5.696c0.255-2.03,0.452-3.692,0.582-4.985c0.13-1.295,0.193-2.189,0.193-2.685
				c0-1.082-0.227-1.825-0.682-2.234c-0.45-0.408-1.303-0.617-2.556-0.617c-0.13,0-0.346,0.014-0.647,0.033
				c-0.301,0.022-0.529,0.034-0.68,0.034v-3.078c1.812,0.079,3.384,0.133,4.71,0.169c1.328,0.041,2.431,0.061,3.319,0.061
				c1.077,0,2.321-0.027,3.737-0.083c1.414-0.053,3.161-0.133,5.258-0.241c0,1.187,0.829,3.86,2.49,8.025
				c0.584,1.467,1.038,2.613,1.36,3.429L326.042,36.06z"/>
		</g>
	</g>
	<g>
		<path fill="#FFFFFF" d="M51.088,80.557c0.056,0.008,0.109,0.014,0.161,0.018c0.052,0.005,0.13,0.007,0.233,0.007
			c1.061,0,1.6-1.492,1.615-4.475c0.008-0.75,0.016-1.336,0.023-1.759l0.048-3.266c0.009-0.702,0.015-1.384,0.019-2.046
			s0.006-1.38,0.006-2.153c0-0.687-0.128-1.16-0.383-1.423c-0.255-0.264-0.71-0.396-1.364-0.396h-0.096v-0.837
			c0.535,0.039,1.063,0.067,1.586,0.084c0.521,0.016,1.03,0.023,1.524,0.023c0.535,0,1.198-0.018,1.992-0.055
			c0.794-0.035,1.322-0.053,1.585-0.053c1.635,0,2.975,0.43,4.02,1.291s1.567,1.942,1.567,3.242c0,0.965-0.262,1.824-0.783,2.578
			c-0.522,0.754-1.307,1.398-2.352,1.932l2.237,3.387c0.08,0.127,0.199,0.311,0.359,0.55c1.547,2.36,2.815,3.541,3.804,3.541h0.12
			v0.682c-0.112,0.008-0.279,0.024-0.503,0.048c-0.519,0.048-0.897,0.072-1.137,0.072c-0.845,0-1.513-0.114-2.003-0.342
			c-0.491-0.227-0.976-0.668-1.454-1.321c-0.079-0.104-0.521-0.813-1.321-2.13c-0.802-1.315-1.609-2.556-2.423-3.721
			c-0.303,0.032-0.626,0.057-0.969,0.072s-0.722,0.023-1.137,0.023h-0.718v3.674c0,1.195,0.124,1.951,0.371,2.266
			c0.247,0.316,0.737,0.473,1.471,0.473c0.024,0,0.057-0.004,0.096-0.012c0.04-0.008,0.072-0.012,0.096-0.012
			c0.032,0,0.059,0.004,0.078,0.012s0.034,0.012,0.042,0.012v0.79c-0.566-0.032-1.129-0.056-1.687-0.071
			c-0.559-0.017-1.113-0.024-1.663-0.024c-0.295,0-0.71,0.008-1.244,0.024c-0.534,0.016-1.141,0.039-1.818,0.071V80.557z
			 M55.347,72.901c0.383,0.04,0.743,0.067,1.083,0.083c0.339,0.017,0.64,0.024,0.902,0.024c0.224,0,0.479-0.006,0.766-0.019
			c0.287-0.012,0.599-0.033,0.934-0.064c0.766-0.463,1.328-1,1.687-1.609c0.359-0.61,0.538-1.338,0.538-2.184
			c0-1.108-0.358-1.998-1.076-2.668s-1.683-1.004-2.896-1.004c-0.326,0-0.646,0.014-0.957,0.041
			c-0.311,0.028-0.617,0.07-0.921,0.126c-0.023,0.989-0.04,2.005-0.048,3.05S55.347,71.13,55.347,72.901z"/>
		<path fill="#FFFFFF" d="M75.217,64.263h2.058c1.037,3.169,2.02,6.062,2.949,8.68c0.929,2.618,1.661,4.586,2.195,5.902
			c0.318,0.758,0.594,1.225,0.825,1.4s0.562,0.264,0.993,0.264h0.239v0.825c-0.622-0.032-1.19-0.056-1.705-0.071
			c-0.515-0.017-0.947-0.024-1.298-0.024c-0.446,0-0.938,0.008-1.472,0.024c-0.534,0.016-1.101,0.039-1.698,0.071v-0.825h0.227
			c0.566,0,0.953-0.066,1.161-0.198c0.207-0.132,0.311-0.374,0.311-0.726c0-0.127-0.016-0.27-0.048-0.425
			c-0.031-0.156-0.084-0.342-0.155-0.558l-1.173-3.668c-0.303,0-0.718-0.005-1.244-0.013c-0.957-0.024-1.57-0.036-1.842-0.036
			c-0.542,0-1.055,0.002-1.537,0.006s-0.983,0.014-1.502,0.03c-0.565,1.431-0.952,2.474-1.16,3.129
			c-0.207,0.655-0.311,1.123-0.311,1.403c0,0.391,0.104,0.665,0.311,0.82c0.208,0.156,0.578,0.234,1.112,0.234h0.323v0.825
			c-0.582-0.032-1.126-0.056-1.633-0.071c-0.507-0.017-0.959-0.024-1.357-0.024c-0.319,0-0.718,0.008-1.196,0.024
			c-0.479,0.016-0.997,0.039-1.556,0.071v-0.813c0.566-0.016,1.015-0.129,1.346-0.342c0.331-0.211,0.62-0.564,0.867-1.059
			c0.447-0.934,1.238-2.804,2.375-5.609C72.759,70.707,73.958,67.624,75.217,64.263z M75.755,66.513l-2.739,7.153
			c0.151,0,0.371,0.004,0.658,0.012c0.901,0.024,1.516,0.036,1.842,0.036c0.399,0,1.121-0.012,2.166-0.036
			c0.231-0.008,0.406-0.012,0.526-0.012L75.755,66.513z"/>
		<path fill="#FFFFFF" d="M100.806,64.802v0.406c0,0.559,0.021,1.139,0.06,1.74c0.04,0.603,0.101,1.234,0.18,1.896l-0.873,0.144
			c-0.159-1.148-0.702-2.044-1.627-2.686s-2.134-0.963-3.625-0.963c-1.985,0-3.519,0.608-4.6,1.824s-1.621,2.94-1.621,5.174
			c0,2.385,0.62,4.312,1.86,5.784c1.24,1.471,2.85,2.207,4.827,2.207c1.244,0,2.322-0.287,3.236-0.861
			c0.913-0.574,1.625-1.416,2.135-2.523l0.802,0.395c-0.255,0.518-0.486,1.047-0.694,1.584c-0.207,0.539-0.391,1.079-0.55,1.621
			c-0.861,0.391-1.738,0.687-2.632,0.886s-1.79,0.299-2.691,0.299c-2.648,0-4.791-0.819-6.431-2.458
			c-1.639-1.639-2.458-3.795-2.458-6.466c0-2.632,0.865-4.775,2.596-6.431c1.73-1.654,3.968-2.482,6.711-2.482
			c0.813,0,1.673,0.076,2.578,0.229C98.894,64.271,99.833,64.499,100.806,64.802z"/>
		<path fill="#FFFFFF" d="M115.209,81.036l2.739,1.65c1.34,0.79,2.405,1.33,3.194,1.621c0.79,0.291,1.539,0.437,2.249,0.437
			c0.231,0,0.503-0.02,0.813-0.06c0.312-0.04,0.686-0.104,1.125-0.191l0.144,0.741c-1.133,0.319-1.973,0.529-2.519,0.629
			s-1.03,0.148-1.453,0.148c-1.699,0-4.538-1.348-8.518-4.043l-0.491-0.335c-0.056,0-0.142,0.005-0.257,0.013
			s-0.201,0.012-0.257,0.012c-2.44,0-4.456-0.838-6.048-2.512c-1.591-1.676-2.387-3.789-2.387-6.341
			c0-1.276,0.237-2.473,0.712-3.589c0.475-1.117,1.163-2.109,2.063-2.979c0.798-0.766,1.707-1.352,2.728-1.759
			c1.021-0.407,2.086-0.61,3.194-0.61c1.196,0,2.271,0.176,3.225,0.526c0.952,0.351,1.816,0.886,2.59,1.603
			c0.933,0.886,1.646,1.906,2.141,3.062c0.495,1.156,0.742,2.381,0.742,3.674c0,1.977-0.498,3.691-1.495,5.144
			C118.448,79.329,117.036,80.381,115.209,81.036z M118.296,73.152c0-2.32-0.599-4.225-1.795-5.713
			c-1.196-1.486-2.703-2.23-4.521-2.23c-1.747,0-3.148,0.639-4.205,1.914s-1.585,2.982-1.585,5.12c0,2.4,0.602,4.353,1.806,5.856
			c1.205,1.503,2.736,2.254,4.594,2.254c1.707,0,3.085-0.655,4.134-1.967C117.772,77.074,118.296,75.33,118.296,73.152z"/>
		<path fill="#FFFFFF" d="M129.217,64.263v0.814c-0.048,0-0.115-0.005-0.203-0.013s-0.151-0.012-0.191-0.012
			c-0.63,0-1.057,0.208-1.28,0.622c-0.223,0.416-0.335,1.4-0.335,2.957v1.893v2.479c0,1.293,0.04,2.246,0.12,2.861
			c0.08,0.613,0.211,1.121,0.395,1.52c0.391,0.862,0.967,1.52,1.729,1.97c0.762,0.451,1.681,0.677,2.758,0.677
			c0.806,0,1.512-0.115,2.117-0.348c0.606-0.23,1.125-0.586,1.556-1.065s0.733-1.065,0.909-1.76
			c0.175-0.694,0.263-1.852,0.263-3.472c0-1.947-0.021-3.586-0.065-4.915s-0.102-2.134-0.174-2.413
			c-0.111-0.367-0.285-0.622-0.521-0.766s-0.616-0.215-1.143-0.215h-0.179v-0.814c0.096,0,0.235,0.004,0.418,0.012
			c1.101,0.057,1.887,0.084,2.357,0.084c0.462,0,1.244-0.027,2.345-0.084c0.191-0.008,0.331-0.012,0.418-0.012v0.814h-0.144
			c-0.47,0-0.823,0.059-1.059,0.179s-0.404,0.319-0.508,0.599c-0.088,0.231-0.151,0.84-0.191,1.826
			c-0.04,0.985-0.061,2.58-0.061,4.782v1.197c0,1.261-0.048,2.225-0.144,2.892c-0.096,0.666-0.251,1.254-0.466,1.766
			c-0.447,1.061-1.217,1.895-2.31,2.502c-1.092,0.605-2.38,0.909-3.863,0.909c-1.029,0-1.977-0.151-2.842-0.454
			c-0.865-0.304-1.601-0.742-2.207-1.317c-0.662-0.606-1.132-1.323-1.411-2.149s-0.419-1.98-0.419-3.465
			c0-0.574,0.008-1.515,0.023-2.82c0.017-1.305,0.024-2.324,0.024-3.059v-0.371c0-1.372-0.113-2.219-0.341-2.537
			c-0.228-0.32-0.672-0.479-1.334-0.479h-0.216v-0.814c0.566,0.032,1.105,0.057,1.615,0.072c0.511,0.016,0.978,0.023,1.399,0.023
			c0.511,0,1.029-0.008,1.556-0.023S128.675,64.295,129.217,64.263z"/>
		<path fill="#FFFFFF" d="M142.52,64.263c1.396,0.049,2.645,0.084,3.745,0.107c1.101,0.024,2.05,0.037,2.847,0.037
			c0.886,0,1.78-0.013,2.686-0.037c0.905-0.023,1.824-0.059,2.758-0.107c0.008,0.599,0.032,1.211,0.071,1.836
			c0.04,0.627,0.088,1.255,0.144,1.885l-0.801,0.072c-0.064-0.957-0.359-1.605-0.886-1.944s-1.663-0.509-3.409-0.509
			c-0.446,0-1.264,0.012-2.452,0.036c-0.239,0.008-0.415,0.013-0.526,0.013c-0.017,0.957-0.04,2.129-0.072,3.517
			c-0.031,1.388-0.052,2.288-0.06,2.704h0.371c0.471,0,1.059,0.006,1.765,0.018c0.705,0.012,1.178,0.018,1.417,0.018
			c1.156,0,1.92-0.107,2.291-0.322c0.371-0.216,0.572-0.615,0.604-1.197l0.753,0.072c-0.056,0.494-0.098,0.953-0.125,1.375
			c-0.028,0.424-0.042,0.814-0.042,1.173c0,0.208,0.02,0.653,0.06,1.34c0.017,0.247,0.028,0.435,0.036,0.562l-0.777,0.024v-0.096
			c0-0.679-0.197-1.137-0.593-1.377c-0.395-0.238-1.317-0.358-2.77-0.358h-2.129h-0.861c0,0.391-0.004,0.931-0.012,1.621
			s-0.013,1.187-0.013,1.489c0,0.526,0.005,1.074,0.013,1.645s0.023,1.238,0.048,2.004c0.398,0.049,0.851,0.084,1.357,0.107
			c0.507,0.024,1.062,0.037,1.669,0.037c2.002,0,3.319-0.193,3.954-0.581c0.634-0.387,1.138-1.13,1.513-2.231l0.861,0.287
			c-0.239,0.662-0.45,1.312-0.634,1.951c-0.184,0.637-0.343,1.271-0.479,1.901c-1.252-0.048-2.417-0.083-3.493-0.107
			c-1.077-0.024-2.05-0.036-2.919-0.036c-1.188,0-3.103,0.044-5.742,0.132l-0.431,0.012v-0.777c0.056,0.008,0.109,0.014,0.161,0.018
			c0.052,0.005,0.13,0.007,0.233,0.007c1.061,0,1.6-1.492,1.615-4.475c0.008-0.75,0.016-1.336,0.023-1.759l0.048-3.266
			c0.009-0.702,0.015-1.384,0.019-2.046s0.006-1.38,0.006-2.153c0-0.687-0.128-1.16-0.383-1.423
			c-0.255-0.264-0.71-0.396-1.364-0.396h-0.096V64.263z"/>
		<path fill="#FFFFFF" d="M160.872,80.498h0.419c0.566,0,0.969-0.07,1.208-0.21s0.407-0.396,0.503-0.771
			c0.071-0.247,0.121-1.145,0.149-2.691c0.028-1.548,0.042-3.956,0.042-7.226v-3.816h-2.417c-1.172,0-1.964,0.158-2.374,0.473
			c-0.411,0.314-0.716,0.979-0.915,1.992l-0.777-0.168c0.151-0.693,0.267-1.375,0.347-2.045c0.079-0.67,0.119-1.328,0.119-1.975
			c0.239,0.151,0.724,0.26,1.454,0.323c0.729,0.063,2.008,0.096,3.834,0.096h2.919c2.424,0,3.985-0.03,4.684-0.09
			c0.697-0.06,1.186-0.169,1.465-0.329c0,0.08-0.004,0.205-0.012,0.377s-0.012,0.301-0.012,0.389c0,0.502,0.021,1.021,0.065,1.555
			c0.044,0.535,0.109,1.085,0.197,1.651l-0.754,0.144c-0.096-0.901-0.341-1.516-0.735-1.842c-0.395-0.328-1.227-0.511-2.494-0.551
			h-2.261c-0.008,0.455-0.017,1.097-0.024,1.926c-0.016,2.178-0.023,3.641-0.023,4.391c0,2.831,0.018,4.75,0.054,5.754
			c0.036,1.006,0.098,1.631,0.186,1.879c0.104,0.287,0.274,0.486,0.514,0.598s0.606,0.168,1.101,0.168h0.419v0.837
			c-0.662-0.032-1.286-0.056-1.872-0.071c-0.586-0.017-1.11-0.024-1.573-0.024c-0.406,0-0.907,0.008-1.501,0.024
			c-0.595,0.016-1.238,0.039-1.933,0.071V80.498z"/>
		<path fill="#FFFFFF" d="M183.578,64.778c0,0.591,0.034,1.173,0.102,1.747s0.174,1.141,0.317,1.698l-0.934,0.18
			c-0.136-0.989-0.517-1.723-1.143-2.201s-1.509-0.718-2.649-0.718c-1.053,0-1.908,0.255-2.566,0.766
			c-0.657,0.51-0.986,1.168-0.986,1.974c0,1.323,1.403,2.456,4.211,3.397c0.375,0.119,0.662,0.215,0.861,0.287
			c1.284,0.447,2.229,1.02,2.835,1.717s0.909,1.561,0.909,2.59c0,1.587-0.603,2.873-1.807,3.857
			c-1.204,0.986-2.799,1.479-4.785,1.479c-0.758,0-1.497-0.062-2.219-0.186c-0.722-0.124-1.454-0.317-2.195-0.58
			c0.008-0.08,0.014-0.174,0.018-0.281s0.006-0.266,0.006-0.473c0-0.566-0.031-1.125-0.096-1.675
			c-0.063-0.55-0.159-1.101-0.287-1.651l1.077-0.251c0.136,1.308,0.546,2.265,1.232,2.871c0.686,0.606,1.702,0.909,3.05,0.909
			c1.181,0,2.142-0.297,2.884-0.891c0.741-0.595,1.112-1.358,1.112-2.291c0-1.324-1.156-2.354-3.47-3.087
			c-0.326-0.104-0.582-0.188-0.766-0.251c-1.603-0.519-2.751-1.152-3.445-1.902c-0.693-0.75-1.04-1.707-1.04-2.871
			c0-1.371,0.542-2.516,1.627-3.434c1.084-0.917,2.444-1.375,4.079-1.375c0.598,0,1.204,0.047,1.818,0.143
			S182.692,64.539,183.578,64.778z"/>
		<path fill="#FFFFFF" d="M204.058,79.181c-0.869,0.838-1.747,1.472-2.632,1.902c-0.886,0.43-1.763,0.646-2.632,0.646
			c-1.356,0-2.492-0.456-3.41-1.37c-0.917-0.912-1.375-2.043-1.375-3.391c0-1.172,0.37-2.184,1.112-3.033
			c0.741-0.85,1.818-1.493,3.229-1.932c-0.653-0.678-1.148-1.348-1.483-2.01s-0.502-1.3-0.502-1.914
			c0-1.053,0.402-1.974,1.208-2.764c0.806-0.789,1.743-1.184,2.812-1.184c1.085,0,1.979,0.32,2.686,0.963
			c0.706,0.642,1.059,1.449,1.059,2.422c0,0.79-0.269,1.537-0.808,2.243c-0.538,0.706-1.382,1.409-2.53,2.112l4.092,4.952
			c0.821-0.901,1.489-1.876,2.004-2.925s0.771-1.853,0.771-2.41c0-0.367-0.105-0.619-0.317-0.754
			c-0.211-0.137-0.62-0.203-1.226-0.203v-0.886c0.534,0.056,1.026,0.098,1.478,0.126c0.45,0.027,0.839,0.041,1.166,0.041
			c0.239,0,0.534-0.01,0.885-0.029c0.352-0.02,0.93-0.066,1.735-0.138v0.909h-0.264c-0.829,0-1.439,0.422-1.83,1.268
			c-0.024,0.049-0.044,0.092-0.06,0.132c-0.599,1.276-1.192,2.366-1.783,3.272c-0.59,0.904-1.22,1.692-1.89,2.362l0.49,0.586
			c0.566,0.687,1.081,1.181,1.543,1.483c0.463,0.303,0.926,0.455,1.388,0.455c0.375,0,0.774-0.105,1.196-0.317
			c0.423-0.212,0.842-0.517,1.257-0.915l0.49,0.514c-0.606,0.814-1.242,1.43-1.908,1.849s-1.342,0.628-2.027,0.628
			c-0.599,0-1.163-0.172-1.693-0.514C205.758,81.015,205.015,80.29,204.058,79.181z M203.448,78.416l-4.534-5.682
			c-0.965,0.326-1.688,0.783-2.171,1.369s-0.724,1.298-0.724,2.135c0,1.045,0.372,1.944,1.118,2.698
			c0.746,0.753,1.641,1.13,2.686,1.13c0.559,0,1.131-0.133,1.717-0.4S202.762,78.982,203.448,78.416z M200.253,71.238
			c0.63-0.423,1.123-0.949,1.478-1.579s0.532-1.288,0.532-1.974c0-0.727-0.195-1.32-0.586-1.783
			c-0.391-0.462-0.897-0.693-1.52-0.693c-0.574,0-1.045,0.201-1.411,0.604c-0.367,0.403-0.551,0.924-0.551,1.562
			c0,0.574,0.18,1.201,0.538,1.883C199.093,69.94,199.6,70.599,200.253,71.238z"/>
		<path fill="#FFFFFF" d="M220.471,80.557c0.056,0.008,0.109,0.014,0.161,0.018c0.052,0.005,0.13,0.007,0.233,0.007
			c1.061,0,1.6-1.492,1.615-4.475c0.008-0.75,0.016-1.336,0.023-1.759l0.048-3.266c0.009-0.702,0.015-1.384,0.019-2.046
			s0.006-1.38,0.006-2.153c0-0.687-0.128-1.16-0.383-1.423c-0.255-0.264-0.71-0.396-1.364-0.396h-0.096v-0.837
			c0.535,0.039,1.063,0.067,1.586,0.084c0.521,0.016,1.03,0.023,1.524,0.023c0.535,0,1.198-0.018,1.992-0.055
			c0.794-0.035,1.322-0.053,1.585-0.053c1.635,0,2.975,0.43,4.02,1.291s1.567,1.942,1.567,3.242c0,0.965-0.262,1.824-0.783,2.578
			c-0.522,0.754-1.307,1.398-2.352,1.932l2.237,3.387c0.08,0.127,0.199,0.311,0.359,0.55c1.547,2.36,2.815,3.541,3.804,3.541h0.12
			v0.682c-0.112,0.008-0.279,0.024-0.503,0.048c-0.519,0.048-0.897,0.072-1.137,0.072c-0.845,0-1.513-0.114-2.003-0.342
			c-0.491-0.227-0.976-0.668-1.454-1.321c-0.079-0.104-0.521-0.813-1.321-2.13c-0.802-1.315-1.609-2.556-2.423-3.721
			c-0.303,0.032-0.626,0.057-0.969,0.072s-0.722,0.023-1.137,0.023h-0.718v3.674c0,1.195,0.124,1.951,0.371,2.266
			c0.247,0.316,0.737,0.473,1.471,0.473c0.024,0,0.057-0.004,0.096-0.012c0.04-0.008,0.072-0.012,0.096-0.012
			c0.032,0,0.059,0.004,0.078,0.012s0.034,0.012,0.042,0.012v0.79c-0.566-0.032-1.129-0.056-1.687-0.071
			c-0.559-0.017-1.113-0.024-1.663-0.024c-0.295,0-0.71,0.008-1.244,0.024c-0.534,0.016-1.141,0.039-1.818,0.071V80.557z
			 M224.73,72.901c0.383,0.04,0.743,0.067,1.083,0.083c0.339,0.017,0.64,0.024,0.902,0.024c0.224,0,0.479-0.006,0.766-0.019
			c0.287-0.012,0.599-0.033,0.934-0.064c0.766-0.463,1.328-1,1.687-1.609c0.359-0.61,0.538-1.338,0.538-2.184
			c0-1.108-0.358-1.998-1.076-2.668s-1.683-1.004-2.896-1.004c-0.326,0-0.646,0.014-0.957,0.041
			c-0.311,0.028-0.617,0.07-0.921,0.126c-0.023,0.989-0.04,2.005-0.048,3.05S224.73,71.13,224.73,72.901z"/>
		<path fill="#FFFFFF" d="M243.942,64.263v0.814c-0.048,0-0.115-0.005-0.203-0.013s-0.151-0.012-0.191-0.012
			c-0.63,0-1.057,0.208-1.28,0.622c-0.223,0.416-0.335,1.4-0.335,2.957v1.893v2.479c0,1.293,0.04,2.246,0.12,2.861
			c0.08,0.613,0.211,1.121,0.395,1.52c0.391,0.862,0.967,1.52,1.729,1.97c0.762,0.451,1.681,0.677,2.758,0.677
			c0.806,0,1.512-0.115,2.117-0.348c0.606-0.23,1.125-0.586,1.556-1.065s0.733-1.065,0.909-1.76
			c0.175-0.694,0.263-1.852,0.263-3.472c0-1.947-0.021-3.586-0.065-4.915s-0.102-2.134-0.174-2.413
			c-0.111-0.367-0.285-0.622-0.521-0.766s-0.616-0.215-1.143-0.215h-0.179v-0.814c0.096,0,0.235,0.004,0.418,0.012
			c1.101,0.057,1.887,0.084,2.357,0.084c0.462,0,1.244-0.027,2.345-0.084c0.191-0.008,0.331-0.012,0.418-0.012v0.814h-0.144
			c-0.47,0-0.823,0.059-1.059,0.179s-0.404,0.319-0.508,0.599c-0.088,0.231-0.151,0.84-0.191,1.826
			c-0.04,0.985-0.061,2.58-0.061,4.782v1.197c0,1.261-0.048,2.225-0.144,2.892c-0.096,0.666-0.251,1.254-0.466,1.766
			c-0.447,1.061-1.217,1.895-2.31,2.502c-1.092,0.605-2.38,0.909-3.863,0.909c-1.029,0-1.977-0.151-2.842-0.454
			c-0.865-0.304-1.601-0.742-2.207-1.317c-0.662-0.606-1.132-1.323-1.411-2.149s-0.419-1.98-0.419-3.465
			c0-0.574,0.008-1.515,0.023-2.82c0.017-1.305,0.024-2.324,0.024-3.059v-0.371c0-1.372-0.113-2.219-0.341-2.537
			c-0.228-0.32-0.672-0.479-1.334-0.479h-0.216v-0.814c0.566,0.032,1.105,0.057,1.615,0.072c0.511,0.016,0.978,0.023,1.399,0.023
			c0.511,0,1.029-0.008,1.556-0.023S243.4,64.295,243.942,64.263z"/>
		<path fill="#FFFFFF" d="M256.802,64.263c0.375,0.032,0.74,0.057,1.095,0.072s0.704,0.023,1.047,0.023
			c0.255,0,0.555-0.008,0.897-0.023s0.714-0.04,1.112-0.072c0.104,0.264,0.247,0.535,0.431,0.814
			c0.184,0.278,0.415,0.586,0.693,0.92l9.87,11.676c-0.024-1.212-0.048-2.818-0.072-4.82c-0.063-4.203-0.136-6.465-0.215-6.783
			c-0.096-0.367-0.266-0.622-0.509-0.766s-0.64-0.215-1.19-0.215h-0.371v-0.826c0.096,0,0.239,0.004,0.431,0.012
			c1.133,0.057,1.931,0.084,2.393,0.084c0.471,0,1.292-0.027,2.465-0.084c0.167-0.008,0.295-0.012,0.383-0.012l-0.012,0.826
			c-0.048-0.008-0.1-0.014-0.156-0.019c-0.056-0.004-0.131-0.006-0.227-0.006c-1.069,0-1.611,1.487-1.627,4.462
			c-0.008,0.75-0.013,1.336-0.013,1.759l-0.048,3.183c-0.016,0.471-0.025,0.955-0.029,1.453s-0.006,1.182-0.006,2.052
			c0,0.965,0.012,1.716,0.035,2.255c0.024,0.538,0.064,0.971,0.12,1.298h-1.328c-0.136-0.319-0.618-0.957-1.447-1.914l-0.12-0.144
			l-10.264-12.07v0.275c0.048,7.465,0.128,11.412,0.239,11.843c0.096,0.366,0.265,0.622,0.509,0.766
			c0.243,0.144,0.632,0.216,1.166,0.216h0.358v0.837c-0.119-0.008-0.295-0.017-0.526-0.024c-1.116-0.047-1.878-0.071-2.284-0.071
			c-0.391,0-0.824,0.008-1.298,0.024c-0.475,0.016-0.976,0.039-1.502,0.071v-0.825c0.048,0,0.102,0.002,0.162,0.006
			c0.06,0.004,0.137,0.006,0.232,0.006c1.069,0,1.611-1.479,1.627-4.438c0.009-0.75,0.013-1.336,0.013-1.76l0.06-3.182
			c0.008-0.686,0.014-1.354,0.018-2.004s0.006-1.394,0.006-2.23c0-0.687-0.131-1.16-0.395-1.424
			c-0.263-0.264-0.729-0.395-1.399-0.395h-0.323V64.263z"/>
		<path fill="#FFFFFF" d="M277.042,64.263c1.396,0.049,2.645,0.084,3.745,0.107c1.101,0.024,2.05,0.037,2.847,0.037
			c0.886,0,1.78-0.013,2.686-0.037c0.905-0.023,1.824-0.059,2.758-0.107c0.008,0.599,0.032,1.211,0.071,1.836
			c0.04,0.627,0.088,1.255,0.144,1.885l-0.801,0.072c-0.064-0.957-0.359-1.605-0.886-1.944s-1.663-0.509-3.409-0.509
			c-0.446,0-1.264,0.012-2.452,0.036c-0.239,0.008-0.415,0.013-0.526,0.013c-0.017,0.957-0.04,2.129-0.072,3.517
			c-0.031,1.388-0.052,2.288-0.06,2.704h0.371c0.471,0,1.059,0.006,1.765,0.018c0.705,0.012,1.178,0.018,1.417,0.018
			c1.156,0,1.92-0.107,2.291-0.322c0.371-0.216,0.572-0.615,0.604-1.197l0.753,0.072c-0.056,0.494-0.098,0.953-0.125,1.375
			c-0.028,0.424-0.042,0.814-0.042,1.173c0,0.208,0.02,0.653,0.06,1.34c0.017,0.247,0.028,0.435,0.036,0.562l-0.777,0.024v-0.096
			c0-0.679-0.197-1.137-0.593-1.377c-0.395-0.238-1.317-0.358-2.77-0.358h-2.129h-0.861c0,0.391-0.004,0.931-0.012,1.621
			s-0.013,1.187-0.013,1.489c0,0.526,0.005,1.074,0.013,1.645s0.023,1.238,0.048,2.004c0.398,0.049,0.851,0.084,1.357,0.107
			c0.507,0.024,1.062,0.037,1.669,0.037c2.002,0,3.319-0.193,3.954-0.581c0.634-0.387,1.138-1.13,1.513-2.231l0.861,0.287
			c-0.239,0.662-0.45,1.312-0.634,1.951c-0.184,0.637-0.343,1.271-0.479,1.901c-1.252-0.048-2.417-0.083-3.493-0.107
			c-1.077-0.024-2.05-0.036-2.919-0.036c-1.188,0-3.103,0.044-5.742,0.132l-0.431,0.012v-0.777c0.056,0.008,0.109,0.014,0.161,0.018
			c0.052,0.005,0.13,0.007,0.233,0.007c1.061,0,1.6-1.492,1.615-4.475c0.008-0.75,0.016-1.336,0.023-1.759l0.048-3.266
			c0.009-0.702,0.015-1.384,0.019-2.046s0.006-1.38,0.006-2.153c0-0.687-0.128-1.16-0.383-1.423
			c-0.255-0.264-0.71-0.396-1.364-0.396h-0.096V64.263z"/>
		<path fill="#FFFFFF" d="M302.644,64.778c0,0.591,0.034,1.173,0.102,1.747s0.174,1.141,0.317,1.698l-0.934,0.18
			c-0.136-0.989-0.517-1.723-1.143-2.201s-1.509-0.718-2.649-0.718c-1.053,0-1.908,0.255-2.566,0.766
			c-0.657,0.51-0.986,1.168-0.986,1.974c0,1.323,1.403,2.456,4.211,3.397c0.375,0.119,0.662,0.215,0.861,0.287
			c1.284,0.447,2.229,1.02,2.835,1.717s0.909,1.561,0.909,2.59c0,1.587-0.603,2.873-1.807,3.857
			c-1.204,0.986-2.799,1.479-4.785,1.479c-0.758,0-1.497-0.062-2.219-0.186c-0.722-0.124-1.454-0.317-2.195-0.58
			c0.008-0.08,0.014-0.174,0.018-0.281s0.006-0.266,0.006-0.473c0-0.566-0.031-1.125-0.096-1.675
			c-0.063-0.55-0.159-1.101-0.287-1.651l1.077-0.251c0.136,1.308,0.546,2.265,1.232,2.871c0.686,0.606,1.702,0.909,3.05,0.909
			c1.181,0,2.142-0.297,2.884-0.891c0.741-0.595,1.112-1.358,1.112-2.291c0-1.324-1.156-2.354-3.47-3.087
			c-0.326-0.104-0.582-0.188-0.766-0.251c-1.603-0.519-2.751-1.152-3.445-1.902c-0.693-0.75-1.04-1.707-1.04-2.871
			c0-1.371,0.542-2.516,1.627-3.434c1.084-0.917,2.444-1.375,4.079-1.375c0.598,0,1.204,0.047,1.818,0.143
			S301.758,64.539,302.644,64.778z"/>
	</g>
</g>
</svg>
