<svg xmlns="http://www.w3.org/2000/svg" xmlns:xlink="http://www.w3.org/1999/xlink" width="600" height="605.734" viewBox="0 0 600 605.734"><path fill="#009245" d="M135.583.327h102.442v143.445h-102.442z"/><defs><path id="a" d="M135.261 0h328.76v605.734h-328.76z"/></defs><clipPath id="b"><use xlink:href="#a" overflow="visible"/></clipPath><path clip-path="url(#b)" stroke="#8CC43F" stroke-width=".651" stroke-miterlimit="10" fill="none" d="M135.583.327h102.442v143.445h-102.442z"/><path fill="#009245" d="M248.642.327h102.435v143.445h-102.435z"/><path stroke="#8CC43F" stroke-width=".651" stroke-miterlimit="10" fill="none" d="M248.642.327h102.435v143.445h-102.435z"/><path fill="#009245" d="M135.583 154.104h102.442v143.447h-102.442z"/><defs><path id="c" d="M135.261 0h328.76v605.734h-328.76z"/></defs><clipPath id="d"><use xlink:href="#c" overflow="visible"/></clipPath><path clip-path="url(#d)" stroke="#8CC43F" stroke-width=".651" stroke-miterlimit="10" fill="none" d="M135.583 154.104h102.442v143.447h-102.442z"/><path fill="#009245" d="M248.642 154.104h102.435v143.447h-102.435z"/><path stroke="#8CC43F" stroke-width=".651" stroke-miterlimit="10" fill="none" d="M248.642 154.104h102.435v143.447h-102.435z"/><path fill="#009245" d="M248.785 461.695h102.435v143.444h-102.435z"/><defs><path id="e" d="M135.261 0h328.76v605.734h-328.76z"/></defs><clipPath id="f"><use xlink:href="#e" overflow="visible"/></clipPath><path clip-path="url(#f)" stroke="#8CC43F" stroke-width=".651" stroke-miterlimit="10" fill="none" d="M248.785 461.695h102.435v143.444h-102.435z"/><path fill="#009245" d="M135.727 461.695h102.439v143.444h-102.439z"/><defs><path id="g" d="M135.261 0h328.76v605.734h-328.76z"/></defs><clipPath id="h"><use xlink:href="#g" overflow="visible"/></clipPath><path clip-path="url(#h)" stroke="#8CC43F" stroke-width=".651" stroke-miterlimit="10" fill="none" d="M135.727 461.695h102.439v143.444h-102.439z"/><path fill="#009245" d="M248.785 307.918h102.435v143.445h-102.435z"/><path stroke="#8CC43F" stroke-width=".651" stroke-miterlimit="10" fill="none" d="M248.785 307.918h102.435v143.445h-102.435z"/><path fill="#009245" d="M135.727 307.918h102.439v143.445h-102.439z"/><defs><path id="i" d="M135.261 0h328.76v605.734h-328.76z"/></defs><clipPath id="j"><use xlink:href="#i" overflow="visible"/></clipPath><path clip-path="url(#j)" stroke="#8CC43F" stroke-width=".651" stroke-miterlimit="10" fill="none" d="M135.727 307.918h102.439v143.445h-102.439z"/><path fill="#fff" d="M163.108.293h9.235v143.519h-9.235z"/><path stroke="#fff" stroke-width=".065" stroke-miterlimit="10" fill="none" d="M163.108.293h9.235v143.519h-9.235z"/><path fill="#fff" d="M172.349 195.403h65.713v-9.112h-65.713v-32.22h-9.241v143.519h9.181z"/><path stroke="#fff" stroke-width=".065" stroke-miterlimit="10" fill="none" d="M172.349 195.403h65.713v-9.112h-65.713v-32.22h-9.241v143.519h9.181z"/><path fill="#fff" d="M248.605 186.291h102.509v9.104h-102.509z"/><path stroke="#fff" stroke-width=".065" stroke-miterlimit="10" fill="none" d="M248.605 186.291h102.509v9.104h-102.509z"/><path fill="#fff" d="M163.108 461.655h9.102v143.522h-9.102z"/><path stroke="#fff" stroke-width=".065" stroke-miterlimit="10" fill="none" d="M163.108 461.655h9.102v143.522h-9.102z"/><path fill="#fff" d="M248.749 411.212h102.509v9.104h-102.509z"/><path stroke="#fff" stroke-width=".065" stroke-miterlimit="10" fill="none" d="M248.749 411.212h102.509v9.104h-102.509z"/><path fill="#fff" d="M172.217 411.203l.061-103.324h-9.173v143.52h9.112v-31.081h65.988v-9.115z"/><path stroke="#fff" stroke-width=".065" stroke-miterlimit="10" fill="none" d="M172.217 411.203l.061-103.324h-9.173v143.52h9.112v-31.081h65.988v-9.115z"/><path fill="#00629B" d="M135.686 605.18h27.414v.555h-27.414zM135.693.288h27.412v143.524h-27.412zM135.693 154.066h27.412v143.523h-27.412zM135.689 461.655h27.412v143.524h-27.412zM135.689 307.879h27.412v143.523h-27.412z"/><path fill="#009245" d="M361.257.327h102.438v143.445h-102.438z"/><path stroke="#8CC43F" stroke-width=".651" stroke-miterlimit="10" fill="none" d="M361.257.327h102.438v143.445h-102.438z"/><path fill="#009245" d="M361.257 154.104h102.438v143.447h-102.438z"/><path stroke="#8CC43F" stroke-width=".651" stroke-miterlimit="10" fill="none" d="M361.257 154.104h102.438v143.447h-102.438z"/><path fill="#009245" d="M361.117 461.695h102.437v143.444h-102.437z"/><defs><path id="k" d="M135.261 0h328.76v605.734h-328.76z"/></defs><clipPath id="l"><use xlink:href="#k" overflow="visible"/></clipPath><path clip-path="url(#l)" stroke="#8CC43F" stroke-width=".651" stroke-miterlimit="10" fill="none" d="M361.117 461.695h102.437v143.444h-102.437z"/><path fill="#009245" d="M361.117 307.918h102.437v143.445h-102.437z"/><path stroke="#8CC43F" stroke-width=".651" stroke-miterlimit="10" fill="none" d="M361.117 307.918h102.437v143.445h-102.437z"/><path fill="#fff" d="M426.94.293h9.233v143.519h-9.233z"/><path stroke="#fff" stroke-width=".065" stroke-miterlimit="10" fill="none" d="M426.94.293h9.233v143.519h-9.233z"/><path fill="#fff" d="M426.934 195.403h-65.712v-9.112h65.712v-32.22h9.24v143.519h-9.179z"/><path stroke="#fff" stroke-width=".065" stroke-miterlimit="10" fill="none" d="M426.934 195.403h-65.712v-9.112h65.712v-32.22h9.24v143.519h-9.179z"/><path fill="#fff" d="M427.07 461.655h9.104v143.522h-9.104z"/><path stroke="#fff" stroke-width=".065" stroke-miterlimit="10" fill="none" d="M427.07 461.655h9.104v143.522h-9.104z"/><path fill="#fff" d="M427.062 411.203l-.06-103.324h9.172v143.52h-9.112v-31.081h-65.981v-9.115z"/><path stroke="#fff" stroke-width=".065" stroke-miterlimit="10" fill="none" d="M427.062 411.203l-.06-103.324h9.172v143.52h-9.112v-31.081h-65.981v-9.115z"/><path fill="#A94312" d="M436.176 605.18h27.417v.555h-27.417zM436.18.288h27.413v143.524h-27.413zM436.18 154.066h27.413v143.523h-27.413zM436.18 461.655h27.413v143.524h-27.413zM436.18 307.876h27.413v143.526h-27.413z"/><defs><path id="m" d="M0 301.495h600v2.744h-600z"/></defs><clipPath id="n"><use xlink:href="#m" overflow="visible"/></clipPath><path clip-path="url(#n)" stroke="#919396" stroke-width="2.747" stroke-dasharray="8.2531,5.5061" fill="none" d="M0 302.867h600"/></svg>