<svg xmlns="http://www.w3.org/2000/svg" width="600" height="502.102" viewBox="0 0 600 502.102"><g opacity=".5"><path fill="#00A057" d="M300 301.043c-37.957 0-68.837-32.067-68.837-71.485 0-39.419 30.88-71.492 68.837-71.492 37.952 0 68.834 32.072 68.834 71.492 0 39.418-30.879 71.485-68.834 71.485zm0-133.648c-32.815 0-59.512 27.885-59.512 62.163s26.697 62.162 59.512 62.162c32.812 0 59.512-27.884 59.512-62.162s-26.7-62.163-59.512-62.163zm0 118.717c-25.148 0-45.599-21.27-45.599-47.41 0-26.146 20.45-47.414 45.599-47.414 25.145 0 45.596 21.271 45.596 47.414 0 26.14-20.451 47.41-45.596 47.41zm0-91.427c-23.271 0-42.2 19.745-42.2 44.017 0 24.269 18.929 44.015 42.2 44.015 23.27 0 42.197-19.746 42.197-44.015.003-24.274-18.927-44.017-42.197-44.017zm41.133 86.39c-13.618-13.608-21.117-31.903-21.117-51.517 0-19.617 7.499-37.912 21.117-51.517l6.588 6.597c-11.852 11.844-18.379 27.796-18.379 44.921 0 17.122 6.527 33.079 18.379 44.925l-6.588 6.591zm-82.269 0l-6.589-6.592c11.85-11.845 18.378-27.802 18.378-44.925 0-17.127-6.528-33.078-18.378-44.92l6.589-6.597c13.615 13.602 21.117 31.897 21.117 51.517.002 19.611-7.498 37.91-21.117 51.517zm0 0l-6.589-6.592c11.85-11.845 18.378-27.802 18.378-44.925 0-17.127-6.528-33.078-18.378-44.92l6.589-6.597c13.615 13.602 21.117 31.897 21.117 51.517.002 19.611-7.498 37.91-21.117 51.517zm82.269 0c-13.618-13.608-21.117-31.903-21.117-51.517 0-19.617 7.499-37.912 21.117-51.517l6.588 6.597c-11.852 11.844-18.379 27.796-18.379 44.921 0 17.122 6.527 33.079 18.379 44.925l-6.588 6.591zm-41.133 95.538c-76.047 0-137.918-61.866-137.918-137.911 0-76.047 61.872-137.917 137.918-137.917s137.914 61.87 137.914 137.917c.002 76.045-61.868 137.911-137.914 137.911zm0-272.43c-74.172 0-134.519 60.343-134.519 134.516 0 74.171 60.347 134.51 134.519 134.51 74.171 0 134.516-60.339 134.516-134.51 0-74.173-60.345-134.516-134.516-134.516zm0 280.503c-80.498 0-145.99-65.491-145.99-145.984 0-80.499 65.492-145.989 145.99-145.989s145.987 65.489 145.987 145.989c0 80.493-65.489 145.984-145.987 145.984zm0-288.376c-78.515 0-142.389 63.876-142.389 142.392 0 78.511 63.872 142.386 142.389 142.386 78.512 0 142.392-63.875 142.392-142.387 0-78.515-63.876-142.391-142.392-142.391zm-147.613 328.842l60.093-169.492-135.118-97.81h169.799l52.852-149.063 52.488 149.063h170.168l-135.677 97.943 59.642 169.358-146.922-106.354-147.325 106.355zm155.124-111.987l120.779 87.422-49.026-139.218-71.753 51.796zm-87.313-51.919l-49.407 139.341 121.12-87.436-71.713-51.905zm3.185-8.982l76.334 55.251 76.38-55.137-30.063-85.388h-92.415l-30.236 85.274zm132.34-85.273l28.104 79.812 110.562-79.812h-138.666zm-250.144 0l110.089 79.687 28.254-79.687h-138.343zm151.281-9.141h85.948l-42.822-121.623-43.126 121.623zm43.14 319.547c-131.625 0-238.704-107.079-238.704-238.698.002-131.619 107.08-238.699 238.704-238.699 131.624 0 238.7 107.08 238.7 238.702 0 131.616-107.076 238.695-238.7 238.695zm0-468.255c-126.584 0-229.56 102.98-229.56 229.559 0 126.578 102.976 229.553 229.56 229.553 126.58 0 229.557-102.975 229.557-229.553.003-126.581-102.976-229.559-229.557-229.559zm0 453.472c-123.469 0-223.92-100.45-223.92-223.915 0-123.469 100.453-223.915 223.92-223.915 123.466 0 223.915 100.446 223.915 223.918 0 123.462-100.447 223.912-223.915 223.912zm0-439.252c-118.74 0-215.34 96.6-215.34 215.34 0 118.735 96.6 215.337 215.34 215.337 118.738 0 215.338-96.602 215.338-215.338.002-118.74-96.599-215.339-215.338-215.339zm-126.84 320.292c.099.137.139.266.072.312l-23.856 17.133c-.331.24-2.445-1.081-3.031-1.899l-.084-.253 1.956-12.091-10.593-1.841c-.505.003-2.289-1.143-2.832-1.892-.099-.137-.133-.264-.068-.311l23.854-17.131c.27-.192 2.422 1.048 3.033 1.901.099.133.138.26.07.309l-21.913 15.741 8.862 1.479c.687.179 2.414 1.314 2.85 1.927l.084.251-1.392 8.849 19.976-14.347c.204-.147 2.28.841 3.012 1.863zm-18.255-27.931c.079.151.1.278.025.317l-12.99 6.759c-.803 3.537-1.663 7.06-2.721 10.728l-.016.056c-.328.173-2.273-1.514-2.681-2.295l-.097-.28c.597-2.054 1.12-4.171 1.61-6.175l-9.163 4.766c-.292.151-2.229-1.345-2.732-2.312-.073-.149-.104-.279-.027-.317l12.992-6.759 2.432-10.482.052-.074c.405-.209 2.313 1.585 2.695 2.329l.044.264-1.387 5.97 9.229-4.807c.257-.134 2.192 1.272 2.735 2.312zm-14.853-31.389l.021-.051c.383-.143 2.099 1.716 2.427 2.58.059.159.05.251.027.306-1.95 5.664-4.502 11.735-6.307 17.432l10.167-3.828c.347-.133 2.112 1.757 2.425 2.58.071.197.063.286-.017.317l-27.488 10.354c-.345.134-2.114-1.758-2.424-2.578-.06-.156-.066-.289.01-.318l13.708-5.166c1.599-6.831 4.871-14.245 7.451-21.628zm-13.897-.561l13.512-2.932c.28-.062 1.779 1.801 2.032 2.949.035.163.018.297-.063.312l-28.707 6.225c-.365.078-1.794-1.843-2.031-2.949-.037-.166-.022-.297.056-.312l3.582-.773c3.596-5.542 5.322-10.767 8.157-16.145l-13.509 2.93c-.361.078-1.83-2.047-2.02-2.906-.037-.166-.021-.3.059-.312l28.708-6.225c.285-.062 1.785 1.801 2.023 2.907.037.163.022.296-.06.312l-3.58.778c-3.547 5.573-5.262 10.665-8.159 16.141zm3.737-15.186l-2.735.594c-3.547 5.575-5.304 10.671-8.2 16.149l2.735-.593c2.243-3.445 3.743-6.819 5.298-10.117.917-1.997 1.827-3.996 2.902-6.033zm-15.129-23.05c.41-.036 1.547 2.27 1.617 3.151l-.063.257c-1.218 1.74-2.562 3.529-4.111 5.296l-1.286 1.492 4.594-.373c3.524-3.395 6.452-7.038 8.968-10.608l.043-.003c.41-.034 1.547 2.271 1.615 3.149l-.062.259c-1.221 1.739-2.562 3.533-4.115 5.299l-1.283 1.488 14.396-1.159c.286-.026 1.528 2.061 1.628 3.232.017.208-.022.296-.102.303l-29.281 2.368c-.329.024-1.505-2.28-1.583-3.198l.022-.254c3.467-3.601 6.404-7.079 8.96-10.692l.043-.007zm21.018-9.321c-.006.168-.053.295-.129.294l-14.648-.355c-2.41 2.71-4.858 5.378-7.56 8.081l-.043.042c-.372-.01-1.256-2.421-1.233-3.304l.05-.293c1.515-1.514 2.992-3.111 4.386-4.634l-10.321-.248c-.332-.006-1.304-2.252-1.28-3.346.005-.166.054-.289.134-.289l14.64.354 7.195-8.006.08-.038c.452.011 1.258 2.505 1.235 3.341l-.087.25-4.103 4.558 10.407.251c.288.005 1.304 2.168 1.277 3.342zm-28.836-25.698l.112-.238 4.092-3.165 5.841-4.451.076.013c.37.05.98 2.545.863 3.42l-.117.238-5.8 4.455-.145.146 24.328 3.332c.325.043 1.054 2.303.901 3.425-.033.21-.083.285-.163.277l-26.53-3.634c1.426 2.017 2.637 3.79 4.361 6.058.349.473.881 2.363.752 3.277-.028.208-.085.326-.167.315l-.15-.104c-2.795-3.854-4.208-6.252-7.479-9.959-.352-.468-.897-2.535-.775-3.405zm273.998 205.855c-.149.06-.283.074-.314-.004-1.007-1.988-1.878-3.984-2.696-5.96l-4.397-11.141c-2.974 3.995-5.471 7.931-8.295 11.953-.45.677-1.68 1.766-2.337 2.039-.149.062-.281.075-.315-.003l-4.926-12.429c-.804-1.934-1.632-3.818-2.576-5.657-.109-.266 1.379-2.041 2.502-2.509.152-.062.283-.071.315.005 1.037 2.058 1.982 4.118 2.866 6.247.786 1.901 1.496 3.833 2.261 5.786l1.921 4.949c2.628-3.945 5.286-7.718 8.443-11.922.437-.584 1.723-1.743 2.272-1.968.153-.065.244-.059.276.017l4.929 12.432c.791 1.896 1.632 3.818 2.575 5.655.109.266-1.376 2.041-2.504 2.51zm-30.169-21.023c.166-.039.296-.031.312.049l7.083 28.511c.102.398-1.91 1.87-2.887 2.117l-.261-.022-10.513-6.292-5.63 9.15c-.186.472-1.911 1.705-2.81 1.929-.162.04-.294.034-.312-.049l-7.085-28.515c-.076-.315 1.872-1.856 2.89-2.115.162-.039.296-.029.312.05l6.512 26.2 4.655-7.686c.42-.576 2.115-1.755 2.847-1.938l.267.019 7.702 4.575-5.935-23.876c-.055-.242 1.633-1.802 2.853-2.107zm-28.498 6.24c.204-.017.293.017.302.098l2.662 29.258c.036.327-2.005 1.546-3.131 1.648l-.302-.052c-4.707-3.166-9.337-5.845-13.955-8.029l-.044-.078c-.013-.12.141-.264.336-.442l10.479-7.937c-5.604-2.799-11.201-7.41-17.059-11.175l-.051-.075c-.034-.367 2.178-1.521 3.14-1.611.163-.013.297.017.341.053 4.879 3.193 10.05 7.266 15.03 10.115l-.924-10.12c-.032-.327 2.088-1.55 3.176-1.653zm-2 14.566l-8.86 6.75c3.265 1.607 6.588 3.453 9.98 5.537l-1.12-12.287zm-36.735-13.822c.166.006.287.054.282.133l-.609 12.704c-.269 5.626 5.59 9.492 11.122 13.219l2.438 1.64 1.19-25.646c.017-.413 2.368-1.25 3.327-1.204.215.016.29.059.288.143l-1.36 29.343c-.024.412-2.453 1.24-3.377 1.199l-.206-.05c-6.004-5.277-17.42-9.648-17.046-17.582l.614-12.698c.022-.372 2.287-1.248 3.337-1.201zm-16.31 28.712c-.207-.035-.325-.099-.315-.174l4.686-28.999c.047-.283 2.29-1.004 3.488-.808.207.033.28.083.268.166l-4.679 28.996c-.061.367-2.371.989-3.448.819zm-23.389-35.781l-.032-.052c.11-.396 2.623-.706 3.514-.464.163.044.233.103.258.154 3.472 4.887 6.924 10.495 10.504 15.283l2.8-10.489c.098-.358 2.66-.698 3.514-.468.197.051.271.112.251.192l-7.587 28.377c-.093.354-2.654.692-3.507.464-.162-.042-.274-.117-.253-.198l3.783-14.143c-4.622-5.282-8.746-12.255-13.245-18.656zm.561-1.558c.149.069.251.154.217.234l-11.826 26.891c-.167.38-2.661.314-3.581-.089l-.196-.178-4.472-11.406-10.057 3.806c-.434.257-2.552.181-3.398-.189-.155-.064-.252-.156-.22-.23l11.828-26.892c.132-.303 2.616-.334 3.58.09.151.069.255.157.218.229l-10.865 24.707 8.384-3.232c.685-.194 2.749-.098 3.438.21l.197.174 3.302 8.327 9.912-22.523c.096-.229 2.386-.437 3.539.071zm218.658-175.967c-.016-.208.019-.294.1-.301l29.27-2.442c.328-.023 1.529 2.021 1.626 3.15l-.059.298c-3.2 4.687-5.918 9.29-8.135 13.892l-.078.052c-.121.007-.264-.146-.441-.344l-7.85-10.542c-2.839 5.584-7.497 11.148-11.306 16.979l-.08.051c-.369.031-1.502-2.19-1.585-3.153-.012-.166.021-.294.054-.341 3.232-4.856 7.347-9.995 10.237-14.953l-10.127.844c-.323.027-1.537-2.1-1.626-3.19zm14.54 2.115l6.685 8.911c1.631-3.251 3.501-6.562 5.613-9.936l-12.298 1.025zm-12.986 18.667c.013-.169.062-.292.146-.286l29.31 1.967c.407.029 1.2 2.394 1.132 3.397l-.1.243-9.201 8.081 6.997 8.159c.388.319 1.037 2.34.979 3.262-.015.166-.065.289-.142.279l-29.312-1.963c-.329-.023-1.199-2.35-1.135-3.395.01-.169.062-.293.144-.286l26.927 1.807-5.895-6.781c-.417-.576-1.025-2.549-.974-3.302l.1-.244 6.707-5.936-24.548-1.647c-.243-.017-1.216-2.102-1.135-3.355zm25.713 43.19l-.13.227-4.323 2.842-6.17 3.98-.083-.013c-.358-.085-.778-2.615-.591-3.477l.135-.231 6.13-3.99.156-.141-24.004-5.205c-.322-.068-.874-2.373-.635-3.482.045-.205.101-.273.182-.261l26.177 5.674c-1.265-2.117-2.335-3.981-3.882-6.374-.311-.498-.689-2.422-.498-3.326.046-.205.114-.317.192-.303l.144.122c2.488 4.054 3.714 6.551 6.689 10.499.313.498.694 2.598.511 3.459zm-38.899 21.216c.059-.156.143-.257.22-.234l11.944 4.354c5.297 1.936 10.729-2.515 15.93-6.688l2.292-1.844-24.136-8.75c-.386-.141-.482-2.629-.153-3.537.068-.195.14-.264.215-.237l27.615 10.024c.39.138.456 2.705.144 3.575l-.109.183c-6.822 4.163-14.397 13.767-21.855 11.045l-11.946-4.353c-.352-.125-.52-2.549-.161-3.538zm-3.09 6.706c.098-.186.173-.241.244-.202l25.91 13.845c.291.156.193 2.525-.342 3.521l-.212.222c-5.235 2.197-10.008 4.59-14.37 7.251h-.091c-.11-.061-.14-.267-.186-.522l-.879-13.118c-5.407 3.147-12.337 5.289-18.701 8.118l-.095-.003c-.327-.175-.074-2.653.381-3.505.078-.146.173-.242.234-.255 5.342-2.328 11.587-4.409 16.703-6.999l-8.965-4.788c-.288-.157-.149-2.605.369-3.565zm11.068 9.671l.777 11.11c3.132-1.845 6.498-3.613 10.106-5.293l-10.883-5.817zm-22.958 26.755l-.093-.014c-.338-.239.241-2.646.796-3.438.097-.137.178-.182.233-.191l5.938-1.53-8.533-5.96c-.237-.168.114-2.536.762-3.461.095-.137.198-.218.269-.172l10.584 7.396 1.792-1.055.183.031c.374.259.936 1.316 1.066 1.563 2.918-.728 5.948-1.478 9.17-2.139l.059-.01c.306.209-.292 2.712-.798 3.435l-.202.217-6.241 1.468 8.465 5.916c.305.215-.254 2.738-.762 3.461-.096.137-.202.218-.267.169l-10.59-7.397-1.764 1.018-.126-.036c-.34-.236-.924-1.411-1.041-1.599l-8.9 2.328zm-87.83-264.494c-.162-.042-.273-.11-.254-.191l3.115-12.322c1.381-5.464-3.594-10.415-8.276-15.162l-2.068-2.095-6.25 24.896c-.096.396-2.565.748-3.503.512-.201-.049-.273-.112-.247-.188l7.151-28.483c.103-.4 2.65-.73 3.545-.503l.194.09c4.832 6.358 15.157 12.917 13.214 20.612l-3.115 12.324c-.091.356-2.486.767-3.506.51zm36.589-17.379c.489-.288 2.554-.216 3.362.129.197.082.256.152.225.23l-.143.117c-4.479 1.763-8.447 2.942-12.917 5.112-.513.229-2.646.218-3.418-.109-.154-.065-.215-.135-.239-.189-.936-1.872-1.848-3.912-2.749-6.08l-.765-1.845-1.801 4.24c1.362 4.199 2.787 7.707 4.46 11.279 3.479-1.433 6.882-2.579 10.161-3.871.486-.285 2.554-.213 3.364.13.193.083.255.153.222.226l-.141.121c-4.484 1.762-8.445 2.942-12.923 5.113-.563.251-2.646.219-3.418-.11l-.236-.19c-.933-1.871-1.844-3.911-2.749-6.082l-.767-1.845-5.641 13.295c-.112.266-2.502.414-3.579-.044-.158-.065-.254-.151-.227-.227l11.482-27.042c.131-.301 2.715-.278 3.564.084l.214.133c1.382 4.159 2.837 7.816 4.521 11.256l10.138-3.831zm-4.746 31.298c-.146-.084-.234-.183-.19-.255l14.79-25.374c.186-.318 2.566-.073 3.512.474.144.086.194.165.212.22l3.613 10.204.017.053c-.205.359-2.712-.006-3.511-.471-.142-.087-.194-.164-.209-.22l-2.049-5.812-12.635 21.676c-.152.248-2.534.095-3.55-.495zm13.776 8.683c-.137-.098-.212-.205-.166-.27l17.23-23.795c.215-.298 2.563.18 3.446.82.137.1.182.182.187.242l2.593 10.505.01.06c-.244.333-2.701-.278-3.447-.82-.135-.1-.179-.18-.19-.238l-1.463-5.986-14.72 20.326c-.166.233-2.529-.154-3.48-.844zm11.093 8.023c-.118-.116-.179-.232-.122-.292l20.317-21.215c.287-.297 2.606.615 3.33 1.312l.127.232.293 12.244 10.749-.13c.495-.097 2.463.701 3.128 1.342.119.113.185.229.127.29l-20.315 21.215c-.231.237-2.578-.585-3.332-1.312-.123-.116-.186-.235-.128-.292l18.668-19.491-8.987.169c-.706-.051-2.61-.85-3.159-1.372l-.124-.235-.249-8.952-17.018 17.769c-.168.178-2.392-.41-3.305-1.282zm20.518 20.592c-.099-.135-.142-.258-.078-.31l23.493-17.628c.264-.199 2.444.998 3.047 1.803.104.134.124.227.115.282-.655 8.25 3.925 19.286-2.688 24.251l-10.169 7.629c-.298.223-2.417-.964-3.051-1.804-.122-.165-.171-.293-.103-.342l10.17-7.628c5.43-4.075 3.271-12.366 2.679-19.736l-5.657 4.248c-.111 4.173 1.842 9.728-1.379 12.148l-7.993 6c-.3.222-2.424-.965-3.055-1.802-.1-.135-.142-.258-.073-.31l8.027-6.025c2.105-1.579 1.899-4.731 1.572-7.839l-11.812 8.863c-.29.223-2.414-.96-3.045-1.8zm-261.717 13.446c-.127.167-.207.21-.273.162l-23.644-17.43c-.269-.197.173-2.53.847-3.438l.238-.188c5.496-1.421 10.167-3.396 14.867-5.402l.093.016c.099.074.099.283.082.582l-1.53 14.763 10.167 7.493c.297.221-.328 2.733-.847 3.442zm-10.28-11.643l1.12-10.95c-3.332 1.401-6.743 2.845-10.425 4.092l9.305 6.858zm1.54-26.832c.14-.154.254-.223.315-.17l21.911 19.561c.217.193-.38 2.468-1.193 3.375-.14.158-.223.192-.285.138l-21.913-19.558c-.275-.246.44-2.533 1.165-3.346zm13.884-13.858c.125-.112.245-.165.3-.107l13.2 14.404c5.032.582 9.157.37 13.915.531l.029.03c.276.302-.876 2.643-1.498 3.21l-.243.108-8.779-.146 3.221 3.515c.256.275-.841 2.615-1.491 3.209-.158.143-.245.17-.298.108l-5.089-5.549c-.156 2.932-.46 5.832-.363 9.038.025.59-.898 2.497-1.55 3.091-.118.113-.242.168-.298.107l-.021-.148c-.118-4.968.495-9.324.646-13.816l-13.177-14.371c-.217-.243.692-2.476 1.496-3.214zm28.836-10.049c.241.333-1.139 2.503-1.853 3.02l-.252.078c-2.119-.138-4.348-.35-6.66-.757l-1.946-.32 2.708 3.729c4.736 1.242 9.369 1.846 13.727 2.141l.025.035c.242.334-1.139 2.5-1.853 3.02l-.254.08c-2.118-.14-4.347-.35-6.661-.762l-1.94-.317 8.475 11.689c.169.233-.97 2.379-1.918 3.071-.173.122-.265.138-.309.071l-17.246-23.781c-.19-.267 1.163-2.471 1.909-3.01l.228-.116c4.883 1.086 9.383 1.788 13.795 2.091l.025.038zm15.196 15.163c-.18.103-.274.106-.313.036l-14.409-25.598c-.156-.286 1.203-2.229 2.188-2.785.109-.063.239-.09.295-.073 5.592.962 10.908 1.511 16.017 1.611l.073.052c.066.106-.024.298-.123.545l-6.311 11.524c6.252.259 13.248 2.175 20.136 3.21l.076.051c.182.324-1.36 2.279-2.203 2.75-.15.082-.278.108-.335.093-5.759-.913-12.144-2.513-17.852-3.081l4.981 8.857c.163.29-1.266 2.273-2.22 2.808zm-4.133-14.1l5.318-9.788c-3.628-.13-7.421-.453-11.371-.967l6.053 10.755zm26.807-17.065l3.405-13.457c.068-.417 1.749-2.018 2.614-2.344.156-.059.286-.065.319.011l10.347 27.49c.131.347-1.762 2.112-2.627 2.437l-.261.011-12.655-8.863-2.998 13.477c-.132.49-1.709 2.005-2.651 2.36-.157.059-.251.05-.278-.028l-10.347-27.486c-.157-.425 1.759-2.115 2.624-2.44.157-.059.291-.063.306-.028l12.202 8.86zm-9.814-2.503l6.45 17.133 2.47-10.819-8.92-6.314zm16.877 7.449l4.377 3.055-6.669-17.71-2.71 11.132 5.002 3.523zm56.955 302.315l-25.033-31.106 22.161-16.283-91.715-67.386-10.37 29.641-15.433-52.813 24.105 17.711 36.635-104.774h-27.575l39.585-24.063-7.222 20.665h109.717l-7.223-20.665 39.588 24.063h-27.576l36.632 104.774 24.108-17.711-15.435 52.813-10.363-29.641-91.724 67.386 22.163 16.283-25.025 31.106zm-20.16-30.472l20.16 25.054 20.154-25.054-20.154-14.809-20.16 14.809zm20.16-19.023l93.411-68.636-37.365-106.88h-112.096l-37.365 106.88 93.415 68.636zm97.454-67.381l7.205 20.624 9.648-33.01-16.853 12.386zm-211.764-12.388l9.646 33.011 7.209-20.625-16.855-12.386zm172.77-99.144h16.628l-21.113-12.837 4.485 12.837zm-133.547 0h16.625l4.49-12.837-21.115 12.837zm65.457 3.16l-8.66-2.923 18.29-54.17 18.287 54.171-8.662 2.921-9.625-28.512-9.63 28.513zm102.824 199.335l-59.156-44.639 5.503-7.298 31.529 23.787-15.364-35.543 8.394-3.626 29.094 67.319zm-9.053-127.711l-5.283-7.462 26.703-18.892h-33.827v-9.143h62.574l-50.167 35.497zm-168.281 0l-50.17-35.496h62.58v9.143h-33.831l26.701 18.892-5.28 7.461zm-9.057 127.711l29.096-67.319 8.394 3.626-15.365 35.544 31.529-23.787 5.504 7.298-59.158 44.638zm-18.554-88.55l.926 3.271-29.363 8.328-.927-3.269 29.364-8.33zm223.512-.042l29.358 8.332-.928 3.272-29.36-8.333.93-3.271zm-181.994-138.545l8.262 14.762-2.965 1.66-8.262-14.762 2.965-1.66zm140.459-.008l2.973 1.658-8.244 14.774-2.972-1.658 8.243-14.774z" opacity=".5"/><path fill="#00A057" d="M555.831 46.967c-53.371-40.523-134.064-24.077-180.249 36.737-24.554 32.338-34.402 70.713-30.216 105.647 5.845 56.658-7.964 96.494-14.948 112.389-8.483 3.435-17.6 9.594-17.69 20.229-.013 1.279 1.66 3.561 4.36 6.351l-17.088 22.502-17.089-22.506c2.699-2.788 4.372-5.072 4.36-6.35-.095-10.637-9.207-16.794-17.69-20.229-6.986-15.896-20.79-55.729-14.95-112.388 4.19-34.935-5.656-73.309-30.213-105.647-46.187-60.812-126.88-77.258-180.25-36.735-53.36 40.523-59.191 122.673-13.02 183.486 24.558 32.336 58.878 52.131 93.655 57.479 56.145 9.587 90.805 33.584 104.25 44.584 1.029 9.095 4.512 19.522 14.727 22.471 1.23.352 3.877-.645 7.29-2.49l23.828 31.38-47.114 62.046c-9.087 2.189-26.583 8.328-26.711 23.087-.054 6.062 37.665 34.697 43.484 33.021 14.183-4.091 15.396-22.588 15.068-31.931l40.375-53.168 40.374 53.167c-.329 9.343.887 27.84 15.068 31.931 5.815 1.676 43.536-26.963 43.482-33.021-.127-14.759-17.623-20.895-26.707-23.087l-47.117-62.046 23.828-31.38c3.411 1.846 6.06 2.842 7.292 2.49 10.211-2.949 13.696-13.376 14.727-22.471 13.44-11 48.104-34.997 104.249-44.584 34.777-5.348 69.097-25.143 93.653-57.479 46.176-60.81 40.339-142.96-13.018-183.485zm-331.84 175.457l-5.271-6.939 7.6-5.771 4.565 6.019c-.333.754-.687 1.496-1.041 2.243l-5.853 4.448zm3.375.483c-.417.768-.823 1.546-1.255 2.305l-.653-.857 1.908-1.448zm-.378-17.032l-1.847-2.76h.006l-3.574-4.181 7.564-5.416 5.443 6.982-1.618 1.194-2.448 1.935v-.067l-3.526 2.313zm-160.059-126.933l5.271 6.939-7.593 5.769-5.273-6.938 5.139-3.902v.001l2.456-1.869zm25.271-5.615l5.365 6.798-7.239 5.88-5.409-6.952 7.283-5.726zm-.02-.024v-.003.003zm47.692 157.041l-5.272-6.939 7.595-5.773 3.845 5.07v-.002l1.427 1.875-4.747 3.604v-.002l-2.848 2.167zm-68.452-32.506l-5.104-5.917 7.233-5.859 5.08 6.688-7.209 5.088zm.76.277v.604l-.521-.604h.521zm-.21-94.194l4.723 6.943-7.872 6.489-1.457-.903h-.024l-2.957-6.037 4.462-3.289v.003l3.125-3.206zm88.593 54.754l-5.27-6.94 7.597-5.769 5.269 6.94-7.596 5.769zm9.062-3.839l5.273 6.939-7.598 5.769-5.271-6.938 7.596-5.77zm-10.999 5.305l-7.594 5.767-5.271-6.939 7.593-5.767 5.272 6.939zm-14.329-3.104l-5.269-6.938 7.594-5.768 5.268 6.936-7.593 5.77zm-1.934 1.467l-7.595 5.771-5.266-6.945 7.593-5.767 5.268 6.941zm-4.801-10.338l-5.271-6.943 7.592-5.765 5.272 6.94-7.593 5.768zm-1.932 1.465l-7.595 5.765-5.275-6.939 7.595-5.771 5.275 6.945zm-9.535 7.238l-7.593 5.768-5.267-6.941 7.594-5.77 5.266 6.943zm-4.797-10.344l-5.272-6.94 7.594-5.767 5.272 6.942-7.594 5.765zm-1.933 1.468l-7.599 5.766-5.275-6.94 7.6-5.767 5.274 6.941zm-14.337-3.106l-5.275-6.94 7.602-5.765 5.272 6.94-7.599 5.765zm-1.931 1.469l-7.597 5.766-5.269-6.941 7.594-5.768 5.272 6.943zm-14.339-3.106l-5.267-6.94 7.594-5.77 5.273 6.942-7.6 5.768zm-1.929 1.468l-7.59 5.765-5.271-6.938 7.593-5.768 5.268 6.941zm1.468 1.934l5.27 6.94-7.599 5.765-5.265-6.938 7.594-5.767zm6.74 8.873l5.267 6.939-7.595 5.766-5.273-6.94 7.601-5.765zm1.932-1.469l7.596-5.766 5.271 6.94-7.599 5.767-5.268-6.941zm14.326 3.107l5.275 6.94-7.595 5.765-5.271-6.941 7.591-5.764zm6.746 8.874l5.266 6.94-7.594 5.765-5.268-6.94 7.596-5.765zm1.932-1.47l7.594-5.765 5.269 6.938-7.597 5.767-5.266-6.94zm14.332 3.106l5.269 6.937-7.594 5.769-5.269-6.938 7.594-5.768zm1.934-1.465l7.593-5.771 5.273 6.939-7.599 5.767-5.267-6.935zm14.331 3.102l5.27 6.939-7.599 5.767-5.269-6.939 7.598-5.767zm1.93-1.467l7.599-5.767 5.268 6.94-7.593 5.77-5.274-6.943zm14.33 3.105l5.271 6.94-7.593 5.767-5.273-6.938 7.595-5.769zm1.933-1.468l7.595-5.766 5.275 6.94-7.598 5.765-5.272-6.939zm14.34 3.106l5.268 6.939-7.592 5.765-5.27-6.939 7.594-5.765zm-4.811-10.341l7.6-5.771 5.273 6.943-7.599 5.769-5.274-6.941zm-1.463-1.932l-5.271-6.941 7.594-5.767 5.274 6.942-7.597 5.766zm-6.736-8.875l-5.271-6.939 7.593-5.765 5.274 6.938-7.596 5.766zm-6.743-8.873l-5.266-6.938 7.595-5.767 5.272 6.94-7.601 5.765zm-1.928 1.468l-7.6 5.767-5.266-6.938 7.597-5.768 5.269 6.939zm-14.339-3.103l-5.266-6.941 7.599-5.768 5.262 6.941-7.595 5.768zm-6.731-8.875l-5.27-6.94 7.593-5.767 5.271 6.94-7.594 5.767zm-1.933 1.468l-7.603 5.77-5.262-6.943 7.592-5.765 5.273 6.938zm-14.334-3.103l-5.273-6.945 7.594-5.765 5.272 6.941-7.593 5.769zm-1.932 1.466l-7.592 5.765-5.275-6.94 7.594-5.767 5.273 6.942zm-14.338-3.103l-5.267-6.943 7.599-5.765 5.275 6.942-7.607 5.766zm-1.928 1.464l-7.594 5.767-5.273-6.94 7.594-5.765 5.273 6.938zm-14.332-3.103l-5.273-6.94 7.599-5.767 5.268 6.94-7.594 5.767zm-1.932 1.466l-7.598 5.77-5.268-6.941 7.591-5.767 5.275 6.938zm-14.336-3.103l-5.266-6.942 7.589-5.767 5.27 6.941-7.593 5.768zm-1.93 1.465l-4.745 3.599v.002l-2.848 2.167-5.271-6.94 7.263-5.52.327-.247 5.274 6.939zm1.466 1.932l5.272 6.942-7.6 5.767-5.265-6.939 7.593-5.77zm2.475 23.048l-7.593 5.768-5.267-6.94 7.595-5.77 5.265 6.942zm1.473 1.934l5.269 6.942-7.594 5.767-5.269-6.94 7.594-5.769zm6.739 8.87l5.266 6.939-7.594 5.769-5.269-6.938 7.597-5.77zm6.73 8.877l5.273 6.938-7.598 5.77-5.267-6.943 7.592-5.765zm1.94-1.471l7.592-5.764 5.271 6.938-7.597 5.767-5.266-6.941zm14.33 3.108l5.269 6.939-7.593 5.767-5.272-6.938 7.596-5.768zm6.737 8.875l5.273 6.939-7.594 5.767-5.273-6.941 7.594-5.765zm1.94-1.473l7.592-5.765 5.273 6.941-7.6 5.767-5.265-6.943zm14.328 3.11l5.27 6.938-7.594 5.768-5.273-6.941 7.597-5.765zm1.933-1.469l7.597-5.769 5.269 6.941-7.597 5.767-5.269-6.939zm14.332 3.104l5.272 6.94-7.6 5.769-5.269-6.942 7.597-5.767zm1.928-1.467l7.598-5.767 5.269 6.938-7.598 5.77-5.269-6.941zm14.332 3.106l5.272 6.94-7.591 5.767-5.273-6.94 7.592-5.767zm1.935-1.468l7.594-5.767 5.27 6.939-7.591 5.767-5.273-6.939zm14.333 3.103l5.272 6.943-7.595 5.767-5.272-6.94 7.595-5.77zm1.931-1.467l7.599-5.766 5.269 6.941-7.594 5.768-5.274-6.943zm14.339 3.108l5.265 6.937-7.593 5.771-5.272-6.938 7.6-5.77zm-4.805-10.344l7.589-5.763 5.272 6.938-7.593 5.767-5.268-6.942zm-1.464-1.93l-5.275-6.941 7.594-5.766 5.268 6.942-7.587 5.765zm-2.488-23.05l7.597-5.766 5.272 6.94-4.228 3.206-3.366 2.563-5.275-6.943zm1.356-4.071l-2.822 2.142-5.271-7.544 2.392-2.417h-.003l5.21-3.351 5.271 7.244-4.777 3.926zm-6.997-9.154v-.003l-2.872 2.425-5.12-6.943 7.302-5.765 2.354 3.488v-.001l2.684 3.453-4.348 3.346zm-9.302-6.45l-5.271-6.943 7.6-5.765 5.269 6.943-7.598 5.765zm-6.732-8.875l-5.273-6.938 7.597-5.768 5.271 6.94-7.595 5.766zm-1.933 1.467l-7.597 5.768-5.27-6.94 7.595-5.771 5.272 6.943zm-14.335-3.103l-5.272-6.942 7.598-5.767 5.267 6.94-7.593 5.769zm-6.735-8.876l-5.27-6.94 7.591-5.767 5.271 6.94-7.592 5.767zm-1.941 1.469l-7.59 5.769-5.273-6.945 7.593-5.765 5.27 6.941zm-14.327-3.107l-5.27-6.94 7.597-5.77 5.269 6.945-7.596 5.765zm-1.935 1.468l-7.593 5.77-5.273-6.943 7.596-5.765 5.27 6.938zm-14.33-3.105l-5.27-6.94 7.594-5.767 5.272 6.942-7.596 5.765zm-1.932 1.469l-7.6 5.765-5.267-6.94 7.598-5.768 5.269 6.943zm-14.335-3.107l-5.269-6.94 7.592-5.765 5.275 6.94-7.598 5.765zm-1.933 1.47l-7.591 5.769-5.273-6.942 7.594-5.768 5.27 6.941zm-14.33-3.105l-5.269-6.943 7.589-5.767 5.272 6.939-7.592 5.771zm-11.463 8.702l-7.594 5.767-5.271-6.939 7.595-5.771 5.27 6.943zm-2.79 16.107l-7.593 5.77-5.272-6.941 7.595-5.769 5.27 6.94zm1.465 1.931l.007.008 5.268 6.935-7.594 5.767-5.059-6.659-.215-.281 7.593-5.77zm2.48 23.05l-7.592 5.767-5.271-6.939 7.595-5.771 5.268 6.943zm1.47 1.934l5.27 6.939-7.597 5.767-5.269-6.939 7.596-5.767zm6.738 8.873l5.269 6.94-7.592 5.768-5.269-6.941 7.592-5.767zm6.738 8.873l5.27 6.938-7.597 5.769-5.275-6.938 7.602-5.769zm6.732 8.872l5.272 6.94-7.594 5.767-5.273-6.938 7.595-5.769zm1.933-1.471l7.595-5.764 5.271 6.938-7.596 5.77-5.27-6.944zm14.336 3.106l5.271 6.943-7.593 5.765-5.272-6.939 7.594-5.769zm6.736 8.875l5.273 6.94-7.592 5.77-5.275-6.941 7.594-5.769zm1.938-1.467l7.593-5.767 5.272 6.938-7.599 5.769-5.266-6.94zm14.327 3.103l5.272 6.945-7.597 5.764-5.267-6.94 7.592-5.769zm1.933-1.466l7.6-5.771 5.273 6.942-7.6 5.768-5.273-6.939zm14.341 3.106l5.264 6.938-7.593 5.768-5.273-6.938 7.602-5.768zm1.931-1.466l7.588-5.771 5.273 6.943-7.596 5.768-5.265-6.94zm14.326 3.103l5.272 6.942-7.595 5.765-5.269-6.938 7.592-5.769zm1.934-1.468l7.6-5.765 5.263 6.939-5.622 4.271-1.969 1.498-1.009-1.329-4.263-5.614zm14.338 3.106l1.401 1.851 3.863 5.089-7.591 5.766-5.273-6.94 7.6-5.766zm4.32 1.684l-2.392-3.148 7.594-5.771 5.349 6.938-1.88 1.489v-.005l-5.717 4.287-2.954-3.79zm11.942-.049l5.273 6.943-7.599 5.765-5.269-6.936 7.595-5.772zm1.929-1.465l7.604-5.767 5.266 6.94-7.594 5.768-5.276-6.941zm2.793-16.108l7.599-5.765 5.27 6.937-7.599 5.771-5.27-6.943zm2.788-16.106l4.045-3.069 3.553-2.698 5.269 6.938-7.593 5.77-5.274-6.941zm2.457-4.911l-3.921 2.979-5.27-6.943 3.492-2.649 4.103-3.115 5.269 6.94-3.673 2.788zm-6.4-20.068l7.596-5.77 5.266 6.941-7.588 5.767-5.274-6.938zm-1.472-1.935l-5.265-6.942 7.591-5.767 5.273 6.942-7.599 5.767zm-6.737-8.875l-5.264-6.94 2.515-1.91 5.074-3.858 5.273 6.941-7.598 5.767zm-1.961-13.741l-4.947 4.308-5.323-6.697 7.168-5.718 3.1 4.896v-.003l2.12 1.647-2.153 1.562.035.005zm-11.511-4.005l-5.27-6.935 7.594-5.77 5.273 6.94-7.597 5.765zm-6.738-8.87l-5.273-6.943 7.598-5.765 5.272 6.938-7.597 5.77zm-1.938 1.467l-7.588 5.769-5.273-6.943 7.6-5.769 5.261 6.943zm-14.325-3.106l-5.271-6.942 7.598-5.767 5.267 6.94-7.594 5.769zm-6.738-8.872l-5.27-6.943 7.594-5.767 1.043 1.37 4.226 5.57-7.593 5.77zm-1.934 1.466l-7.592 5.767-5.272-6.94 7.593-5.768 5.271 6.941zm-13.998-3.107l-1.151-1.959v-.007l-4.116-4.971 7.554-5.768 5.412 6.94-7.699 5.765zm-2.265 1.469l-7.597 5.767-5.271-6.939 7.595-5.767 5.273 6.939zm-14.333-3.104l-5.273-6.943 4.467-3.388 3.128-2.377 5.273 6.94-7.595 5.768zm-1.932 1.466l-7.594 5.767-5.273-6.941 7.594-5.768 5.273 6.942zm-14.335-3.106l-5.271-6.94 7.594-5.767 5.272 6.942-7.595 5.765zm-1.931 1.468l-7.599 5.765-5.267-6.938 7.592-5.77 5.274 6.943zm-14.334-3.101l-5.27-6.944 7.589-5.767 5.275 6.94-7.594 5.771zm-1.932 1.464l-7.6 5.769-5.268-6.942 7.6-5.767 5.268 6.94zm-9.529 7.235l-2.99 2.269h-.001l-4.605 3.499-5.271-6.94 7.597-5.767 1.702 2.24 3.568 4.699zm-9.525 7.233l-7.597 5.771-5.275-6.942 7.597-5.768 5.275 6.939zm-2.797 16.111l-7.592 5.768-5.272-6.943 7.591-5.767 5.273 6.942zm-2.79 16.108l-7.595 5.765-5.271-6.94 7.6-5.765 5.266 6.94zm1.479 1.79l.272.207h-.001l4.995 6.735-7.6 5.806-4.795-6.194-.47-.614 7.599-5.94zm2.469 23.19l-7.593 5.767-5.27-6.94 7.592-5.77 5.271 6.943zm1.474 1.932l5.265 6.941-7.594 5.769-5.267-6.941 7.596-5.769zm6.736 8.871l5.266 6.943-7.594 5.767-5.272-6.94 7.6-5.77zm13.472 17.75l5.272 6.94-7.599 5.768-5.27-6.941 7.597-5.767zm5.818 9.568l.919-.696 5.27 6.938-2.897 2.201-4.7 3.568-5.271-6.941 6.679-5.07zm2.85-2.169l7.591-5.765 5.273 6.943-7.594 5.765-5.27-6.943zm14.331 3.111l5.273 6.94-7.595 5.765-5.269-6.939 7.591-5.766zm6.741 8.871l5.271 6.942-7.598 5.766-5.265-6.94 7.592-5.768zm1.933-1.468l7.593-5.768 5.272 6.939-7.597 5.771-5.268-6.942zm14.334 3.105l5.269 6.942-7.594 5.768-5.273-6.94 7.598-5.77zm1.929-1.466l7.595-5.767 5.273 6.939-7.597 5.771-5.271-6.943zm19.535 5.942l-3.269-4.304 7.595-5.771 5.273 6.943-7.597 5.768-2.002-2.636zm11.064-1.197l5.271 6.94-7.595 5.767-5.272-6.94 7.596-5.767zm1.933-1.468l7.592-5.771 5.275 6.942-7.597 5.767-5.27-6.938zm14.332 3.105l5.273 6.941-7.594 5.765-5.273-6.941 7.594-5.765zm1.933-1.47l7.602-5.767 5.267 6.944-7.595 5.764-5.274-6.941zm14.335 3.107l5.265 6.94-7.591 5.765-5.269-6.939 7.595-5.766zm1.932-1.465l7.6-5.769 5.267 6.94-7.598 5.763-5.269-6.934zm9.531-7.234l7.596-5.769 5.266 6.938-7.597 5.768-5.265-6.937zm2.787-16.111l7.592-5.766 5.273 6.938-7.597 5.769-5.268-6.941zm9.528-7.235l5.142-3.904 2.458-1.865 5.265 6.943-2.021 1.533-5.571 4.233-5.273-6.94zm3.555-5.748l-5.021 3.813-5.273-6.939 4.593-3.483v-.003l3.006-2.279 5.269 6.938-2.574 1.953zm-7.506-19.231l7.603-5.77 5.267 6.939-7.595 5.769-5.275-6.938zm-1.462-1.934l-5.271-6.943 7.595-5.765 5.265 6.942-7.589 5.766zm-2.479-23.047l7.596-5.768 5.271 6.939-7.601 5.767-5.266-6.938zm-1.466-1.934l-5.273-6.941 7.597-5.765 5.265 6.943-7.589 5.763zm-6.738-8.875l-5.271-6.94 7.595-5.767 5.268 6.94-7.592 5.767zm-6.739-8.868l-5.271-6.941 4.314-3.275 3.28-2.495 5.27 6.94-7.593 5.771zm1.597-14.987l-1.188.394-.222-.019-6.861 5.422-5.326-6.818 8.385-5.691 5.523 6.328-.311.384zm-15.073-2.761l-5.269-6.94 7.595-5.77 5.269 6.94-7.595 5.77zm-6.738-8.876l-5.271-6.938 7.6-5.77 5.266 6.941-7.595 5.767zm-1.932 1.47l-7.593 5.767-5.275-6.941 7.597-5.767 5.271 6.941zm-14.334-3.105l-3.852-5.075-1.418-1.865 7.595-5.77 2.903 3.825 2.367 3.114-7.595 5.771zm-6.736-8.877l-5.272-6.936 7.599-5.768 5.269 6.938-7.596 5.766zm-1.935 1.471l-7.592 5.765-5.271-6.938 7.592-5.768 5.271 6.941zm-14.329-3.105l-5.272-6.943 7.594-5.765 5.266 6.943-7.588 5.765zm-1.937 1.467l-7.593 5.768-5.272-6.943 7.595-5.765 5.27 6.94zm-14.33-3.107l-5.27-6.943 7.598-5.763 5.266 6.938-7.594 5.768zm-1.956 1.393l-7.615 5.849-5.313-7.067 1.141-.991h-.001l6.447-4.734 5.341 6.943zm-13.778-4.032l-.525.697-5.277-6.737 7.594-5.819 5.28 6.786-7.072 5.073zm-10.075-5.796l-6.755 5.162-5.26-6.94 7.621-5.769 5.23 6.94-.836.607zm-8.658 6.628l-7.594 5.767-5.267-6.94 7.592-5.767 5.269 6.94zm-19.051 14.47l-7.598 5.769-5.271-6.942 7.595-5.77 5.274 6.943zm-9.529 7.236l-7.594 5.765-5.275-6.94 7.6-5.767 5.269 6.942zm-2.79 16.106l-7.595 5.765-5.27-6.938 7.594-5.765 5.271 6.938zm-9.53 7.236l-7.599 5.771-5.269-6.945 7.599-5.764 5.269 6.938zm1.469 1.934l5.269 6.941-7.599 5.767-5.269-6.942 7.599-5.766zm2.475 23.048l-7.589 5.767-5.272-6.94 7.594-5.767 5.267 6.94zm1.497 1.169l.559-.065 4.708 7.007-7.62 6.191-5.252-6.643 7.605-6.49zm2.45 23.813l-7.594 5.766-5.266-6.943 7.593-5.765 5.267 6.942zm1.472 1.929l5.269 6.942-7.594 5.767-5.272-6.94 7.597-5.769zm6.738 8.871l5.269 6.94-7.597 5.767-2.163-2.847-3.106-4.089 7.597-5.771zm3.087 11.648l3.652-2.771 5.264 6.943-7.595 5.767-5.269-6.943 3.948-2.996zm10.387 6.101l5.271 6.942-7.594 5.77-5.272-6.943 7.595-5.769zm6.741 8.874l5.268 6.938-7.593 5.771-5.273-6.94 7.598-5.769zm6.732 8.872l5.274 6.943-7.598 5.766-5.273-6.942 7.597-5.767zm1.935-1.467l7.593-5.766 5.271 6.94-5.427 4.119-2.167 1.647-5.27-6.94zm7.908 7.603l6.045-4.538 5.159 6.925-8.65 5.67-2.422-1.41v.007l-2.859-5.538 2.727-1.116zm13.16 4.377l5.272 6.937-7.594 5.768-5.273-6.94 7.595-5.765zm1.935-1.47l7.591-5.767 5.273 6.942-7.6 5.765-5.264-6.94zm14.331 3.109l5.269 6.938-7.589 5.77-5.272-6.943 7.592-5.765zm1.931-1.471l7.597-5.769 5.27 6.941-7.592 5.767-5.275-6.939zm14.335 3.107l5.273 6.94-7.597 5.769-3.023-3.983-2.25-2.959 7.597-5.767zm1.931-1.466l7.595-5.771 5.272 6.941-7.597 5.767-5.27-6.937zm14.332 3.101l5.273 6.943-7.597 5.767-5.269-6.94 7.593-5.77zm1.934-1.464l7.597-5.767 5.269 6.938-7.594 5.771-5.272-6.942zm14.334 3.102l5.27 6.938-7.6 5.769-5.264-6.938 7.594-5.769zm1.932-1.468l7.597-5.766 5.269 6.942-7.599 5.768-5.267-6.944zm14.335 3.108l5.267 6.94-7.594 5.765-5.271-6.936 7.598-5.769zm1.929-1.47l7.6-5.767 5.271 6.942-7.598 5.767-5.273-6.942zm9.529-7.234l7.599-5.766 5.27 6.938-7.597 5.77-5.272-6.942zm9.532-7.236l7.593-5.767 5.273 6.939-7.597 5.767-5.269-6.939zm2.791-16.107l7.589-5.77 5.273 6.941-7.597 5.767-5.265-6.938zm12.317-23.341l7.596-5.767 5.273 6.937-7.599 5.77-5.27-6.94zm-1.47-1.934l-5.269-6.943 7.598-5.767 5.271 6.939-7.6 5.771zm-2.48-23.045l7.598-5.77 5.269 6.938-7.598 5.771-5.269-6.939zm-1.465-1.936l-5.274-6.94 7.602-5.765 5.271 6.937-7.599 5.768zm-2.481-23.048l7.596-5.763 5.271 6.94-7.595 5.767-5.272-6.944zm-1.468-1.933l-5.27-6.938 7.593-5.769 5.272 6.943-7.595 5.764zm-6.736-8.875l-5.271-6.937 7.595-5.767 5.275 6.937-7.599 5.767zm-6.738-8.871l-5.271-6.943 7.596-5.765 5.269 6.941-7.594 5.767zm-6.359-9.041l-1.26-2.319v-.003l-4.009-4.617 6.111-4.504 1.296-1.115 4.88 6.91-7.018 5.648zm-7.12-8.704l-5.27-6.943 7.598-5.765 5.273 6.94-7.601 5.768zm-6.734-8.873l-5.271-6.942 7.594-5.767 5.271 6.942-7.594 5.767zm-6.737-8.877l-5.27-6.937 7.594-5.768 5.27 6.94-7.594 5.765zm-2.293-.315l.431 1.22-7.632 6.057-5.288-6.809 7.659-6.251 4.83 5.783zm-13.973-1.318l-5.273-6.942 7.604-5.768 5.266 6.94-7.597 5.77zm-6.735-8.873l-5.272-6.94 7.593-5.77 5.273 6.941-7.594 5.769zm-1.937 1.468l-7.592 5.768-5.273-6.941 7.597-5.764 5.268 6.937zm-14.332-3.107l-5.272-6.942 7.597-5.765 5.269 6.94-7.594 5.767zm-1.935 1.468l-7.591 5.765-5.267-6.937 7.589-5.767 5.269 6.939zm-14.328-3.104l-5.27-6.943 7.597-5.765 5.266 6.94-7.593 5.768zm-1.934 1.467l-7.597 5.765-5.272-6.94 7.6-5.765 5.269 6.94zm-14.333-3.109l-5.273-6.94 7.6-5.765 5.267 6.938-7.594 5.767zm-1.932 1.47l-7.596 5.77-5.271-6.939 7.594-5.771 5.273 6.94zm-14.329-3.106l-5.271-6.938 7.59-5.77 5.273 6.943-7.592 5.765zm-1.936 1.468l-4.043 3.072-3.555 2.699-5.265-6.943 7.593-5.767 5.27 6.939zm-9.82 7.189l-8.055 5.733-4.463-5.06v.005l-.832-1.898 8.126-5.693 5.224 6.913zm-9.237 7.283l-7.598 5.765-5.27-6.94 7.596-5.763 5.272 6.938zm-9.527 7.234l-7.594 5.765-5.275-6.94 7.602-5.77 5.267 6.945zm-9.531 7.236l-7.593 5.765-5.272-6.94 7.597-5.767 5.268 6.942zm-2.791 16.107l-7.592 5.766-5.271-6.94 7.596-5.768 5.267 6.942zm-9.527 7.236l-7.594 5.765-5.27-6.94 7.594-5.769 5.27 6.944zm-2.787 16.108l-7.6 5.764-5.271-6.937 7.598-5.768 5.273 6.941zm1.464 1.931l5.272 6.94-7.598 5.769-5.266-6.945 7.592-5.764zm2.478 23.046l-7.592 5.769-5.272-6.94 7.599-5.769 5.265 6.94zm1.473 1.935l5.265 6.938-7.597 5.767-5.271-6.938 7.603-5.767zm2.476 23.047l-7.595 5.768-5.267-6.939 7.59-5.769 5.272 6.94zm1.466 1.933l5.27 6.939-7.592 5.767-5.272-6.938 7.594-5.768zm5.29 10.143l1.371-.604 1.25 2.418h.005l4.013 4.521-7.551 5.268-5.25-7.024 6.162-4.579zm8.192 7.601l5.264 6.943-7.595 5.767-5.267-6.943 7.598-5.767zm6.733 8.877l5.27 6.938-7.592 5.77-5.275-6.94 7.597-5.768zm6.737 8.874l5.268 6.937-7.59 5.771-5.275-6.94 7.597-5.768zm6.741 8.87l5.265 6.939-7.59 5.771-5.273-6.942 7.598-5.768zm6.734 8.873l5.273 6.943-7.602 5.763-5.269-6.939 7.598-5.767zm1.935-1.467l7.594-5.771 5.272 6.943-7.594 5.766-5.272-6.938zm14.332 3.104l5.272 6.94-.961.729-6.635 5.042-5.272-6.942 7.596-5.769zm5.233 10.017l1.504-1.146 5.271 6.943-3.488 2.65-4.106 3.116-5.27-6.938 6.089-4.625zm3.436-2.611l7.594-5.767 5.267 6.942-7.588 5.767-5.273-6.942zm14.334 3.106l5.269 6.939-7.594 5.769-5.275-6.94 7.6-5.768zm1.933-1.467l7.593-5.766 5.27 6.938-7.593 5.768-5.27-6.94zm14.335 3.103l5.268 6.944-7.598 5.768-5.267-6.942 7.597-5.77zm1.926-1.465l7.595-5.771 5.273 6.943-7.595 5.767-5.273-6.939zm14.336 3.107l5.269 6.937-7.594 5.771-5.267-6.941 7.592-5.767zm1.933-1.468l7.591-5.768 5.275 6.938-7.6 5.769-5.266-6.939zm14.331 3.102l5.273 6.94-7.595 5.768-5.272-6.939 7.594-5.769zm1.936-1.467l7.595-5.767 5.271 6.944-7.594 5.762-5.272-6.939zm14.33 3.107l4.663 6.133c-2.847 1.592-5.748 3.029-8.712 4.307l-3.543-4.673 7.592-5.767zm1.931-1.468l7.601-5.767 5.215 6.87c-2.583 1.911-5.229 3.694-7.948 5.31l-4.868-6.413zm9.53-7.237l7.596-5.767 4.866 6.412c-2.282 2.185-4.712 4.254-7.245 6.23l-5.217-6.875zm9.528-7.233l7.595-5.767 3.549 4.673c-2.025 2.51-4.192 4.917-6.484 7.228l-4.66-6.134zm9.529-7.237l7.592-5.768 1.24 1.63c-1.743 2.858-3.63 5.632-5.67 8.302l-3.162-4.164zm12.317-23.339l7.331-5.562c-1.025 3.556-2.23 7.042-3.615 10.449l-3.716-4.887zm2.794-16.109l7.596-5.77.26.341c-.546 4.115-1.313 8.169-2.305 12.15l-.285.219-5.266-6.94zm2.785-16.109l6.045-4.587c.003 3.815-.178 7.604-.538 11.35l-.233.182-5.274-6.945zm6.024-7.62l-7.486 5.688-5.269-6.94 7.594-5.77 5.152 6.788.009.234zm-.202-4.502l-3.025-3.983 2.51-1.91c.223 1.968.387 3.931.515 5.893zm-.882-8.663l-3.616 2.745-5.268-6.94 7.206-5.475c.691 3.221 1.245 6.448 1.678 9.67zm-10.355-6.13l-5.269-6.938 7.602-5.768 5.269 6.939-7.602 5.767zm6.901-10.7l-2.639-3.477 1.322-1.002c.474 1.49.904 2.985 1.317 4.479zm-2.118-6.917l-1.991 1.509-5.269-6.94 4.065-3.083c1.174 2.819 2.233 5.657 3.195 8.514zm-8.009-18.847c1.377 2.652 2.647 5.333 3.83 8.032l-4.546 3.451-5.275-6.94 5.991-4.543zm-1.166-2.167l-6.285 4.779-5.271-6.943 7.155-5.431c1.57 2.499 3.017 5.039 4.401 7.595zm-5.738-9.629l-7.29 5.531-5.271-6.937 7.573-5.752c1.755 2.351 3.41 4.741 4.988 7.158zm-6.454-9.089l-7.57 5.75-5.271-6.938 7.288-5.537c1.908 2.172 3.762 4.405 5.553 6.725zm-7.147-8.559l-7.16 5.437-5.27-6.943 6.3-4.779c2.087 2.024 4.143 4.099 6.13 6.285zm-7.907-7.988l-5.995 4.51-4.991-6.615h-.004l-.274-.324 4.56-3.438c2.278 1.864 4.518 3.828 6.704 5.867zm-15.997-12.784c2.495 1.693 4.94 3.485 7.341 5.372l-4.076 3.09-5.266-6.942 2.001-1.52zm-2.128-1.424l-1.342 1.013-2.673-3.518c1.348.808 2.687 1.638 4.015 2.505zm-3.274 2.481l-7.597 5.767-5.273-6.938 7.6-5.769 5.27 6.94zm-7.112-8.591l-7.224 5.487-5.27-6.94 3.642-2.761c2.984 1.284 5.94 2.683 8.852 4.214zm-11.419-5.317l-2.542 1.93-3.055-4.028c1.873.653 3.743 1.348 5.597 2.098zm-9.659-3.433l5.183 6.829-7.591 5.77-5.272-6.942 7.521-5.709.159.052zm-14.143-3.423c3.703.66 7.4 1.506 11.071 2.535l-6.075 4.613-5.274-6.941.278-.207zm3.061 8.615l-7.594 5.77-5.27-6.943 7.598-5.765 5.266 6.938zm-19.265-10.299c4.076.122 8.157.464 12.239 1.043l.288.382-7.597 5.766-5.265-6.941.335-.25zm3.001 8.662l-7.594 5.767-5.275-6.94 7.602-5.768 5.267 6.941zm-6.948-8.711l-7.385 5.604-3.743-4.932c3.685-.42 7.397-.648 11.128-.672zm-13.915 1.011l4.599 6.061-7.597 5.765-5.269-6.939 5.938-4.508c.776-.129 1.547-.265 2.329-.379zm-7.735 1.435l-1.994 1.521-.687-.902c.891-.223 1.784-.416 2.681-.619zm-5.197 1.32l1.261 1.668-7.593 5.767-3.19-4.205c3.119-1.248 6.295-2.322 9.522-3.23zm-11.841 4.172l3.562 4.629-7.615 5.63-.675-1.08h-.004l-4.009-5.095c2.839-1.588 5.778-2.806 8.741-4.084zm-10.865 5.492l.42.355h-.007l3.725 5.956-6.01 3.589-.018.08-1.635 2.118-4.604-6.698c2.591-1.909 5.409-3.787 8.129-5.4zm-9.865 6.799l5.253 6.91-7.599 5.767-4.896-6.451c2.282-2.182 4.708-4.252 7.242-6.226zm-8.968 7.969l4.696 6.18-7.6 5.765-3.577-4.714c2.02-2.511 4.192-4.919 6.481-7.231zm-8.034 9.206l3.195 4.208-7.591 5.765-1.267-1.668c1.738-2.861 3.625-5.631 5.663-8.305zm-7.012 10.544l.681.901-1.999 1.516c.432-.81.86-1.622 1.318-2.417zm-3.793 7.34l5.94-4.508 5.273 6.942-7.595 5.768-4.601-6.061c.312-.724.653-1.431.983-2.141zm-2.061 4.737l3.74 4.928-7.376 5.606c1.02-3.587 2.241-7.103 3.636-10.534zm-4.652 14.35l.338-.251 5.268 6.939-7.597 5.766-.288-.382c.537-4.087 1.301-8.115 2.279-12.072zm-2.727 16.059l.275-.203 5.27 6.936-6.077 4.617c-.011-3.815.172-7.601.532-11.35zm-.508 14.379l7.52-5.711 5.265 6.94-7.595 5.768-5.185-6.83-.005-.167zm.2 4.433l3.058 4.03-2.54 1.929c-.223-1.99-.39-3.977-.518-5.959zm.89 8.725l3.639-2.762 5.265 6.94-7.216 5.486c-.698-3.22-1.253-6.444-1.688-9.664zm10.393 5.179l5.288 7.153-7.556 4.095-3.925-7.28h-.005l-1.332.447 7.53-4.415zm-6.949 11.586l2.672 3.521-1.338 1.015c-.477-1.508-.915-3.02-1.334-4.536zm2.134 6.978l2.004-1.525 5.272 6.94-4.071 3.095c-1.178-2.818-2.242-5.655-3.205-8.51zm8.022 18.84c-1.384-2.652-2.651-5.33-3.833-8.029l4.552-3.462 5.273 6.943-5.992 4.548zm1.163 2.163l6.295-4.776 5.272 6.938-7.162 5.437c-1.568-2.502-3.021-5.041-4.405-7.599zm5.745 9.63l7.289-5.539 5.271 6.941-7.573 5.751c-1.757-2.349-3.41-4.738-4.987-7.153zm6.452 9.084l7.574-5.751 5.27 6.94-7.284 5.537c-1.905-2.168-3.765-4.404-5.56-6.726zm7.154 8.558l7.157-5.435 5.271 6.941-6.293 4.777c-2.089-2.022-4.146-4.102-6.135-6.283zm7.907 7.986l5.989-4.549 5.271 6.943-4.547 3.45c-2.282-1.863-4.526-3.803-6.713-5.844zm16.005 12.778c-2.492-1.694-4.943-3.481-7.343-5.366l4.063-3.086 5.273 6.939-1.993 1.513zm2.139 1.426l1.32-1.006 2.638 3.477c-1.329-.801-2.649-1.618-3.958-2.471zm3.253-2.475l7.595-5.765 5.272 6.943-7.594 5.766-5.273-6.944zm7.125 8.58l7.208-5.474 5.272 6.94-3.613 2.744c-2.993-1.283-5.947-2.678-8.867-4.21zm11.428 5.31l2.518-1.912 3.025 3.992c-1.854-.65-3.701-1.338-5.543-2.08zm9.829 3.486l-.226-.071-5.153-6.789 7.598-5.769 5.271 6.937-6.022 4.57-1.468 1.122zm13.985 3.36c-3.704-.66-7.398-1.5-11.075-2.53l6.043-4.589 1.799 2.372 3.472 4.568-.239.179zm2.168-1.646l-5.27-6.94 7.595-5.765 5.269 6.939-7.594 5.766zm14.05 3.32c-4.1-.114-8.21-.463-12.323-1.045l-.255-.339 7.595-5.771 5.267 6.943-.284.212zm-3.048-8.621l7.589-5.771 5.273 6.94-7.598 5.768-5.264-6.937zm7.005 8.668l7.325-5.56 3.71 4.888c-3.652.42-7.339.647-11.035.672zm13.826-1.014l-4.567-6.016 7.592-5.769 5.269 6.943-5.855 4.446c-.815.138-1.624.284-2.439.396zm7.857-1.462l1.905-1.452.653.859c-.848.217-1.701.401-2.558.593zm3.842-2.917l7.595-5.765 3.162 4.16c-3.127 1.25-6.302 2.321-9.525 3.229l-1.232-1.624zm74.067 40.209l-12.154 8.872c-8.605-7.031-29.109-21.94-57.788-30.942 13.89-3.515 27.109-9.702 38.975-18.716 11.873-9.009 21.38-20.086 28.502-32.522.967 30.043 9.821 53.803 14.286 63.976l-11.821 9.332zm341.412-176.543c.361 3.749.544 7.535.532 11.35l-6.075-4.617 5.267-6.936.276.203zm-213.619 86.545c-.354-.747-.708-1.489-1.041-2.243l4.566-6.019 7.602 5.771-5.273 6.939-5.854-4.448zm4.389 6.379l-.653.856c-.438-.761-.836-1.537-1.256-2.305l1.909 1.449zm128.004 9.795l-7.849-5.671 5.251-6.924 6.006 4.538 1.865 1.115-3.972 5.538v-.007l-1.301 1.411zm-127.689-31.035l-1.328 2.76-3.015-2.312v.068l-2.962-1.936-1.941-1.311 5.252-7.1 7.562 5.651-3.574 4.181h.007v-.001zm39.039-103.948l6.734 5.692-5.493 6.818-6.829-5.412.371-.385 1.836-.385v.003l3.381-6.331zm107.661 93.583l5.262-6.796 7.605 5.911-5.123 6.907-.137-.181-.153-.479h.005l-7.459-5.362zm-104.267-77.63l6.216 5.718-5.475 6.697-4.97-4.308.131-.005-1.122-1.562 3.444-1.647v.003l1.776-4.896zm.822 16.377l7.565 5.765-5.293 6.943-3.203-2.425v.004l-4.35-3.347 2.683-3.453v.003l2.598-3.49zm105.13-4.059l-5.27 6.941-7.598-5.77 5.271-6.938 7.597 5.767zm-6.126-7.698l5.271-6.942 7.594 5.767-5.269 6.942-7.596-5.767zm-7.346 25.443l-5.268 6.942-7.601-5.767 5.273-6.943 7.596 5.768zm-6.13-7.701l5.271-6.942 7.597 5.77-5.268 6.94-7.6-5.768zm-8.665 7.405l-7.602-5.765 5.272-6.94 7.599 5.765-5.269 6.94zm-1.469 1.932l-5.273 6.94-7.596-5.765 5.271-6.942 7.598 5.767zm-6.741 8.876l-5.267 6.941-7.595-5.768 5.267-6.944 7.595 5.771zm-8.067-9.17l-7.593-5.765 5.271-6.942 7.595 5.767-5.273 6.94zm-1.46 1.933l-5.275 6.94-7.596-5.766 5.276-6.943 7.595 5.769zm-6.74 8.872l-5.273 6.945-7.593-5.771 5.271-6.941 7.595 5.767zm-8.062-9.164l-7.595-5.768 5.273-6.94 7.595 5.765-5.273 6.943zm-1.464 1.932l-5.273 6.938-7.596-5.771 5.273-6.936 7.596 5.769zm-6.734 8.87l-5.271 6.939-7.596-5.767 5.273-6.939 7.594 5.767zm-14.798-.293l-7.601-5.769 5.27-6.94 7.595 5.769-5.264 6.94zm-1.471 1.932l-5.27 6.938-7.598-5.769 5.27-6.939 7.598 5.77zm-6.732 8.873l-5.275 6.939-7.593-5.765 5.268-6.94 7.6 5.766zm1.931 1.468l7.596 5.769-5.271 6.938-7.599-5.767 5.274-6.94zm1.465-1.933l5.267-6.94 7.601 5.767-5.27 6.943-7.598-5.77zm14.798.295l7.598 5.767-5.269 6.939-7.6-5.767 5.271-6.939zm1.465-1.934l5.273-6.939 7.595 5.77-5.271 6.937-7.597-5.768zm14.797.297l7.595 5.768-5.267 6.938-7.595-5.769 5.267-6.937zm1.472-1.933l5.266-6.939 7.594 5.765-5.265 6.939-7.595-5.765zm14.795.297l7.595 5.765-5.268 6.94-7.596-5.765 5.269-6.94zm1.467-1.936l5.278-6.939 7.594 5.763-5.271 6.942-7.601-5.766zm6.734-8.873l5.273-6.94 7.597 5.767-5.266 6.939-7.604-5.766zm14.8.297l7.598 5.765-5.267 6.94-7.598-5.766 5.267-6.939zm1.472-1.933l5.271-6.94 7.593 5.767-5.264 6.938-7.6-5.765zm6.741-8.874l5.264-6.942 7.595 5.768-5.271 6.938-7.588-5.764zm-4.73-17.574l-7.595-5.767 5.269-6.94 7.6 5.767-5.274 6.94zm-1.464 1.931l-5.273 6.94-7.595-5.767 5.272-6.938 7.596 5.765zm-14.795-.292l-7.604-5.767 5.277-6.942 7.593 5.765-5.266 6.944zm-1.475 1.929l-5.271 6.94-7.593-5.765 5.272-6.941 7.592 5.766zm-14.797-.292l-7.593-5.769 5.271-6.941 7.595 5.765-5.273 6.945zm-1.465 1.93l-5.269 6.943-7.601-5.77 5.273-6.938 7.597 5.765zm-14.798-.295l-7.596-5.767 5.27-6.94 7.595 5.767-5.269 6.94zm-1.469 1.933l-5.269 6.941-7.596-5.768 5.265-6.941 7.6 5.768zm-6.737 8.875l-5.266 6.938-7.601-5.767 5.27-6.94 7.597 5.769zm-14.794-.298l-7.598-5.765 5.269-6.94 7.593 5.767-5.264 6.938zm-1.474 1.934l-5.27 6.94-7.597-5.77 5.273-6.938 7.594 5.768zm-6.735 8.871l-5.271 6.941-7.598-5.767 5.273-6.941 7.596 5.767zm-6.735 8.875l-5.273 6.943-7.6-5.769 5.273-6.943 7.6 5.769zm-4.811 10.341l7.598 5.765-5.273 6.939-7.588-5.765 5.263-6.939zm.863 14.638l-5.272 6.942-7.596-5.769 5.269-6.941 7.599 5.768zm1.933 1.467l7.596 5.77-5.271 6.94-7.596-5.767 5.271-6.943zm1.468-1.93l5.271-6.939 7.596 5.767-5.271 6.939-7.596-5.767zm14.8.295l7.596 5.767-5.274 6.94-7.593-5.767 5.271-6.94zm1.465-1.934l5.266-6.938 7.604 5.767-5.273 6.941-7.597-5.77zm14.797.295l7.598 5.767-5.271 6.942-7.6-5.769 5.273-6.94zm1.465-1.933l5.27-6.941 7.595 5.769-5.267 6.939-7.598-5.767zm14.795.298l7.6 5.765-5.271 6.941-7.596-5.768 5.267-6.938zm1.469-1.934l5.273-6.942 7.593 5.766-5.268 6.943-7.598-5.767zm14.803.297l7.595 5.765-5.272 6.941-7.596-5.767 5.273-6.939zm1.465-1.937l5.271-6.94 7.599 5.769-5.27 6.938-7.6-5.767zm6.735-8.872l5.273-6.938 7.596 5.764-5.267 6.941-7.602-5.767zm14.805.297l7.591 5.763-5.267 6.943-7.598-5.77 5.274-6.936zm1.465-1.937l5.267-6.939 7.596 5.771-5.265 6.938-7.598-5.77zm6.739-8.869l5.266-6.941 7.596 5.768-5.267 6.94-7.595-5.767zm6.74-8.875l5.264-6.942 7.596 5.77-5.267 6.94-7.593-5.768zm4.8-10.341l-7.596-5.767 5.267-6.941 7.598 5.768-5.269 6.94zm3.887-11.038l-4.748-3.601 5.273-6.938.327.247 7.264 5.52-5.27 6.94-2.846-2.168zm1.393-14.125l-1.284.903-7.616-6.128 6.345-7.122 5.288 3.026v-.003l2.291 3.289-4.918 6.037h-.105v-.002zm-10.861-7.05l-7.596-5.771 5.274-6.939 7.588 5.767-5.266 6.943zm-1.465 1.933l-5.273 6.942-7.596-5.768 5.271-6.942 7.598 5.768zm-14.802-.298l-7.596-5.767 5.271-6.94 7.593 5.765-5.268 6.942zm-1.467 1.934l-5.267 6.939-7.6-5.765 5.271-6.943 7.596 5.769zm-14.798-.296l-7.598-5.765 5.27-6.942 7.597 5.767-5.269 6.94zm-1.465 1.934l-5.275 6.943-7.591-5.771 5.269-6.938 7.597 5.766zm-14.799-.297l-7.598-5.763 5.271-6.945 7.598 5.77-5.271 6.938zm-1.465 1.93l-5.271 6.945-7.596-5.769 5.273-6.941 7.594 5.765zm-14.801-.292l-7.598-5.767 5.271-6.94 7.593 5.767-5.266 6.94zm-1.468 1.934l-5.27 6.942-7.592-5.769 5.266-6.94 7.596 5.767zm-6.739 8.874l-5.27 6.94-7.595-5.768 5.269-6.943 7.596 5.771zm-14.797-.296l-7.596-5.767 5.267-6.94 7.6 5.768-5.271 6.939zm-1.465 1.932l-5.273 6.943-7.595-5.767 5.268-6.943 7.6 5.767zm-15.863 14.725h-.004l2.393 2.418-5.425 7.242-2.977-1.957v.058l-4.617-3.567 5.343-7.544 5.287 3.35zm-4.352 11.893l-5.273 6.943-3.366-2.563-4.227-3.207 5.269-6.94 7.597 5.767zm-4.805 10.343l7.595 5.766-5.273 6.941-7.592-5.765 5.27-6.942zm.857 14.637l-5.268 6.943-7.597-5.766 5.274-6.938 7.591 5.761zm-4.807 10.344l7.6 5.769-5.269 6.937-7.593-5.771 5.262-6.935zm.864 14.639l-5.273 6.943-7.594-5.769 5.267-6.939 7.6 5.765zm1.931 1.465l7.594 5.772-5.269 6.936-7.596-5.765 5.271-6.943zm4.3-.447v.005l-2.397-1.489 5.051-6.938 7.486 5.771-2.227 3.148-2.715 3.79-5.198-4.287zm10.559.663l1.403-1.851 7.601 5.767-5.271 6.939-7.595-5.765 3.862-5.09zm8.5.488l-5.624-4.271 5.266-6.939 7.6 5.765-4.267 5.616-1.007 1.329-1.968-1.5zm9.173-3.977l7.595 5.769-5.271 6.938-7.596-5.765 5.272-6.942zm1.465-1.93l5.271-6.943 7.592 5.771-5.265 6.939-7.598-5.767zm14.793.293l7.603 5.767-5.273 6.938-7.593-5.768 5.263-6.937zm1.465-1.935l5.275-6.942 7.601 5.771-5.273 6.938-7.603-5.767zm14.809.295l7.588 5.771-5.26 6.939-7.598-5.763 5.27-6.947zm1.462-1.933l5.273-6.938 7.591 5.767-5.264 6.94-7.6-5.769zm14.802.297l7.596 5.767-5.271 6.942-7.595-5.771 5.27-6.938zm1.468-1.932l5.271-6.943 7.596 5.769-5.273 6.939-7.594-5.765zm6.74-8.877l5.269-6.937 7.598 5.763-5.272 6.943-7.595-5.769zm14.798.299l7.595 5.769-5.272 6.938-7.591-5.767 5.268-6.94zm1.462-1.934l5.271-6.938 7.604 5.769-5.277 6.938-7.598-5.769zm6.741-8.871l5.267-6.94 7.593 5.767-5.27 6.941-7.59-5.768zm6.736-8.874l5.271-6.939 7.591 5.767-5.264 6.939-7.598-5.767zm6.739-8.873l5.267-6.943 7.598 5.771-5.27 6.939-7.595-5.767zm4.799-10.34l-7.593-5.767 5.264-6.935.009-.008 7.592 5.77-.213.281-5.059 6.659zm-.854-14.641l5.272-6.94 7.592 5.769-5.27 6.941-7.594-5.77zm4.802-10.341l-7.595-5.767 5.271-6.943 7.596 5.771-5.272 6.939zm-.855-14.642l5.271-6.938 7.597 5.768-5.275 6.942-7.593-5.772zm-1.93-1.465l-4.607-3.499-2.991-2.269 3.57-4.698 1.702-2.239 7.598 5.767-5.272 6.938zm-9.528-7.234l-7.602-5.769 5.269-6.94 7.601 5.767-5.268 6.942zm-9.53-7.233l-7.596-5.77 5.273-6.94 7.59 5.767-5.267 6.943zm-1.468 1.929l-5.267 6.938-7.602-5.765 5.273-6.943 7.596 5.77zm-14.798-.296l-7.598-5.765 5.273-6.942 7.593 5.767-5.268 6.94zm-1.468 1.933l-5.273 6.942-7.593-5.768 5.272-6.941 7.594 5.767zm-14.8-.293l-7.593-5.769 5.271-6.94 3.132 2.377 4.466 3.388-5.276 6.944zm-1.463 1.932l-5.273 6.94-7.595-5.768 5.268-6.941 7.6 5.769zm-11.286-2.264v.007l-2.496 1.959-8.61-5.767 5.262-6.94 8.61 5.768-2.766 4.973zm-4.984 3.902l-5.271 6.94-7.594-5.767 5.273-6.942 7.592 5.769zm-14.795-.293l-7.598-5.771 4.229-5.57 1.042-1.37 7.594 5.767-5.267 6.944zm-1.467 1.929l-5.271 6.942-7.596-5.769 5.269-6.94 7.598 5.767zm-6.736 8.874l-5.276 6.943-7.59-5.769 5.264-6.943 7.602 5.769zm-14.802-.293l-7.598-5.77 5.272-6.938 7.599 5.765-5.273 6.943zm-1.467 1.935l-5.271 6.935-7.596-5.765 5.271-6.94 7.596 5.77zm-15.992 15.831l2.517 1.91-5.266 6.94-7.598-5.767 5.271-6.941 5.076 3.858zm-4.223 10.783l-5.264 6.942-7.601-5.767 5.271-6.942 7.594 5.767zm-6.734 8.877l-5.273 6.94-7.589-5.767 5.264-6.942 7.598 5.769zm-4.806 10.339l4.102 3.115 3.496 2.649-5.27 6.943-3.92-2.979-3.675-2.789 5.267-6.939zm-3.18 11.569l4.043 3.07-5.273 6.939-7.595-5.77 5.269-6.938 3.556 2.699zm-.768 13.41l7.598 5.765-5.267 6.943-7.601-5.771 5.27-6.937zm.863 14.641l-5.271 6.941-7.601-5.769 5.27-6.938 7.602 5.766zm-4.812 10.342l7.598 5.768-5.266 6.938-7.596-5.768 5.264-6.938zm9.528 7.234l7.602 5.769-5.271 6.935-7.598-5.763 5.267-6.941zm9.531 7.235l7.597 5.765-5.271 6.939-7.59-5.765 5.264-6.939zm1.467-1.93l5.269-6.944 7.601 5.767-5.27 6.941-7.6-5.764zm14.801.292l7.596 5.765-5.273 6.941-7.595-5.765 5.272-6.941zm1.465-1.934l5.273-6.942 7.593 5.77-5.268 6.938-7.598-5.766zm14.8.297l7.591 5.767-5.267 6.94-7.597-5.767 5.273-6.94zm1.465-1.934l5.271-6.942 7.596 5.77-3.268 4.304-2.002 2.637-7.597-5.769zm10.957 5.361l3.844-5.068 7.598 5.773-5.271 6.939-2.849-2.168v.002l-4.747-3.604 1.425-1.874zm5.313-6.999l5.27-6.939 7.597 5.767-5.273 6.943-7.594-5.771zm14.794.293l7.601 5.77-5.273 6.94-7.598-5.767 5.27-6.943zm1.468-1.933l5.271-6.939 7.594 5.768-5.265 6.942-7.6-5.771zm14.8.296l7.593 5.768-5.267 6.94-7.598-5.765 5.272-6.943zm1.468-1.931l5.272-6.94 7.591 5.766-5.267 6.939-7.596-5.765zm6.74-8.874l5.271-6.943 7.593 5.766-5.272 6.943-7.592-5.766zm14.792.296l.919.696 6.679 5.07-5.271 6.941-4.697-3.568-2.896-2.201 5.266-6.938zm1.47-1.933l5.27-6.94 7.597 5.767-5.271 6.942-7.596-5.769zm13.474-17.746l5.267-6.943 7.598 5.77-5.267 6.94-7.598-5.767zm6.739-8.875l5.266-6.941 7.596 5.769-5.268 6.941-7.594-5.769zm6.736-8.871l5.268-6.943 7.596 5.77-5.268 6.94-7.596-5.767zm4.803-10.341l-7.602-6.07 4.998-6.896h-.004l.272-.044 7.601 5.917-.471.705-4.794 6.388zm-.854-14.639l5.268-6.94 7.595 5.765-5.267 6.94-7.596-5.765zm4.803-10.34l-7.596-5.768 5.274-6.941 7.591 5.767-5.269 6.942zm-.858-14.643l5.271-6.938 7.593 5.765-5.269 6.938-7.595-5.765zm4.805-10.34l-7.595-5.765 5.265-6.941 7.6 5.767-5.27 6.939zm-9.527-7.233l-7.598-5.769 5.271-6.943 7.6 5.77-5.273 6.942zm-9.534-7.237l-7.593-5.769 5.271-6.939 2.459 1.868v-.001l5.14 3.902-5.277 6.939zm-9.525-7.235l-7.593-5.767 5.269-6.94 7.595 5.767-5.271 6.94zm-10.369-7.233l-4.341-2.934 1.019-.945-2.305-.112.688.652-2.702-1.825.046-.604 5.686-6.94 8.019 5.769-6.11 6.939zm-4.426-2.852l4.98 4.723-5.715 6.952-5.509-5.88 6.244-5.795zm-11.004 4.185l-.52-.697h-.003l-7.074-5.071 5.283-6.633 7.592 5.77-5.278 6.631zm-2.513 1.125l1.138 1.015-5.312 6.99-7.613-5.745 5.342-7.018 6.445 4.758zm-13.745.815l-7.594-5.767 5.265-6.938 7.593 5.764-5.264 6.941zm-1.465 1.933l-5.273 6.943-7.594-5.768 5.27-6.94 7.597 5.765zm-14.801-.293l-7.592-5.765 5.268-6.943 7.594 5.765-5.27 6.943zm-1.469 1.933l-5.27 6.938-7.592-5.765 5.268-6.942 7.594 5.769zm-14.798-.298l-7.595-5.768 5.266-6.938 7.601 5.768-5.272 6.938zm-1.466 1.937l-1.419 1.865-3.853 5.075-7.595-5.77 2.367-3.113 2.903-3.825 7.597 5.768zm-6.737 8.87l-5.273 6.942-7.593-5.768 5.271-6.941 7.595 5.767zm-14.798-.296l-7.598-5.767 5.267-6.941 7.6 5.77-5.269 6.938zm-1.468 1.937l-5.27 6.94-7.595-5.768 5.267-6.94 7.598 5.768zm-17.786 14.47l4.313 3.275-5.272 6.941-7.596-5.77 5.273-6.94 3.282 2.494zm-2.425 12.146l-5.272 6.94-7.596-5.767 5.273-6.94 7.595 5.767zm-6.736 8.873l-5.273 6.943-7.594-5.765 5.27-6.943 7.597 5.765zm-6.743 8.875l-5.262 6.938-7.601-5.767 5.27-6.939 7.593 5.768zm-4.803 10.339l7.598 5.766-5.271 6.942-7.591-5.767 5.264-6.941zm.86 14.642l-5.269 6.938-7.598-5.769 5.269-6.939 7.598 5.77zm-4.805 10.339l3.005 2.279v.001l4.593 3.484-5.271 6.94-5.025-3.813-2.572-1.955 5.27-6.936zm-4.286 10.736l5.137 3.904-5.265 6.94-5.571-4.233-2.024-1.533 5.267-6.943 2.456 1.865zm.334 14.241l7.595 5.77-5.267 6.938-7.595-5.767 5.267-6.941zm2.793 16.111l7.598 5.767-5.273 6.939-7.596-5.767 5.271-6.939zm9.528 7.237l7.599 5.765-5.273 6.943-7.596-5.771 5.27-6.937zm9.522 7.232l7.604 5.767-5.273 6.942-7.594-5.767 5.263-6.942zm9.536 7.237l7.598 5.77-5.269 6.936-7.598-5.765 5.269-6.941zm1.468-1.933l5.269-6.941 7.6 5.765-5.266 6.943-7.603-5.767zm14.797.293l7.594 5.769-5.267 6.938-7.598-5.769 5.271-6.938zm1.467-1.932l5.271-6.94 7.594 5.768-5.27 6.943-7.595-5.771zm14.797.294l7.596 5.77-5.267 6.94-7.598-5.767 5.269-6.943zm1.47-1.932l5.269-6.941 7.596 5.771-5.267 6.938-7.598-5.768zm14.801.297l7.592 5.767-2.246 2.959-3.024 3.983-7.595-5.769 5.273-6.94zm1.465-1.934l5.271-6.941 7.6 5.769-5.277 6.939-7.594-5.767zm14.794.298l7.597 5.765-5.272 6.943-7.589-5.77 5.267-6.938h-.003zm1.469-1.934l5.273-6.942 7.594 5.767-5.27 6.94-7.597-5.765zm14.801.295l7.598 5.763-5.273 6.941-7.596-5.768 5.271-6.936zm13.63-6.688l-5.425-4.119 5.269-6.939 7.595 5.765-5.268 6.94-2.171-1.647zm9.373-3.825l7.593 5.767-5.273 6.942-7.594-5.766 5.274-6.943zm1.464-1.935l5.267-6.938 7.601 5.768-5.273 6.94-7.595-5.77zm6.741-8.868l5.266-6.942 7.599 5.769-5.27 6.943-7.595-5.77zm6.738-8.874l5.266-6.943 3.652 2.771 3.943 2.995-5.268 6.943-7.593-5.766zm6.732-8.877l5.272-6.94 7.596 5.771-3.104 4.089-2.165 2.847-7.599-5.767zm6.741-8.868l5.268-6.941 7.603 5.769-5.275 6.939-7.596-5.767zm6.742-8.873l5.264-6.943 7.594 5.766-5.265 6.942-7.593-5.765zm4.801-10.341l-7.62-5.697 4.71-6.172h-.003l.562-.768 7.604 5.732-5.253 6.905zm-.859-14.641l5.271-6.94 7.595 5.767-5.271 6.94-7.595-5.767zm4.808-10.34l-7.6-5.767 5.271-6.941 7.599 5.766-5.27 6.942zm-.861-14.642l5.269-6.938 7.601 5.764-5.27 6.945-7.6-5.771zm6.738-8.871l5.269-6.943 7.598 5.769-5.271 6.94-7.596-5.766zm-1.932-1.47l-7.596-5.766 5.268-6.942 7.6 5.768-5.272 6.94zm-2.791-16.106l-7.597-5.765 5.267-6.94 7.598 5.767-5.268 6.938zm-9.53-7.238l-7.591-5.765 5.264-6.943 7.601 5.77-5.274 6.938zm-9.524-7.235l-7.602-5.765 5.273-6.94 7.598 5.764-5.269 6.941zm-3.288-12.366v-.005l-4.968 5.059-8.333-5.733 5.121-6.91 8.558 5.693-.378 1.896zm-15.768-2.1l-3.557-2.699-4.043-3.072 5.269-6.94 7.595 5.767-5.264 6.944zm-9.535-7.238l-7.593-5.765 5.272-6.943 7.589 5.77-5.268 6.938zm-1.463 1.936l-5.269 6.939-7.598-5.77 5.271-6.94 7.596 5.771zm-14.8-.3l-7.591-5.768 5.267-6.938 7.598 5.765-5.274 6.941zm-1.463 1.934l-5.272 6.94-7.598-5.765 5.271-6.94 7.599 5.765zm-14.799-.292l-7.6-5.768 5.271-6.94 7.599 5.765-5.27 6.943zm-1.472 1.933l-5.267 6.937-7.597-5.765 5.272-6.938 7.592 5.766zm-14.795-.297l-7.593-5.769 5.269-6.94 7.598 5.765-5.274 6.944zm-1.465 1.934l-5.273 6.941-7.593-5.768 5.269-6.937 7.597 5.764zm-14.803-.295l-7.593-5.768 5.27-6.942 7.595 5.77-5.272 6.94zm-1.463 1.931l-5.271 6.942-7.596-5.77 5.264-6.94 7.603 5.768zm-6.758 8.677l-5.289 6.912-7.627-6.131.431-1.197h-.001l4.827-5.762 7.659 6.178zm-14.779-.102l-7.595-5.765 5.268-6.94 7.598 5.768-5.271 6.937zm-1.464 1.937l-5.273 6.941-7.598-5.767 5.273-6.941 7.598 5.767zm-6.737 8.87l-5.273 6.943-7.6-5.769 5.273-6.94 7.6 5.766zm-12.643 4.205l7.703 4.504-1.829 4.617v.003l-3.438 2.319-8.711-5.647 4.68-6.91 1.595 1.114zm-.838 13.542l-5.266 6.943-7.599-5.767 5.27-6.942 7.595 5.766zm-6.738 8.875l-5.27 6.937-7.596-5.767 5.273-6.937 7.593 5.767zm-6.736 8.874l-5.27 6.938-7.592-5.763 5.268-6.943 7.594 5.768zm-6.736 8.871l-5.271 6.941-7.595-5.766 5.271-6.94 7.595 5.765zm-4.81 10.341l7.604 5.765-5.273 6.94-7.598-5.768 5.267-6.937zm.863 14.643l-5.27 6.939-7.598-5.771 5.27-6.938 7.598 5.77zm-4.808 10.337l7.596 5.767-5.265 6.942-7.602-5.77 5.271-6.939zm.857 14.642l-5.27 6.939-7.598-5.77 5.271-6.937 7.597 5.768zm-6.736 8.873l-5.266 6.94-.283-.219c-.991-3.979-1.761-8.035-2.306-12.15l.257-.341 7.598 5.77zm2.791 16.109l-3.714 4.885c-1.384-3.406-2.59-6.892-3.615-10.45l7.329 5.565zm4.729 17.572l7.591 5.768-3.159 4.164c-2.042-2.67-3.927-5.443-5.672-8.303l1.24-1.629zm9.524 7.236l7.595 5.767-4.658 6.134c-2.295-2.311-4.46-4.719-6.484-7.229l3.547-4.672zm9.528 7.234l7.596 5.767-5.215 6.876c-2.534-1.979-4.966-4.047-7.247-6.23l4.866-6.413zm9.528 7.238l7.598 5.767-4.866 6.413c-2.718-1.615-5.363-3.398-7.947-5.31l5.215-6.87zm9.526 7.234l7.597 5.767-3.545 4.673c-2.963-1.277-5.866-2.715-8.711-4.307l4.659-6.133zm1.469-1.93l5.269-6.944 7.594 5.767-5.27 6.939-7.593-5.762zm14.8.29l7.598 5.769-5.273 6.939-7.598-5.768 5.273-6.94zm1.464-1.933l5.273-6.938 7.591 5.767-5.264 6.939-7.6-5.768zm14.801.299l7.592 5.767-5.266 6.941-7.593-5.771 5.267-6.937zm1.465-1.936l5.273-6.943 7.595 5.771-5.271 6.939-7.597-5.767zm14.799.294l7.594 5.77-5.267 6.942-7.598-5.768 5.271-6.944zm1.468-1.931l5.271-6.938 7.594 5.766-5.269 6.939-7.596-5.767zm14.796.295l7.603 5.768-5.277 6.94-7.593-5.769 5.267-6.939zm1.47-1.93l5.269-6.942 7.596 5.767-5.273 6.94-7.592-5.765zm14.796.291l1.504 1.146v-.002l6.089 4.624-5.27 6.939-4.108-3.116-3.484-2.65 5.269-6.941zm2.427-1.205l-.963-.729 5.273-6.94 7.594 5.769-5.27 6.941-6.634-5.041zm5.776-9.599l5.273-6.943 7.593 5.771-5.27 6.938-7.596-5.766zm14.804.293l7.593 5.768-5.269 6.939-7.598-5.764 5.274-6.943zm1.468-1.931l5.264-6.94 7.6 5.769-5.272 6.941-7.592-5.77zm6.738-8.875l5.264-6.937 7.603 5.767-5.273 6.94-7.594-5.77zm6.734-8.873l5.268-6.938 7.601 5.767-5.273 6.94-7.596-5.769zm6.736-8.871l5.267-6.943 7.6 5.767-5.27 6.943-7.597-5.767zm6.821-8.209l4.012-4.521h.004l1.25-2.419 1.37.573 6.162 4.625-5.247 7.033-7.551-5.291zm6.66-9.539l5.266-6.939 7.596 5.768-5.271 6.938-7.591-5.767zm6.738-8.872l5.266-6.94 7.593 5.769-5.268 6.939-7.591-5.768zm4.8-10.342l-7.598-5.767 5.267-6.938 7.604 5.767-5.273 6.938zm-.856-14.64l5.264-6.94 7.6 5.769-5.273 6.94-7.591-5.769zm4.802-10.337l-7.598-5.769 5.271-6.94 7.597 5.763-5.27 6.946zm-.86-14.64l5.271-6.943 7.598 5.769-5.269 6.937-7.6-5.763zm12.346-15.561c.977 3.957 1.741 7.985 2.278 12.073l-.291.382-7.595-5.765 5.267-6.939.341.249zm-1.015-3.815l-7.381-5.607 3.743-4.929c1.397 3.432 2.618 6.947 3.638 10.536zm-4.713-13.132l-4.604 6.061-7.599-5.768 5.274-6.942 5.941 4.508c.334.711.674 1.418.988 2.141zm-4.777-9.48c.454.796.884 1.606 1.316 2.416l-1.998-1.516.682-.9zm-1.35-2.238l-1.266 1.668-7.595-5.765 3.195-4.208c2.037 2.673 3.923 5.443 5.666 8.305zm-7.216-10.282l-3.577 4.713-7.598-5.765 4.696-6.18c2.288 2.313 4.457 4.722 6.479 7.232zm-8.206-8.971l-4.897 6.451-7.6-5.767 5.253-6.91c2.534 1.972 4.961 4.042 7.244 6.226zm-17.103-13.866c2.717 1.615 5.535 3.96 8.118 5.873l-4.598 6.87-1.636-2.045-.017-.062-6.012-4.343 3.722-6.764.423.471zm-2.126-.568l-4.01 5.095h-.004l-.674 1.08-7.613-5.648 3.561-4.593c2.958 1.275 5.898 2.477 8.74 4.066zm-20.584-8.257c3.225.908 6.403 1.98 9.521 3.23l-3.188 4.205-7.595-5.767 1.262-1.668zm-2.517-.7l-.687.902-1.994-1.521c.896.202 1.79.394 2.681.619zm-8.09-1.674l5.938 4.507-5.267 6.94-7.595-5.765 4.597-6.061c.783.112 1.55.248 2.327.379zm-5.114-.719l-3.742 4.932-7.385-5.604c3.731.022 7.446.251 11.127.672zm-5.209 6.867l-5.27 6.94-7.598-5.767 5.269-6.941 7.599 5.768zm-22.105-6.447c4.08-.58 8.162-.921 12.239-1.043l.335.251-5.264 6.942-7.599-5.767.289-.383zm5.836 8.081l-5.264 6.943-7.599-5.77 5.269-6.938 7.594 5.765zm-9.795-7.442l.269.208-5.269 6.941-6.077-4.612c3.674-1.029 7.373-1.874 11.077-2.537zm-13.987 3.373l7.521 5.71-5.272 6.941-7.593-5.77 5.185-6.829.159-.052zm-4.222 1.386l-3.059 4.028-2.541-1.93c1.86-.75 3.725-1.445 5.6-2.098zm-8.164 3.2l3.643 2.761-5.272 6.94-7.225-5.487c2.914-1.53 5.869-2.929 8.854-4.214zm-3.095 11.635l-5.271 6.938-7.598-5.767 5.271-6.94 7.598 5.769zm-12.127-3.815l-2.674 3.518-1.343-1.013c1.329-.867 2.67-1.697 4.017-2.505zm-6.149 3.929l2.006 1.52-5.268 6.942-4.073-3.09c2.4-1.886 4.845-3.679 7.335-5.372zm-9.288 6.936l4.561 3.459-.277.363-.001-.001-4.994 6.575-5.999-4.548c2.193-2.039 4.429-3.983 6.71-5.848zm-8.479 7.55l6.299 4.78-5.269 6.943-7.161-5.437c1.984-2.186 4.044-4.261 6.131-6.286zm-7.726 8.12l7.287 5.537-5.271 6.938-7.568-5.75c1.788-2.32 3.646-4.553 5.552-6.725zm-7.02 8.656l7.572 5.754-5.272 6.937-7.286-5.531c1.575-2.419 3.232-4.809 4.986-7.16zm-6.324 9.192l7.154 5.432-5.269 6.943-6.285-4.778c1.383-2.558 2.832-5.098 4.4-7.597zm-5.567 9.762l5.989 4.545-5.276 6.94-4.545-3.452c1.186-2.7 2.456-5.381 3.832-8.033zm-4.814 10.332l4.062 3.085-5.266 6.94-1.996-1.51c.962-2.857 2.023-5.695 3.2-8.515zm-3.998 10.953l1.325 1.003-2.64 3.477c.411-1.495.846-2.99 1.315-4.48zm3.252 2.471l7.6 5.769-5.267 6.938-7.6-5.767 5.267-6.94zm-6.344 9.169l7.207 5.475-5.269 6.94-3.617-2.745c.435-3.223.989-6.45 1.679-9.67zm-2.041 12.438l2.506 1.91-3.023 3.983c.127-1.961.289-3.924.517-5.893zm-.713 10.164l5.152-6.789 7.595 5.771-5.267 6.939-7.489-5.688.009-.233zm6.017 7.852l-5.274 6.943-.231-.183c-.361-3.746-.54-7.535-.539-11.349l6.044 4.589zm3.62 140.814l-12.153-8.872-11.821-9.333c4.465-10.173 13.318-33.933 14.285-63.976 7.121 12.436 16.631 23.514 28.503 32.522 11.863 9.012 25.083 15.2 38.978 18.716-28.68 9.003-49.187 23.913-57.792 30.943zm60.684-47.453c-3.225-.911-6.4-1.982-9.525-3.23l3.158-4.163 7.602 5.769-1.235 1.624zm2.515.696l.649-.859 1.908 1.452c-.856-.192-1.712-.376-2.557-.593zm7.978 1.661l-5.859-4.446 5.27-6.943 7.593 5.769-4.566 6.016c-.817-.116-1.625-.26-2.438-.396zm5.227.732l3.714-4.886 7.324 5.56c-3.699-.023-7.385-.25-11.038-.674zm5.178-6.822l5.274-6.94 7.588 5.771-5.264 6.938-7.598-5.769zm22.134 6.406c-4.111.582-8.225.931-12.321 1.045l-.286-.213 5.27-6.943 7.598 5.772-.261.339zm-5.869-8.041l5.27-6.939 7.598 5.765-5.27 6.94-7.598-5.766zm9.761 7.411l-.237-.175 3.472-4.57 1.8-2.373 6.044 4.59c-3.677 1.029-7.369 1.872-11.079 2.528zm13.992-3.361l-1.468-1.12-6.022-4.57 5.269-6.937 7.6 5.769-5.153 6.787-.226.071zm4.285-1.407l3.022-3.991 2.52 1.911c-1.841.745-3.688 1.433-5.542 2.08zm8.107-3.176l-3.613-2.741 5.271-6.939 7.205 5.472c-2.919 1.527-5.875 2.924-8.863 4.208zm3.122-11.615l5.273-6.943 7.593 5.766-5.272 6.942-7.594-5.765zm12.161 3.77l2.642-3.477 1.32 1.006c-1.313.853-2.634 1.67-3.962 2.471zm6.094-3.897l-1.989-1.513 5.273-6.939 4.062 3.086c-2.398 1.884-4.853 3.672-7.346 5.366zm9.3-6.933l-4.551-3.451 5.267-6.943 5.99 4.55c-2.188 2.04-4.429 3.98-6.706 5.844zm8.479-7.548l-6.29-4.776 5.269-6.941 7.158 5.435c-1.99 2.18-4.043 4.26-6.137 6.282zm7.734-8.114l-7.287-5.537 5.271-6.94 7.573 5.751c-1.794 2.321-3.655 4.557-5.557 6.726zm7.026-8.657l-7.576-5.752 5.271-6.94 7.288 5.539c-1.577 2.414-3.232 4.802-4.983 7.153zm6.323-9.187l-7.16-5.437 5.271-6.938 6.295 4.777c-1.387 2.558-2.835 5.098-4.406 7.598zm5.568-9.761l-5.992-4.547 5.269-6.943 4.552 3.461c-1.179 2.7-2.45 5.378-3.829 8.029zm4.818-10.327l-4.071-3.096 5.271-6.939 2.004 1.524c-.96 2.854-2.032 5.691-3.204 8.511zm3.999-10.953l-1.335-1.016 2.671-3.52c-.417 1.515-.856 3.027-1.336 4.536zm.587-12.155h-.006l-3.923 7.472-7.556-4.67 5.287-6.389 7.53 3.842-1.332-.255zm1.361 5.391l.211-.815-.211.815zm1.149-4.875l-7.217-5.487 5.266-6.939 3.638 2.762c-.44 3.221-.99 6.445-1.687 9.664zm2.055-12.428l-2.538-1.928 3.059-4.03c-.13 1.98-.294 3.967-.521 5.958zm.715-10.227l-5.184 6.83-7.597-5.769 5.264-6.939 7.523 5.711-.006.167zm-72.095-72.676l-.004.003h.004v-.003z"/></g></svg>