<svg xmlns="http://www.w3.org/2000/svg" width="360" height="301.261" viewBox="0 0 360 301.261"><g opacity=".5"><g opacity=".5"><path fill="#00A057" d="M180 180.627c-22.774 0-41.302-19.24-41.302-42.892 0-23.651 18.528-42.895 41.302-42.895 22.772 0 41.301 19.243 41.301 42.895 0 23.652-18.528 42.892-41.301 42.892zm0-80.19c-19.689 0-35.707 16.731-35.707 37.298s16.018 37.298 35.707 37.298c19.688 0 35.707-16.731 35.707-37.298s-16.019-37.298-35.707-37.298zM180 171.668c-15.089 0-27.359-12.763-27.359-28.447 0-15.687 12.27-28.448 27.359-28.448 15.087 0 27.357 12.762 27.357 28.448.001 15.684-12.27 28.447-27.357 28.447zm0-54.857c-13.963 0-25.32 11.847-25.32 26.41 0 14.562 11.357 26.409 25.32 26.409 13.962 0 25.319-11.848 25.319-26.409.001-14.564-11.357-26.41-25.319-26.41zM204.679 168.645c-8.17-8.165-12.669-19.142-12.669-30.91 0-11.77 4.499-22.747 12.669-30.91l3.954 3.958c-7.111 7.106-11.027 16.678-11.027 26.953 0 10.273 3.916 19.847 11.027 26.955l-3.954 3.954zM155.319 168.645l-3.954-3.955c7.11-7.107 11.027-16.681 11.027-26.955 0-10.276-3.917-19.847-11.027-26.952l3.954-3.958c8.169 8.161 12.67 19.139 12.67 30.91.001 11.767-4.499 22.746-12.67 30.91zM155.319 168.645l-3.954-3.955c7.11-7.107 11.027-16.681 11.027-26.955 0-10.276-3.917-19.847-11.027-26.952l3.954-3.958c8.169 8.161 12.67 19.139 12.67 30.91.001 11.767-4.499 22.746-12.67 30.91zM204.679 168.645c-8.17-8.165-12.669-19.142-12.669-30.91 0-11.77 4.499-22.747 12.669-30.91l3.954 3.958c-7.111 7.106-11.027 16.678-11.027 26.953 0 10.273 3.916 19.847 11.027 26.955l-3.954 3.954zM180 225.969c-45.628 0-82.751-37.121-82.751-82.748 0-45.628 37.123-82.75 82.751-82.75 45.628 0 82.749 37.122 82.749 82.75.001 45.627-37.121 82.748-82.749 82.748zm0-163.459c-44.503 0-80.711 36.206-80.711 80.71 0 44.502 36.208 80.706 80.711 80.706s80.71-36.204 80.71-80.706c0-44.504-36.207-80.71-80.71-80.71zM180 230.812c-48.299 0-87.594-39.295-87.594-87.591 0-48.299 39.295-87.593 87.594-87.593 48.299 0 87.593 39.293 87.593 87.593 0 48.296-39.294 87.591-87.593 87.591zm0-173.026c-47.109 0-85.433 38.326-85.433 85.435 0 47.106 38.323 85.432 85.433 85.432 47.108 0 85.435-38.325 85.435-85.432 0-47.109-38.326-85.435-85.435-85.435zM91.432 255.092l36.056-101.696-81.071-58.686h101.88l31.711-89.438 31.493 89.438h102.101l-81.407 58.766 35.785 101.615-88.153-63.812-88.395 63.813zm93.075-67.193l72.467 52.453-29.415-83.53-43.052 31.077zm-52.388-31.151l-29.644 83.604 72.672-52.461-43.028-31.143zm1.911-5.389l45.8 33.15 45.828-33.082-18.038-51.232h-55.449l-18.141 51.164zm79.403-51.164l16.863 47.887 66.337-47.887h-83.2zm-150.086 0l66.054 47.812 16.952-47.812h-83.006zm90.769-5.485h51.57l-25.694-72.974-25.876 72.974zM180 286.439c-78.975 0-143.222-64.248-143.222-143.219.001-78.972 64.248-143.22 143.222-143.22s143.221 64.248 143.221 143.221c0 78.97-64.247 143.218-143.221 143.218zm0-280.954c-75.95 0-137.736 61.788-137.736 137.736 0 75.947 61.786 137.732 137.736 137.732 75.948 0 137.735-61.785 137.735-137.732.001-75.949-61.786-137.736-137.735-137.736zM180 277.569c-74.081 0-134.352-60.271-134.352-134.349 0-74.082 60.272-134.35 134.352-134.35 74.08 0 134.349 60.268 134.349 134.351 0 74.078-60.268 134.348-134.349 134.348zm0-263.552c-71.244 0-129.204 57.96-129.204 129.204 0 71.242 57.96 129.202 129.204 129.202 71.243 0 129.203-57.96 129.203-129.202.001-71.244-57.959-129.204-129.203-129.204zM103.896 206.193c.059.082.083.159.043.188l-14.314 10.278c-.198.145-1.467-.648-1.819-1.139l-.05-.151 1.173-7.255-6.356-1.104c-.303.002-1.373-.687-1.699-1.136-.059-.082-.08-.157-.041-.186l14.312-10.278c.162-.115 1.453.628 1.82 1.14.059.081.083.157.042.186l-13.148 9.444 5.317.888c.412.107 1.448.789 1.71 1.156l.05.15-.835 5.31 11.986-8.608c.124-.089 1.37.504 1.809 1.117zM92.943 189.434c.047.091.06.167.015.191l-7.794 4.055c-.482 2.122-.998 4.236-1.633 6.437l-.009.033c-.197.103-1.364-.909-1.609-1.377l-.058-.168c.358-1.233.672-2.503.966-3.705l-5.498 2.859c-.175.091-1.337-.807-1.639-1.387-.044-.09-.062-.168-.016-.19l7.795-4.056 1.459-6.289.031-.044c.243-.125 1.388.951 1.617 1.397l.026.158-.832 3.582 5.538-2.884c.154-.079 1.315.764 1.641 1.388zM84.031 170.601l.013-.03c.23-.086 1.259 1.029 1.456 1.548.035.096.03.15.016.184-1.17 3.398-2.701 7.04-3.784 10.458l6.1-2.297c.208-.08 1.267 1.054 1.455 1.548.043.119.038.172-.01.19l-16.493 6.214c-.207.079-1.268-1.055-1.454-1.548-.036-.093-.04-.173.006-.191l8.225-3.1c.959-4.098 2.922-8.547 4.47-12.976zM75.693 170.264l8.107-1.758c.168-.037 1.067 1.08 1.219 1.769.021.098.011.178-.038.188l-17.224 3.733c-.219.048-1.077-1.104-1.219-1.768-.022-.1-.013-.179.034-.188l2.149-.464c2.158-3.326 3.193-6.46 4.894-9.687l-8.105 1.758c-.217.047-1.098-1.229-1.212-1.744-.022-.1-.013-.179.035-.188l17.225-3.734c.171-.037 1.071 1.08 1.214 1.744.022.098.013.178-.036.188l-2.148.466c-2.128 3.344-3.157 6.4-4.895 9.685zm2.242-9.111l-1.641.357c-2.128 3.344-3.182 6.402-4.92 9.688l1.641-.354c1.346-2.068 2.246-4.092 3.179-6.071.55-1.199 1.096-2.398 1.741-3.62zM68.858 147.322c.246-.021.928 1.362.97 1.891l-.038.154c-.731 1.044-1.537 2.118-2.467 3.178l-.771.895 2.756-.224c2.115-2.037 3.871-4.223 5.381-6.365l.026-.002c.246-.02.928 1.363.969 1.89l-.037.155c-.733 1.044-1.537 2.12-2.469 3.179l-.77.894 8.638-.696c.172-.015.917 1.237.977 1.939.01.126-.013.178-.061.182l-17.569 1.421c-.197.015-.903-1.368-.95-1.919l.013-.152c2.08-2.161 3.843-4.248 5.376-6.416l.026-.004zM81.469 141.73c-.004.101-.032.177-.078.176l-8.789-.213c-1.446 1.626-2.915 3.227-4.536 4.849l-.026.025c-.223-.006-.754-1.453-.74-1.982l.03-.176c.909-.908 1.795-1.867 2.632-2.78l-6.193-.149c-.199-.004-.782-1.351-.768-2.008.003-.099.032-.173.08-.173l8.784.213 4.317-4.804.048-.023c.271.007.755 1.503.741 2.005l-.052.15-2.462 2.734 6.244.151c.174.003.784 1.301.768 2.005zM64.167 126.311l.067-.143 2.455-1.899 3.505-2.671.045.008c.222.03.588 1.527.518 2.052l-.07.143-3.48 2.673-.087.088 14.597 1.999c.195.026.632 1.382.541 2.055-.02.126-.05.171-.098.166l-15.918-2.18c.856 1.21 1.582 2.274 2.617 3.635.209.283.528 1.418.451 1.966-.017.125-.051.196-.1.189l-.09-.062c-1.677-2.312-2.525-3.751-4.487-5.975-.212-.282-.539-1.522-.466-2.044zM228.567 249.824c-.091.036-.17.045-.189-.002-.604-1.193-1.127-2.391-1.618-3.576l-2.639-6.685c-1.784 2.398-3.282 4.759-4.977 7.172-.27.406-1.007 1.059-1.402 1.224-.09.037-.169.044-.189-.002l-2.956-7.458c-.482-1.16-.979-2.291-1.545-3.394-.066-.159.827-1.224 1.501-1.505.091-.037.169-.043.189.003.622 1.235 1.189 2.471 1.72 3.748.472 1.14.897 2.3 1.357 3.472l1.151 2.969c1.578-2.366 3.172-4.631 5.067-7.153.262-.351 1.034-1.046 1.363-1.18.092-.04.147-.036.166.01l2.958 7.458c.474 1.138.979 2.291 1.545 3.394.065.159-.826 1.223-1.502 1.505zM210.465 237.211c.099-.024.177-.019.188.028l4.249 17.107c.061.239-1.146 1.122-1.732 1.27l-.157-.013-6.307-3.775-3.378 5.49c-.111.283-1.146 1.024-1.685 1.157-.098.024-.177.02-.188-.029l-4.251-17.108c-.046-.19 1.123-1.115 1.733-1.27.098-.023.178-.017.188.03l3.907 15.72 2.793-4.612c.252-.345 1.27-1.052 1.708-1.161l.16.01 4.622 2.745-3.561-14.325c-.034-.145.979-1.082 1.711-1.264zM193.366 240.955c.122-.01.176.009.181.058l1.598 17.555c.021.196-1.203.928-1.879.989l-.181-.031c-2.824-1.9-5.602-3.507-8.373-4.817l-.027-.048c-.007-.072.084-.157.202-.265l6.288-4.762c-3.363-1.679-6.721-4.446-10.236-6.705l-.03-.045c-.02-.221 1.307-.913 1.884-.966.098-.009.177.01.204.03 2.928 1.916 6.03 4.36 9.019 6.07l-.555-6.072c-.02-.196 1.252-.93 1.905-.991zm-1.2 8.739l-5.316 4.049c1.958.965 3.953 2.073 5.988 3.323l-.672-7.372zM170.125 241.401c.099.004.172.032.169.08l-.366 7.622c-.161 3.376 3.354 5.696 6.674 7.931l1.463.984.714-15.388c.01-.247 1.421-.749 1.997-.722.128.009.173.035.172.085l-.816 17.606c-.015.247-1.472.745-2.026.72l-.124-.031c-3.602-3.165-10.452-5.788-10.227-10.549l.368-7.618c.013-.223 1.372-.749 2.002-.72zM160.339 258.628c-.124-.021-.195-.059-.189-.104l2.811-17.399c.028-.17 1.374-.603 2.093-.485.124.019.168.05.161.1l-2.808 17.397c-.036.22-1.422.593-2.068.491zM146.305 237.159l-.019-.03c.066-.238 1.574-.424 2.108-.279.098.027.14.062.155.093 2.083 2.932 4.154 6.297 6.302 9.17l1.68-6.294c.059-.215 1.596-.419 2.108-.281.119.031.163.068.151.116l-4.552 17.026c-.056.212-1.593.416-2.104.278-.098-.025-.165-.07-.152-.118l2.27-8.486c-2.773-3.17-5.247-7.355-7.947-11.195zM146.642 236.224c.09.042.151.093.13.141l-7.095 16.135c-.101.227-1.597.188-2.149-.054l-.118-.107-2.683-6.844-6.034 2.284c-.26.154-1.531.108-2.039-.114-.093-.039-.151-.093-.132-.138l7.097-16.135c.079-.182 1.57-.2 2.148.054.091.042.153.094.131.138l-6.519 14.824 5.03-1.94c.411-.116 1.649-.058 2.062.126l.119.104 1.981 4.997 5.947-13.514c.058-.137 1.432-.261 2.124.043zM277.837 130.644c-.01-.125.011-.176.06-.18l17.561-1.466c.197-.014.918 1.213.975 1.89l-.034.179c-1.921 2.812-3.552 5.574-4.882 8.335l-.047.031c-.071.004-.157-.088-.264-.206l-4.71-6.325c-1.703 3.35-4.498 6.689-6.783 10.187l-.048.03c-.222.019-.901-1.314-.951-1.892-.007-.099.013-.176.032-.204 1.94-2.914 4.408-5.997 6.143-8.972l-6.076.506c-.194.017-.923-1.259-.976-1.913zm8.724 1.269l4.01 5.347c.979-1.951 2.101-3.937 3.369-5.961l-7.379.614zM278.77 143.113c.007-.101.037-.175.087-.171l17.587 1.18c.244.017.719 1.436.678 2.038l-.06.146-5.52 4.849 4.198 4.896c.233.19.622 1.403.587 1.957-.008.099-.039.173-.085.168l-17.587-1.179c-.197-.014-.72-1.409-.68-2.037.006-.101.037-.175.086-.171l16.156 1.084-3.537-4.069c-.25-.345-.615-1.529-.584-1.981l.059-.146 4.025-3.562-14.729-.988c-.146-.011-.731-1.262-.681-2.014zM294.197 169.028l-.078.136-2.593 1.704-3.703 2.389-.049-.008c-.216-.05-.468-1.569-.355-2.086l.081-.138 3.678-2.395.094-.084-14.403-3.123c-.193-.041-.524-1.424-.381-2.089.028-.123.061-.165.11-.157l15.706 3.405c-.759-1.271-1.401-2.389-2.329-3.824-.187-.299-.414-1.454-.299-1.996.027-.124.068-.191.115-.182l.086.073c1.493 2.433 2.229 3.93 4.014 6.299.187.299.416 1.56.306 2.076zM270.858 181.757c.035-.094.085-.154.131-.14l7.167 2.612c3.178 1.161 6.438-1.509 9.558-4.013l1.375-1.106-14.482-5.25c-.231-.084-.289-1.578-.092-2.122.041-.118.084-.158.129-.143l16.57 6.015c.233.083.273 1.623.086 2.145l-.066.109c-4.093 2.499-8.638 8.261-13.113 6.628l-7.168-2.611c-.21-.076-.311-1.531-.095-2.124zM269.004 185.78c.059-.11.104-.144.147-.12l15.545 8.307c.175.093.116 1.515-.205 2.113l-.127.132c-3.141 1.319-6.004 2.755-8.622 4.351h-.055c-.066-.036-.083-.16-.111-.314l-.527-7.87c-3.245 1.888-7.403 3.173-11.221 4.871l-.057-.003c-.196-.104-.044-1.591.229-2.102.047-.088.104-.145.14-.154 3.205-1.396 6.953-2.645 10.022-4.198l-5.379-2.874c-.173-.094-.089-1.562.221-2.139zm6.64 5.803l.468 6.667c1.878-1.107 3.898-2.168 6.063-3.177l-6.531-3.49zM261.87 207.636l-.055-.008c-.203-.143.144-1.587.477-2.062.058-.082.106-.109.14-.115l3.563-.919-5.12-3.576c-.142-.1.068-1.521.457-2.076.057-.082.119-.131.161-.103l6.351 4.438 1.075-.633.109.018c.225.155.562.79.64.938 1.751-.436 3.569-.886 5.502-1.282l.035-.007c.183.126-.175 1.627-.479 2.061l-.12.13-3.746.881 5.079 3.549c.183.129-.152 1.643-.456 2.077-.058.082-.122.13-.161.101l-6.354-4.438-1.058.61-.075-.021c-.204-.142-.555-.847-.625-.959l-5.34 1.396zM209.172 48.94c-.098-.025-.164-.066-.152-.115l1.869-7.393c.828-3.278-2.157-6.249-4.966-9.097l-1.241-1.257-3.75 14.938c-.058.238-1.539.449-2.102.307-.121-.029-.164-.067-.149-.113l4.292-17.09c.061-.24 1.589-.438 2.126-.302l.117.054c2.899 3.815 9.095 7.75 7.928 12.367l-1.869 7.395c-.054.213-1.492.46-2.103.306zM231.125 38.512c.294-.172 1.532-.129 2.018.078.118.049.153.091.135.138l-.086.07c-2.688 1.058-5.069 1.765-7.75 3.067-.308.138-1.589.131-2.052-.065-.092-.039-.128-.081-.143-.114-.562-1.123-1.109-2.347-1.649-3.648l-.459-1.107-1.081 2.544c.818 2.519 1.672 4.624 2.677 6.767 2.087-.859 4.128-1.547 6.096-2.322.292-.171 1.532-.128 2.019.078.116.05.153.092.133.136l-.085.072c-2.69 1.057-5.067 1.765-7.753 3.068-.338.151-1.588.131-2.051-.066l-.142-.114c-.56-1.123-1.106-2.347-1.649-3.649l-.46-1.107-3.385 7.977c-.067.159-1.501.248-2.148-.027-.094-.039-.152-.091-.135-.136l6.889-16.225c.078-.181 1.63-.167 2.139.05l.128.08c.829 2.496 1.702 4.69 2.713 6.754l6.081-2.299zM228.278 57.291c-.089-.051-.141-.11-.115-.153l8.874-15.224c.111-.191 1.54-.044 2.108.284.085.052.116.099.127.132l2.168 6.122.009.032c-.123.215-1.627-.004-2.106-.283-.085-.052-.117-.098-.125-.132l-1.23-3.487-7.581 13.006c-.09.149-1.52.057-2.129-.297zM236.543 62.501c-.082-.059-.127-.123-.1-.162l10.339-14.277c.129-.179 1.539.108 2.067.492.082.06.11.109.113.145l1.556 6.303.005.036c-.146.2-1.62-.167-2.068-.492-.081-.06-.107-.108-.114-.143l-.878-3.592-8.832 12.196c-.1.14-1.517-.092-2.088-.506zM243.199 67.315c-.071-.07-.107-.139-.073-.175l12.19-12.729c.172-.178 1.564.369 1.999.787l.075.14.176 7.346 6.45-.078c.297-.058 1.477.421 1.877.805.071.068.11.138.076.174l-12.19 12.729c-.138.142-1.546-.351-1.999-.787-.074-.07-.111-.141-.077-.175l11.201-11.695-5.392.102c-.424-.031-1.567-.51-1.896-.823l-.074-.141-.149-5.371-10.211 10.661c-.101.106-1.435-.247-1.983-.77zM255.51 79.67c-.06-.081-.085-.155-.047-.186l14.096-10.577c.158-.119 1.467.599 1.828 1.082.062.081.074.136.069.169-.394 4.95 2.354 11.572-1.613 14.551l-6.102 4.577c-.178.134-1.45-.578-1.83-1.082-.073-.099-.103-.176-.062-.205l6.102-4.577c3.258-2.445 1.963-7.42 1.607-11.842l-3.394 2.549c-.067 2.504 1.105 5.837-.827 7.289l-4.796 3.6c-.179.133-1.454-.579-1.833-1.081-.059-.081-.085-.155-.044-.186l4.816-3.615c1.264-.948 1.14-2.839.944-4.704l-7.087 5.318c-.174.134-1.449-.576-1.827-1.08zM98.479 87.738c-.076.1-.124.126-.164.097l-14.186-10.458c-.161-.118.104-1.518.508-2.063l.143-.113c3.297-.853 6.1-2.038 8.92-3.241l.056.01c.059.044.059.169.049.349l-.918 8.858 6.101 4.496c.178.132-.197 1.639-.509 2.065zm-6.168-6.986l.672-6.57c-1.999.841-4.046 1.707-6.255 2.455l5.583 4.115zM93.235 64.653c.084-.093.152-.134.189-.102l13.147 11.736c.13.116-.228 1.481-.716 2.025-.084.095-.134.116-.171.083l-13.148-11.735c-.165-.148.264-1.52.699-2.007zM101.566 56.338c.075-.067.147-.099.18-.064l7.92 8.642c3.019.349 5.494.222 8.349.319l.017.018c.166.181-.525 1.586-.898 1.926l-.146.065-5.268-.088 1.933 2.109c.153.165-.505 1.569-.895 1.926-.095.086-.147.102-.179.065l-3.053-3.329c-.094 1.759-.276 3.499-.218 5.422.015.354-.539 1.498-.93 1.855-.071.068-.145.101-.179.064l-.012-.089c-.071-2.981.297-5.594.387-8.29l-7.906-8.623c-.13-.146.415-1.486.898-1.928zM118.867 50.308c.145.2-.683 1.502-1.111 1.812l-.151.047c-1.272-.083-2.609-.21-3.996-.454l-1.168-.192 1.625 2.238c2.841.745 5.621 1.107 8.236 1.284l.015.021c.145.2-.683 1.5-1.112 1.812l-.152.048c-1.271-.084-2.608-.21-3.997-.457l-1.164-.19 5.085 7.013c.101.14-.582 1.428-1.151 1.843-.104.073-.159.083-.185.043l-10.348-14.269c-.114-.16.698-1.482 1.146-1.806l.136-.07c2.93.652 5.63 1.073 8.277 1.255l.015.022zM127.985 59.406c-.108.062-.165.064-.188.022l-8.646-15.359c-.094-.172.722-1.338 1.313-1.671.066-.038.144-.054.177-.044 3.355.577 6.545.907 9.61.967l.044.031c.04.064-.015.179-.074.327l-3.786 6.915c3.751.155 7.949 1.305 12.081 1.926l.046.031c.109.194-.816 1.367-1.322 1.65-.09.049-.167.065-.201.056-3.455-.548-7.286-1.508-10.711-1.849l2.989 5.314c.098.173-.76 1.363-1.332 1.684zm-2.48-8.46l3.191-5.873c-2.177-.078-4.453-.271-6.823-.58l3.632 6.453zM141.59 40.707l2.043-8.074c.041-.25 1.049-1.211 1.568-1.407.094-.035.172-.039.192.007l6.208 16.494c.078.208-1.057 1.267-1.576 1.462l-.157.007-7.593-5.318-1.799 8.086c-.079.294-1.025 1.203-1.59 1.416-.095.035-.151.03-.167-.017l-6.208-16.492c-.095-.255 1.055-1.269 1.574-1.464.094-.035.175-.038.183-.017l7.322 5.317zm-5.889-1.502l3.87 10.28 1.482-6.492-5.352-3.788zm10.126 4.47l2.626 1.833-4.001-10.626-1.626 6.679 3.001 2.114zM180 225.064l-15.02-18.664 13.297-9.769-55.029-40.433-6.222 17.785-9.26-31.688 14.463 10.627 21.981-62.865h-16.545l23.751-14.438-4.333 12.399h65.83l-4.334-12.399 23.753 14.438h-16.546l21.98 62.865 14.464-10.627-9.26 31.688-6.218-17.785-55.034 40.433 13.298 9.769-15.016 18.664zm-12.096-18.283l12.096 15.032 12.093-15.032-12.093-8.886-12.096 8.886zm12.096-11.414l56.047-41.182-22.419-64.128h-67.258l-22.419 64.128 56.049 41.182zm58.472-40.429l4.324 12.375 5.789-19.806-10.113 7.431zm-127.058-7.432l5.788 19.806 4.326-12.375-10.114-7.431zm103.662-59.487h9.977l-12.668-7.702 2.691 7.702zm-80.128 0h9.975l2.694-7.702-12.669 7.702zM174.222 89.915l-5.196-1.754 10.974-32.502 10.973 32.503-5.198 1.753-5.775-17.108zM235.917 209.516l-35.494-26.783 3.301-4.379 18.919 14.273-9.219-21.326 5.036-2.176zM230.485 132.889l-3.17-4.477 16.022-11.335h-20.297v-5.485h37.545zM129.516 132.889l-30.102-21.297h37.548v5.485h-20.299l16.021 11.335zM124.082 209.516l17.457-40.391 5.036 2.176-9.219 21.326 18.918-14.273 3.302 4.379zM112.949 156.387l.556 1.961-17.618 4.997-.556-1.961zM247.056 156.361l17.616 4.999-.557 1.963-17.616-4.999zM137.86 73.234l4.957 8.857-1.779.996-4.957-8.857zM222.136 73.229l1.783.995-4.947 8.865-1.783-.995z"/></g><g fill="#00A057"><path d="M333.499 28.18c-32.023-24.314-80.438-14.446-108.149 22.042-14.733 19.403-20.642 42.428-18.13 63.389 3.507 33.995-4.778 57.896-8.969 67.433-5.09 2.061-10.559 5.756-10.614 12.137-.008.767.996 2.137 2.616 3.81l-10.253 13.502-10.253-13.503c1.619-1.673 2.623-3.043 2.616-3.81-.057-6.381-5.524-10.076-10.614-12.137-4.192-9.537-12.474-33.438-8.97-67.433 2.514-20.961-3.394-43.986-18.128-63.389-27.712-36.487-76.128-46.355-108.15-22.041-32.016 24.314-35.515 73.604-7.812 110.092 14.735 19.402 35.327 31.278 56.193 34.488 33.687 5.751 54.483 20.149 62.55 26.749.618 5.457 2.707 11.714 8.836 13.483.739.21 2.327-.387 4.374-1.495l14.297 18.829-28.268 37.227c-5.452 1.314-15.95 4.997-16.027 13.853-.032 3.636 22.599 20.818 26.091 19.812 8.509-2.454 9.237-13.553 9.041-19.158l24.224-31.9 24.224 31.9c-.196 5.605.533 16.704 9.041 19.158 3.49 1.006 26.123-16.177 26.091-19.812-.077-8.855-10.575-12.538-16.025-13.853l-28.27-37.228 14.297-18.828c2.047 1.108 3.635 1.705 4.374 1.495 6.128-1.77 8.218-8.026 8.837-13.483 8.064-6.6 28.862-20.998 62.549-26.749 20.866-3.21 41.458-15.086 56.193-34.488 27.704-36.487 24.203-85.777-7.812-110.092zm-199.104 105.275l-3.163-4.164 4.56-3.462 2.739 3.611c-.2.452-.412.898-.625 1.346l-3.511 2.669zm2.025.289c-.25.461-.494.928-.753 1.383l-.392-.514 1.145-.869zm-.227-10.219l-1.108-1.656h.004l-2.145-2.508 4.539-3.25 3.266 4.19-.971.716-1.469 1.161v-.041l-2.116 1.388zm-96.036-76.16l3.163 4.164-4.556 3.461-3.164-4.163 3.083-2.341v.001l1.474-1.122zm15.163-3.369l3.219 4.079-4.343 3.528-3.246-4.171 4.37-3.436zm-.012-.014v-.002.002zm28.615 94.225l-3.163-4.164 4.557-3.464 2.307 3.042v-.001l.856 1.125-2.848 2.162v-.001l-1.709 1.301zm-41.071-19.504l-3.063-3.55 4.34-3.516 3.048 4.013-4.325 3.053zm.456.166v.363l-.313-.363h.313zm-.126-56.516l2.834 4.166-4.723 3.893-.874-.542h-.014l-1.774-3.622 2.677-1.973v.002l1.874-1.924zm53.156 32.852l-3.162-4.164 4.558-3.461 3.161 4.164-4.557 3.461zm5.437-2.303l3.164 4.164-4.559 3.461-3.162-4.163 4.557-3.462zm-6.599 3.183l-4.557 3.46-3.163-4.164 4.556-3.46 3.164 4.164zm-8.598-1.863l-3.161-4.163 4.556-3.461 3.161 4.162-4.556 3.462zm-1.16.881l-4.557 3.462-3.16-4.167 4.556-3.46 3.161 4.165zm-2.881-6.203l-3.162-4.166 4.555-3.459 3.164 4.164-4.557 3.461zm-1.159.879l-4.557 3.459-3.165-4.164 4.557-3.462 3.165 4.167zm-5.721 4.342l-4.556 3.461-3.16-4.165 4.556-3.462 3.16 4.166zm-2.878-6.206l-3.164-4.164 4.557-3.46 3.163 4.165-4.556 3.459zm-1.16.881l-4.559 3.459-3.165-4.164 4.56-3.46 3.164 4.165zm-8.602-1.864l-3.165-4.164 4.561-3.459 3.163 4.164-4.559 3.459zm-1.159.882l-4.558 3.46-3.162-4.165 4.557-3.461 3.163 4.166zm-8.603-1.864l-3.16-4.164 4.556-3.462 3.164 4.165-4.56 3.461zm-1.158.881l-4.554 3.459-3.163-4.163 4.556-3.461 3.161 4.165zm.881 1.16l3.162 4.164-4.559 3.459-3.159-4.163 4.556-3.46zm4.044 5.324l3.16 4.164-4.557 3.459-3.164-4.164 4.561-3.459zm1.159-.881l4.558-3.46 3.162 4.164-4.559 3.46-3.161-4.164zm8.596 1.864l3.165 4.164-4.557 3.459-3.163-4.165 4.555-3.458zm4.047 5.324l3.16 4.164-4.556 3.459-3.161-4.164 4.557-3.459zm1.16-.882l4.556-3.459 3.161 4.164-4.558 3.46-3.159-4.165zm8.599 1.864l3.161 4.162-4.556 3.461-3.161-4.162 4.556-3.461zm1.16-.879l4.556-3.462 3.164 4.164-4.559 3.46-3.161-4.162zm8.599 1.861l3.162 4.164-4.559 3.46-3.162-4.164 4.559-3.46zm1.158-.88l4.559-3.46 3.161 4.164-4.556 3.462-3.164-4.166zm8.598 1.863l3.163 4.164-4.556 3.46-3.164-4.163 4.557-3.461zm1.16-.881l4.557-3.459 3.165 4.164-4.559 3.459-3.163-4.164zm8.604 1.864l3.16 4.164-4.555 3.459-3.162-4.164 4.557-3.459zm-2.887-6.205l4.56-3.462 3.164 4.166-4.559 3.461-3.165-4.165zm-.878-1.159l-3.162-4.165 4.556-3.46 3.165 4.165-4.559 3.46zm-4.041-5.325l-3.163-4.164 4.556-3.459 3.165 4.163-4.558 3.46zm-4.046-5.324l-3.16-4.163 4.557-3.46 3.164 4.164-4.561 3.459zm-1.157.881l-4.56 3.46-3.159-4.163 4.558-3.461 3.161 4.164zm-8.603-1.862l-3.159-4.165 4.559-3.461 3.157 4.165-4.557 3.461zm-4.039-5.325l-3.162-4.164 4.556-3.46 3.162 4.164-4.556 3.46zm-1.159.881l-4.562 3.462-3.157-4.166 4.555-3.459 3.164 4.163zm-8.601-1.862l-3.164-4.167 4.557-3.459 3.163 4.165-4.556 3.461zm-1.159.88l-4.555 3.459-3.165-4.164 4.556-3.46 3.164 4.165zm-8.603-1.862l-3.16-4.166 4.559-3.459 3.165 4.165-4.564 3.46zm-1.157.878l-4.556 3.46-3.164-4.164 4.556-3.459 3.164 4.163zm-8.599-1.862l-3.164-4.164 4.559-3.46 3.161 4.164-4.556 3.46zm-1.159.88l-4.559 3.462-3.161-4.165 4.555-3.46 3.165 4.163zm-8.602-1.862l-3.16-4.165 4.554-3.46 3.162 4.165-4.556 3.46zm-1.158.879l-2.847 2.16v.001l-1.709 1.3-3.162-4.164 4.358-3.312.196-.148 3.164 4.163zm.88 1.16l3.163 4.165-4.56 3.46-3.159-4.164 4.556-3.461zm1.485 13.828l-4.556 3.461-3.16-4.164 4.557-3.462 3.159 4.165zm.883 1.161l3.162 4.165-4.557 3.46-3.161-4.164 4.556-3.461zm4.044 5.322l3.16 4.164-4.557 3.461-3.161-4.163 4.558-3.462zm4.038 5.326l3.164 4.163-4.559 3.462-3.16-4.166 4.555-3.459zm1.164-.883l4.555-3.458 3.162 4.163-4.558 3.46-3.159-4.165zm8.598 1.865l3.161 4.164-4.556 3.46-3.163-4.163 4.558-3.461zm4.042 5.325l3.164 4.164-4.556 3.46-3.164-4.165 4.556-3.459zm1.164-.883l4.555-3.459 3.164 4.165-4.56 3.46-3.159-4.166zm8.597 1.865l3.162 4.163-4.557 3.461-3.164-4.165 4.559-3.459zm1.16-.881l4.558-3.461 3.161 4.165-4.558 3.46-3.161-4.164zm8.599 1.863l3.163 4.164-4.56 3.461-3.161-4.165 4.558-3.46zm1.157-.881l4.559-3.46 3.161 4.163-4.559 3.462-3.161-4.165zm8.599 1.864l3.163 4.164-4.555 3.46-3.164-4.164 4.556-3.46zm1.161-.881l4.556-3.46 3.162 4.164-4.555 3.46-3.163-4.164zm8.6 1.862l3.163 4.166-4.557 3.46-3.163-4.164 4.557-3.462zm1.159-.88l4.559-3.46 3.161 4.165-4.556 3.461-3.164-4.166zm8.603 1.864l3.159 4.162-4.556 3.462-3.163-4.162 4.56-3.462zm-2.883-6.206l4.553-3.458 3.164 4.163-4.556 3.46-3.161-4.165zm-.879-1.158l-3.165-4.165 4.556-3.459 3.161 4.165-4.552 3.459zm-1.492-13.83l4.558-3.459 3.163 4.164-2.536 1.924-2.02 1.538-3.165-4.167zm.813-2.443l-1.693 1.285-3.163-4.526 1.435-1.451h-.002l3.126-2.01 3.162 4.346-2.865 2.356zm-4.198-5.492v-.002l-1.723 1.455-3.072-4.166 4.381-3.459 1.413 2.093v-.001l1.61 2.072-2.609 2.008zm-5.581-3.87l-3.162-4.166 4.56-3.459 3.161 4.166-4.559 3.459zm-4.039-5.325l-3.164-4.163 4.558-3.461 3.162 4.164-4.556 3.46zm-1.16.88l-4.558 3.461-3.162-4.164 4.557-3.463 3.163 4.166zm-8.601-1.862l-3.164-4.165 4.559-3.46 3.16 4.164-4.555 3.461zm-4.041-5.325l-3.162-4.164 4.555-3.46 3.163 4.164-4.556 3.46zm-1.165.881l-4.554 3.461-3.164-4.167 4.556-3.459 3.162 4.165zm-8.596-1.864l-3.162-4.164 4.558-3.462 3.161 4.167-4.557 3.459zm-1.161.881l-4.556 3.462-3.164-4.166 4.558-3.459 3.162 4.163zm-8.598-1.863l-3.162-4.164 4.557-3.46 3.163 4.165-4.558 3.459zm-1.159.881l-4.56 3.459-3.16-4.164 4.559-3.461 3.161 4.166zm-8.601-1.864l-3.161-4.164 4.555-3.459 3.165 4.164-4.559 3.459zm-1.16.882l-4.555 3.461-3.164-4.165 4.556-3.461 3.163 4.165zm-8.598-1.863l-3.161-4.166 4.553-3.46 3.164 4.164-4.556 3.462zm-6.878 5.221l-4.556 3.46-3.163-4.164 4.557-3.462 3.162 4.166zm-1.674 9.664l-4.556 3.462-3.163-4.165 4.557-3.461 3.162 4.164zm.879 1.159l.004.005 3.161 4.161-4.557 3.46-3.035-3.995-.129-.169 4.556-3.462zm1.488 13.83l-4.555 3.46-3.162-4.164 4.557-3.462 3.16 4.166zm.882 1.16l3.162 4.164-4.558 3.46-3.161-4.164 4.557-3.46zm4.043 5.324l3.161 4.164-4.555 3.461-3.162-4.165 4.556-3.46zm4.043 5.324l3.162 4.163-4.558 3.461-3.165-4.163 4.561-3.461zm4.039 5.323l3.163 4.164-4.556 3.46-3.164-4.163 4.557-3.461zm1.16-.882l4.557-3.458 3.163 4.162-4.558 3.462-3.162-4.166zm8.601 1.863l3.163 4.166-4.556 3.459-3.163-4.164 4.556-3.461zm4.042 5.325l3.164 4.164-4.555 3.462-3.165-4.165 4.556-3.461zm1.163-.88l4.556-3.46 3.163 4.163-4.559 3.461-3.16-4.164zm8.596 1.862l3.163 4.167-4.558 3.458-3.16-4.164 4.555-3.461zm1.16-.879l4.56-3.463 3.164 4.165-4.56 3.461-3.164-4.163zm8.604 1.863l3.159 4.162-4.556 3.461-3.164-4.163 4.561-3.46zm1.159-.88l4.553-3.462 3.164 4.166-4.558 3.46-3.159-4.164zm8.596 1.862l3.163 4.165-4.557 3.459-3.161-4.163 4.555-3.461zm1.16-.881l4.56-3.459 3.158 4.164-3.373 2.562-1.182.899-.605-.797-2.558-3.369zm8.603 1.864l.841 1.11 2.318 3.054-4.555 3.459-3.164-4.164 4.56-3.459zm2.592 1.01l-1.435-1.889 4.556-3.462 3.209 4.163-1.128.893v-.002l-3.43 2.572-1.772-2.275zm7.165-.029l3.164 4.166-4.559 3.459-3.161-4.162 4.556-3.463zm1.157-.879l4.562-3.46 3.16 4.164-4.556 3.461-3.166-4.165zm1.676-9.665l4.559-3.459 3.162 4.162-4.559 3.463-3.162-4.166zm1.673-9.663l2.427-1.842 2.132-1.619 3.161 4.163-4.556 3.462-3.164-4.164zm1.474-2.947l-2.352 1.787-3.162-4.166 2.095-1.59 2.462-1.869 3.161 4.164-2.204 1.674zm-3.84-12.041l4.558-3.462 3.159 4.165-4.553 3.46-3.164-4.163zm-.883-1.161l-3.159-4.165 4.555-3.46 3.164 4.165-4.56 3.46zm-4.042-5.325l-3.159-4.164 1.509-1.146 3.045-2.315 3.164 4.165-4.559 3.46zm-1.177-8.245l-2.968 2.585-3.194-4.018 4.301-3.431 1.86 2.938v-.002l1.272.988-1.292.937.021.003zm-6.906-2.403l-3.162-4.161 4.557-3.462 3.164 4.164-4.559 3.459zm-4.043-5.322l-3.164-4.166 4.559-3.459 3.163 4.163-4.558 3.462zm-1.163.881l-4.553 3.461-3.164-4.166 4.56-3.461 3.157 4.166zm-8.595-1.864l-3.163-4.165 4.559-3.46 3.16 4.164-4.556 3.461zm-4.043-5.323l-3.162-4.166 4.556-3.46.626.822 2.535 3.342-4.555 3.462zm-1.16.879l-4.555 3.46-3.164-4.164 4.556-3.461 3.163 4.165zm-8.399-1.864l-.691-1.176v-.004l-2.469-2.982 4.532-3.461 3.247 4.164-4.619 3.459zm-1.359.882l-4.558 3.46-3.163-4.164 4.557-3.46 3.164 4.164zm-8.6-1.863l-3.164-4.166 2.68-2.033 1.877-1.426 3.164 4.164-4.557 3.461zm-1.159.88l-4.557 3.46-3.164-4.165 4.557-3.46 3.164 4.165zm-8.601-1.864l-3.163-4.164 4.557-3.46 3.163 4.165-4.557 3.459zm-1.159.881l-4.559 3.459-3.16-4.163 4.555-3.462 3.164 4.166zm-8.6-1.861l-3.162-4.166 4.553-3.46 3.165 4.164-4.556 3.462zm-1.159.879l-4.56 3.461-3.161-4.165 4.56-3.46 3.161 4.164zm-5.718 4.341l-1.794 1.361h-.001l-2.763 2.099-3.163-4.164 4.558-3.46 1.021 1.344 2.142 2.82zm-5.715 4.339l-4.558 3.463-3.165-4.165 4.558-3.461 3.165 4.163zm-1.678 9.667l-4.555 3.461-3.164-4.166 4.555-3.46 3.164 4.165zm-1.674 9.665l-4.557 3.459-3.163-4.164 4.56-3.459 3.16 4.164zm.888 1.074l.163.124h-.001l2.997 4.041-4.56 3.484-2.877-3.717-.282-.368 4.56-3.564zm1.481 13.914l-4.556 3.46-3.162-4.164 4.555-3.462 3.163 4.166zm.884 1.159l3.159 4.165-4.556 3.461-3.16-4.165 4.557-3.461zm4.042 5.323l3.159 4.166-4.556 3.46-3.163-4.164 4.56-3.462zm8.083 10.65l3.163 4.164-4.559 3.461-3.162-4.165 4.558-3.46zm3.491 5.741l.551-.418 3.162 4.163-1.738 1.321-2.82 2.141-3.162-4.165 4.007-3.042zm1.71-1.301l4.555-3.459 3.164 4.166-4.556 3.459-3.163-4.166zm8.599 1.866l3.164 4.164-4.557 3.459-3.162-4.164 4.555-3.459zm4.044 5.322l3.163 4.166-4.559 3.459-3.159-4.164 4.555-3.461zm1.16-.88l4.556-3.461 3.163 4.164-4.558 3.463-3.161-4.166zm8.6 1.862l3.161 4.166-4.556 3.46-3.164-4.164 4.559-3.462zm1.158-.879l4.557-3.46 3.164 4.164-4.558 3.462-3.163-4.166zm11.721 3.565l-1.961-2.582 4.557-3.462 3.164 4.166-4.558 3.46-1.202-1.582zm6.638-.718l3.163 4.164-4.557 3.46-3.163-4.164 4.557-3.46zm1.16-.881l4.555-3.462 3.165 4.166-4.558 3.459-3.162-4.163zm8.599 1.863l3.164 4.165-4.556 3.459-3.164-4.165 4.556-3.459zm1.16-.882l4.561-3.46 3.16 4.167-4.557 3.458-3.164-4.165zm8.601 1.865l3.159 4.164-4.555 3.459-3.161-4.164 4.557-3.459zm1.159-.88l4.56-3.461 3.16 4.164-4.559 3.458-3.161-4.161zm5.719-4.34l4.557-3.461 3.16 4.163-4.558 3.46-3.159-4.162zm1.672-9.667l4.555-3.459 3.164 4.163-4.558 3.461-3.161-4.165zm5.717-4.34l3.085-2.343 1.475-1.119 3.159 4.166-1.213.92-3.343 2.54-3.163-4.164zm2.133-3.449l-3.012 2.288-3.164-4.164 2.755-2.09v-.001l1.804-1.368 3.161 4.163-1.544 1.172zm-4.504-11.539l4.562-3.462 3.16 4.164-4.557 3.461-3.165-4.163zm-.877-1.16l-3.162-4.166 4.557-3.459 3.159 4.165-4.554 3.46zm-1.487-13.829l4.557-3.461 3.162 4.164-4.56 3.46-3.159-4.163zm-.88-1.16l-3.164-4.165 4.558-3.459 3.159 4.166-4.553 3.458zm-4.043-5.325l-3.163-4.164 4.557-3.46 3.161 4.164-4.555 3.46zm-4.043-5.321l-3.163-4.165 2.589-1.965 1.968-1.497 3.162 4.164-4.556 3.463zm.958-8.992l-.713.236-.133-.011-4.117 3.253-3.195-4.091 5.031-3.415 3.314 3.797-.187.231zm-9.044-1.657l-3.161-4.164 4.557-3.462 3.161 4.164-4.557 3.462zm-4.043-5.325l-3.162-4.163 4.56-3.462 3.16 4.165-4.558 3.46zm-1.159.882l-4.556 3.46-3.165-4.165 4.558-3.46 3.163 4.165zm-8.6-1.863l-2.311-3.045-.851-1.119 4.557-3.462 1.742 2.295 1.42 1.868-4.557 3.463zm-4.042-5.326l-3.163-4.162 4.559-3.461 3.161 4.163-4.557 3.46zm-1.161.882l-4.555 3.459-3.162-4.163 4.555-3.461 3.162 4.165zm-8.597-1.863l-3.163-4.166 4.556-3.459 3.16 4.166-4.553 3.459zm-1.162.88l-4.556 3.461-3.163-4.166 4.557-3.459 3.162 4.164zm-8.598-1.864l-3.162-4.166 4.559-3.458 3.159 4.163-4.556 3.461zm-1.174.836l-4.569 3.509-3.188-4.24.685-.595h-.001l3.868-2.84 3.205 4.166zm-8.267-2.419l-.315.418-3.166-4.042 4.556-3.492 3.168 4.072-4.243 3.044zm-6.045-3.478l-4.053 3.097-3.156-4.164 4.573-3.461 3.138 4.164-.502.364zm-5.195 3.977l-4.556 3.46-3.16-4.164 4.555-3.46 3.161 4.164zm-11.43 8.682l-4.559 3.461-3.162-4.165 4.557-3.462 3.164 4.166zm-5.718 4.342l-4.556 3.459-3.165-4.164 4.56-3.46 3.161 4.165zm-1.674 9.663l-4.557 3.459-3.162-4.163 4.557-3.459 3.162 4.163zm-5.718 4.342l-4.559 3.462-3.161-4.167 4.559-3.458 3.161 4.163zm.882 1.16l3.161 4.165-4.559 3.46-3.161-4.165 4.559-3.46zm1.485 13.829l-4.554 3.46-3.163-4.164 4.556-3.46 3.161 4.164zm.898.701l.335-.039 2.825 4.204-4.572 3.715-3.151-3.985 4.563-3.895zm1.47 14.288l-4.556 3.459-3.16-4.166 4.556-3.459 3.16 4.166zm.883 1.158l3.161 4.165-4.556 3.46-3.164-4.164 4.559-3.461zm4.043 5.323l3.161 4.164-4.558 3.46-1.298-1.708-1.864-2.454 4.559-3.462zm1.852 6.988l2.191-1.663 3.159 4.166-4.557 3.46-3.162-4.166 2.369-1.797zm6.232 3.661l3.163 4.165-4.557 3.462-3.163-4.166 4.557-3.461zm4.045 5.324l3.161 4.163-4.556 3.462-3.164-4.164 4.559-3.461zm4.039 5.323l3.165 4.166-4.559 3.459-3.164-4.165 4.558-3.46zm1.161-.88l4.556-3.459 3.162 4.164-3.256 2.471-1.3.989-3.162-4.165zm4.745 4.562l3.627-2.723 3.095 4.155-5.19 3.402-1.453-.846v.004l-1.715-3.323 1.636-.669zm7.896 2.626l3.163 4.162-4.556 3.461-3.164-4.165 4.557-3.458zm1.161-.882l4.555-3.46 3.164 4.165-4.56 3.459-3.159-4.164zm8.599 1.865l3.161 4.164-4.554 3.461-3.163-4.166 4.556-3.459zm1.158-.882l4.558-3.461 3.162 4.165-4.555 3.46-3.165-4.164zm8.601 1.864l3.164 4.164-4.558 3.461-1.814-2.39-1.35-1.775 4.558-3.46zm1.159-.88l4.557-3.462 3.163 4.165-4.558 3.46-3.162-4.163zm8.599 1.861l3.164 4.166-4.558 3.46-3.162-4.164 4.556-3.462zm1.16-.879l4.558-3.46 3.161 4.164-4.556 3.462-3.163-4.166zm8.601 1.862l3.162 4.163-4.56 3.461-3.158-4.163 4.556-3.461zm1.159-.881l4.558-3.459 3.161 4.165-4.559 3.461-3.16-4.167zm8.601 1.865l3.16 4.164-4.556 3.459-3.163-4.162 4.559-3.461zm1.157-.882l4.56-3.46 3.163 4.165-4.559 3.46-3.164-4.165zm5.718-4.341l4.559-3.459 3.162 4.163-4.558 3.462-3.163-4.166zm5.719-4.341l4.556-3.46 3.164 4.164-4.558 3.46-3.162-4.164zm1.675-9.664l4.553-3.462 3.164 4.165-4.558 3.46-3.159-4.163zm7.39-14.005l4.557-3.46 3.164 4.162-4.559 3.462-3.162-4.164zm-.882-1.16l-3.161-4.166 4.558-3.46 3.163 4.164-4.56 3.462zm-1.488-13.828l4.558-3.461 3.161 4.163-4.558 3.462-3.161-4.164zm-.879-1.161l-3.165-4.164 4.561-3.459 3.163 4.162-4.559 3.461zm-1.488-13.829l4.557-3.458 3.163 4.164-4.557 3.46-3.163-4.166zm-.881-1.16l-3.162-4.163 4.556-3.461 3.163 4.166-4.557 3.458zm-4.042-5.325l-3.163-4.162 4.557-3.46 3.165 4.162-4.559 3.46zm-4.043-5.322l-3.162-4.166 4.557-3.459 3.161 4.165-4.556 3.46zm-3.815-5.425l-.756-1.391v-.002l-2.405-2.77 3.667-2.702.777-.669 2.928 4.146-4.211 3.388zm-4.272-5.222l-3.162-4.166 4.559-3.459 3.164 4.164-4.561 3.461zm-4.041-5.324l-3.162-4.165 4.556-3.46 3.163 4.165-4.557 3.46zm-4.042-5.326l-3.162-4.162 4.556-3.461 3.162 4.164-4.556 3.459zm-1.376-.189l.259.732-4.58 3.634-3.172-4.085 4.595-3.751 2.898 3.47zm-8.384-.791l-3.164-4.165 4.562-3.461 3.16 4.164-4.558 3.462zm-4.041-5.324l-3.163-4.164 4.556-3.462 3.164 4.165-4.557 3.461zm-1.162.881l-4.555 3.461-3.164-4.165 4.558-3.458 3.161 4.162zm-8.599-1.864l-3.163-4.165 4.558-3.459 3.161 4.164-4.556 3.46zm-1.161.88l-4.555 3.459-3.16-4.162 4.553-3.46 3.162 4.163zm-8.597-1.862l-3.162-4.166 4.558-3.459 3.16 4.164-4.556 3.461zm-1.16.88l-4.558 3.459-3.163-4.164 4.56-3.459 3.161 4.164zm-8.6-1.865l-3.164-4.164 4.56-3.459 3.16 4.163-4.556 3.46zm-1.159.882l-4.558 3.462-3.162-4.164 4.556-3.462 3.164 4.164zm-8.598-1.864l-3.162-4.163 4.554-3.462 3.164 4.166-4.556 3.459zm-1.161.881l-2.426 1.843-2.133 1.62-3.159-4.166 4.556-3.46 3.162 4.163zm-5.892 4.314l-4.833 3.44-2.678-3.036v.003l-.499-1.139 4.876-3.416 3.134 4.148zm-5.542 4.369l-4.559 3.459-3.162-4.164 4.558-3.458 3.163 4.163zm-5.717 4.341l-4.556 3.459-3.165-4.164 4.561-3.462 3.16 4.167zm-5.718 4.341l-4.556 3.459-3.163-4.164 4.558-3.46 3.161 4.165zm-1.675 9.665l-4.555 3.459-3.163-4.164 4.558-3.461 3.16 4.166zm-5.716 4.341l-4.556 3.459-3.162-4.164 4.556-3.461 3.162 4.166zm-1.672 9.665l-4.56 3.458-3.163-4.162 4.559-3.461 3.164 4.165zm.878 1.159l3.164 4.164-4.559 3.461-3.16-4.167 4.555-3.458zm1.487 13.827l-4.555 3.461-3.163-4.164 4.559-3.461 3.159 4.164zm.884 1.161l3.159 4.163-4.558 3.46-3.162-4.163 4.561-3.46zm1.485 13.828l-4.557 3.461-3.16-4.164 4.554-3.461 3.163 4.164zm.88 1.16l3.162 4.164-4.555 3.46-3.163-4.163 4.556-3.461zm3.174 6.086l.822-.362.75 1.451h.003l2.408 2.713-4.531 3.16-3.15-4.214 3.698-2.748zm4.915 4.561l3.158 4.166-4.557 3.46-3.16-4.166 4.559-3.46zm4.04 5.326l3.162 4.162-4.555 3.462-3.165-4.164 4.558-3.46zm4.042 5.324l3.161 4.162-4.554 3.462-3.165-4.164 4.558-3.46zm4.045 5.322l3.159 4.164-4.554 3.462-3.164-4.165 4.559-3.461zm4.04 5.324l3.164 4.166-4.561 3.458-3.161-4.164 4.558-3.46zm1.161-.88l4.556-3.462 3.164 4.166-4.557 3.459-3.163-4.163zm8.599 1.862l3.164 4.164-.577.438-3.981 3.025-3.163-4.165 4.557-3.462zm3.14 6.011l.902-.688 3.163 4.166-2.093 1.589-2.464 1.871-3.162-4.164 3.654-2.774zm2.062-1.567l4.556-3.46 3.16 4.165-4.553 3.46-3.163-4.165zm8.6 1.864l3.161 4.164-4.556 3.46-3.165-4.164 4.56-3.46zm1.16-.881l4.556-3.459 3.162 4.162-4.556 3.461-3.162-4.164zm8.601 1.862l3.161 4.166-4.559 3.461-3.16-4.165 4.558-3.462zm1.156-.879l4.557-3.462 3.164 4.166-4.557 3.46-3.164-4.164zm8.601 1.864l3.161 4.162-4.556 3.463-3.16-4.165 4.555-3.46zm1.16-.881l4.555-3.46 3.165 4.163-4.56 3.462-3.16-4.165zm8.599 1.862l3.164 4.164-4.557 3.461-3.164-4.164 4.557-3.461zm1.161-.881l4.557-3.46 3.162 4.166-4.556 3.458-3.163-4.164zm8.598 1.865l2.798 3.68c-1.708.954-3.449 1.817-5.227 2.583l-2.126-2.803 4.555-3.46zm1.159-.881l4.56-3.46 3.129 4.122c-1.55 1.146-3.137 2.217-4.769 3.185l-2.92-3.847zm5.718-4.342l4.557-3.46 2.92 3.847c-1.369 1.311-2.827 2.552-4.347 3.738l-3.13-4.125zm5.717-4.34l4.557-3.46 2.129 2.803c-1.215 1.506-2.515 2.951-3.89 4.337l-2.796-3.68zm5.717-4.342l4.555-3.461.744.978c-1.046 1.715-2.178 3.379-3.402 4.981l-1.897-2.498zm7.39-14.004l4.399-3.338c-.615 2.134-1.338 4.226-2.169 6.27l-2.23-2.932zm1.677-9.665l4.557-3.462.156.205c-.327 2.469-.788 4.901-1.383 7.29l-.171.131-3.159-4.164zm1.671-9.666l3.627-2.752c.002 2.289-.107 4.562-.323 6.81l-.14.109-3.164-4.167zm3.614-4.572l-4.492 3.413-3.161-4.164 4.556-3.462 3.092 4.073.005.14zm-.121-2.701l-1.815-2.39 1.506-1.146c.134 1.181.232 2.359.309 3.536zm-.529-5.198l-2.17 1.647-3.161-4.164 4.324-3.285c.415 1.933.747 3.869 1.007 5.802zm-6.213-3.678l-3.161-4.163 4.561-3.461 3.161 4.164-4.561 3.46zm4.14-6.419l-1.583-2.086.793-.602c.284.894.543 1.791.79 2.688zm-1.27-4.151l-1.195.905-3.161-4.164 2.439-1.85c.704 1.692 1.34 3.395 1.917 5.109zm-4.806-11.308c.826 1.591 1.588 3.2 2.298 4.819l-2.728 2.071-3.165-4.164 3.595-2.726zm-.7-1.3l-3.771 2.867-3.162-4.166 4.293-3.258c.942 1.499 1.81 3.023 2.64 4.557zm-3.442-5.778l-4.374 3.319-3.163-4.162 4.544-3.452c1.053 1.411 2.046 2.845 2.993 4.295zm-3.873-5.453l-4.542 3.45-3.163-4.163 4.373-3.322c1.145 1.303 2.258 2.643 3.332 4.035zm-4.288-5.135l-4.296 3.262-3.162-4.166 3.78-2.868c1.252 1.215 2.486 2.46 3.678 3.772zm-4.744-4.793l-3.597 2.706-2.995-3.969h-.002l-.165-.194 2.736-2.063c1.367 1.118 2.711 2.296 4.023 3.52zm-9.598-7.671c1.497 1.016 2.964 2.091 4.404 3.223l-2.445 1.854-3.16-4.165 1.201-.912zm-1.277-.854l-.805.608-1.604-2.111c.809.485 1.612.983 2.409 1.503zm-1.965 1.488l-4.558 3.46-3.164-4.163 4.56-3.461 3.162 4.164zm-4.267-5.154l-4.334 3.292-3.162-4.164 2.185-1.657c1.79.771 3.564 1.61 5.311 2.529zm-6.851-3.19l-1.525 1.158-1.833-2.417c1.123.392 2.245.809 3.358 1.259zm-5.796-2.06l3.11 4.097-4.555 3.462-3.163-4.165 4.513-3.426.095.032zm-8.486-2.054c2.222.396 4.44.904 6.643 1.521l-3.645 2.768-3.165-4.165.167-.124zm1.837 5.169l-4.556 3.462-3.162-4.166 4.559-3.459 3.159 4.163zm-11.559-6.179c2.446.073 4.894.278 7.344.626l.172.229-4.558 3.46-3.159-4.165.201-.15zm1.801 5.197l-4.557 3.46-3.165-4.164 4.561-3.461 3.161 4.165zm-4.169-5.227l-4.431 3.363-2.246-2.959c2.211-.253 4.438-.39 6.677-.404zm-8.349.607l2.759 3.637-4.558 3.459-3.161-4.164 3.563-2.705c.465-.077.928-.159 1.397-.227zm-4.641.861l-1.196.913-.412-.541c.534-.135 1.07-.25 1.608-.372zm-3.118.792l.757 1.001-4.556 3.46-1.914-2.523c1.871-.749 3.777-1.393 5.713-1.938zm-7.105 2.503l2.137 2.777-4.569 3.378-.405-.648h-.002l-2.405-3.057c1.703-.952 3.466-1.683 5.244-2.45zm-6.519 3.295l.252.213h-.004l2.235 3.574-3.606 2.153-.011.048-.981 1.271-2.762-4.019c1.554-1.145 3.245-2.272 4.877-3.24zm-5.919 4.08l3.152 4.146-4.559 3.46-2.938-3.871c1.369-1.309 2.825-2.551 4.345-3.735zm-5.381 4.781l2.818 3.708-4.56 3.459-2.146-2.828c1.212-1.507 2.515-2.952 3.888-4.339zm-4.82 5.524l1.917 2.525-4.555 3.459-.76-1.001c1.043-1.717 2.175-3.379 3.398-4.983zm-4.207 6.326l.408.541-1.199.91c.259-.487.516-.974.791-1.451zm-2.276 4.404l3.564-2.705 3.164 4.165-4.557 3.461-2.761-3.637c.187-.434.392-.858.59-1.284zm-1.237 2.842l2.244 2.957-4.426 3.364c.613-2.153 1.345-4.262 2.182-6.321zm-2.791 8.61l.203-.151 3.161 4.164-4.558 3.459-.173-.229c.322-2.452.78-4.869 1.367-7.243zm-1.636 9.636l.165-.122 3.162 4.162-3.646 2.77c-.007-2.289.103-4.561.319-6.81zm-.305 8.627l4.512-3.427 3.159 4.164-4.557 3.461-3.111-4.098-.003-.1zm.12 2.66l1.835 2.418-1.524 1.157c-.134-1.193-.234-2.386-.311-3.575zm.534 5.235l2.183-1.657 3.159 4.164-4.33 3.292c-.418-1.933-.751-3.867-1.012-5.799zm6.236 3.107l3.172 4.292-4.533 2.457-2.355-4.368h-.003l-.799.268 4.518-2.649zm-4.169 6.952l1.603 2.112-.803.609c-.286-.904-.549-1.812-.8-2.721zm1.28 4.187l1.203-.915 3.163 4.164-2.443 1.857c-.707-1.691-1.345-3.393-1.923-5.106zm4.813 11.304c-.83-1.591-1.59-3.198-2.299-4.818l2.731-2.077 3.164 4.166-3.596 2.729zm.698 1.298l3.777-2.866 3.163 4.163-4.297 3.262c-.941-1.501-1.813-3.025-2.643-4.559zm3.447 5.778l4.373-3.324 3.163 4.165-4.544 3.451c-1.054-1.41-2.046-2.843-2.992-4.292zm3.871 5.45l4.544-3.45 3.162 4.164-4.371 3.322c-1.142-1.301-2.258-2.643-3.335-4.036zm4.293 5.135l4.294-3.261 3.163 4.165-3.776 2.866c-1.254-1.214-2.488-2.461-3.681-3.77zm4.744 4.792l3.593-2.73 3.163 4.166-2.729 2.07c-1.369-1.118-2.715-2.282-4.027-3.506zm9.603 7.667c-1.495-1.017-2.966-2.089-4.406-3.22l2.438-1.852 3.164 4.164-1.196.908zm1.283.854l.792-.603 1.583 2.086c-.797-.48-1.589-.971-2.375-1.483zm1.952-1.484l4.557-3.459 3.163 4.166-4.556 3.459-3.164-4.166zm4.275 5.148l4.325-3.284 3.163 4.164-2.168 1.646c-1.796-.769-3.568-1.608-5.32-2.526zm6.857 3.186l1.511-1.147 1.815 2.395c-1.113-.39-2.221-.803-3.326-1.248zm5.897 2.091l-.135-.043-3.092-4.073 4.559-3.461 3.162 4.162-3.613 2.743-.881.672zm8.391 2.016c-2.222-.395-4.439-.9-6.645-1.518l3.626-2.753 1.079 1.423 2.083 2.742-.143.106zm1.301-.987l-3.162-4.165 4.557-3.458 3.161 4.164-4.556 3.459zm8.43 1.992c-2.46-.069-4.926-.278-7.394-.627l-.153-.204 4.557-3.463 3.16 4.166-.17.128zm-1.829-5.173l4.554-3.462 3.164 4.164-4.559 3.461-3.159-4.163zm4.203 5.201l4.395-3.336 2.226 2.932c-2.191.253-4.403.389-6.621.404zm8.296-.608l-2.74-3.61 4.555-3.461 3.161 4.167-3.513 2.668c-.489.081-.974.168-1.463.236zm4.714-.877l1.143-.871.392.515c-.509.13-1.021.241-1.535.356zm2.305-1.75l4.557-3.46 1.897 2.497c-1.876.749-3.781 1.392-5.715 1.938l-.739-.975zm44.441 24.125l-7.293 5.323c-5.163-4.219-17.466-13.164-34.673-18.566 8.334-2.108 16.266-5.821 23.385-11.229 7.124-5.406 12.828-12.052 17.101-19.513.58 18.026 5.893 32.281 8.572 38.385l-7.092 5.6zm204.848-105.926c.216 2.249.326 4.521.319 6.81l-3.645-2.77 3.16-4.162.166.122zm-128.172 51.927c-.213-.448-.425-.894-.625-1.346l2.74-3.611 4.56 3.462-3.163 4.164-3.512-2.669zm2.632 3.827l-.391.514c-.262-.456-.502-.922-.754-1.383l1.145.869zm76.804 5.877l-4.709-3.402 3.15-4.155 3.603 2.723 1.119.669-2.383 3.323v-.004l-.78.846zm-76.614-18.621l-.797 1.656-1.809-1.388v.041l-1.777-1.161-1.165-.786 3.151-4.26 4.538 3.391-2.145 2.508h.004zm23.423-62.369l4.041 3.415-3.296 4.091-4.098-3.247.223-.231 1.101-.231v.002l2.029-3.799zm64.596 56.15l3.158-4.078 4.563 3.547-3.074 4.144-.082-.108-.092-.287h.003l-4.476-3.218zm-62.559-46.578l3.729 3.431-3.284 4.018-2.982-2.585.078-.003-.673-.937 2.066-.988v.002l1.066-2.938zm.493 9.826l4.539 3.459-3.176 4.166-1.922-1.455v.002l-2.609-2.008 1.609-2.072v.002l1.559-2.094zm63.079-2.435l-3.163 4.165-4.558-3.462 3.163-4.163 4.558 3.46zm-3.677-4.619l3.163-4.165 4.556 3.46-3.161 4.165-4.558-3.46zm-4.407 15.266l-3.161 4.165-4.56-3.46 3.164-4.166 4.557 3.461zm-3.678-4.621l3.163-4.165 4.558 3.462-3.161 4.164-4.56-3.461zm-5.2 4.443l-4.56-3.459 3.163-4.164 4.56 3.459-3.163 4.164zm-.88 1.16l-3.164 4.164-4.558-3.459 3.163-4.165 4.559 3.46zm-4.046 5.325l-3.16 4.165-4.556-3.461 3.16-4.166 4.556 3.462zm-4.839-5.502l-4.556-3.459 3.163-4.165 4.557 3.46-3.164 4.164zm-.876 1.16l-3.165 4.164-4.558-3.459 3.166-4.166 4.557 3.461zm-4.044 5.323l-3.164 4.167-4.556-3.462 3.162-4.165 4.558 3.46zm-4.838-5.498l-4.557-3.461 3.164-4.164 4.557 3.459-3.164 4.166zm-.878 1.159l-3.164 4.163-4.557-3.462 3.163-4.162 4.558 3.461zm-4.04 5.322l-3.163 4.164-4.558-3.46 3.164-4.164 4.557 3.46zm-8.879-.176l-4.56-3.461 3.162-4.164 4.556 3.461-3.158 4.164zm-.883 1.159l-3.162 4.163-4.558-3.461 3.162-4.164 4.558 3.462zm-4.039 5.324l-3.165 4.164-4.556-3.459 3.16-4.164 4.561 3.459zm1.159.881l4.557 3.461-3.162 4.163-4.56-3.46 3.165-4.164zm.878-1.16l3.161-4.164 4.56 3.46-3.162 4.166-4.559-3.462zm8.879.177l4.559 3.46-3.161 4.164-4.56-3.46 3.162-4.164zm.879-1.16l3.164-4.164 4.557 3.462-3.162 4.162-4.559-3.46zm8.879.178l4.557 3.461-3.16 4.162-4.557-3.461 3.16-4.162zm.883-1.16l3.159-4.164 4.557 3.459-3.16 4.164-4.556-3.459zm8.877.178l4.557 3.459-3.16 4.164-4.558-3.459 3.161-4.164zm.88-1.161l3.167-4.164 4.556 3.458-3.163 4.165-4.56-3.459zm4.041-5.324l3.164-4.164 4.557 3.46-3.159 4.164-4.562-3.46zm8.88.178l4.558 3.459-3.16 4.164-4.558-3.459 3.16-4.164zm.883-1.16l3.162-4.164 4.555 3.46-3.158 4.163-4.559-3.459zm4.044-5.324l3.158-4.165 4.557 3.461-3.162 4.163-4.553-3.459zm-2.838-10.545l-4.556-3.46 3.161-4.164 4.56 3.46-3.165 4.164zm-.879 1.159l-3.163 4.164-4.557-3.46 3.163-4.163 4.557 3.459zm-8.876-.175l-4.563-3.46 3.166-4.165 4.556 3.459-3.159 4.166zm-.885 1.158l-3.162 4.164-4.556-3.459 3.163-4.165 4.555 3.46zm-8.878-.176l-4.556-3.461 3.162-4.165 4.557 3.459-3.163 4.167zm-.879 1.158l-3.161 4.166-4.561-3.462 3.164-4.163 4.558 3.459zm-8.879-.177l-4.558-3.46 3.163-4.164 4.556 3.46-3.161 4.164zm-.882 1.16l-3.161 4.165-4.557-3.461 3.159-4.165 4.559 3.461zm-4.042 5.325l-3.159 4.163-4.56-3.46 3.161-4.164 4.558 3.461zm-8.876-.179l-4.559-3.459 3.162-4.164 4.556 3.46-3.159 4.163zm-.884 1.16l-3.162 4.164-4.558-3.461 3.164-4.163 4.556 3.46zm-4.042 5.323l-3.161 4.165-4.559-3.46 3.164-4.165 4.556 3.46zm-4.04 5.325l-3.164 4.166-4.56-3.461 3.164-4.166 4.56 3.461zm-2.887 6.205l4.559 3.459-3.165 4.164-4.552-3.459 3.158-4.164zm.518 8.783l-3.164 4.165-4.557-3.461 3.161-4.165 4.56 3.461zm1.16.88l4.557 3.462-3.162 4.164-4.557-3.46 3.162-4.166zm.881-1.158l3.162-4.164 4.557 3.46-3.163 4.164-4.556-3.46zm8.879.177l4.558 3.46-3.165 4.164-4.556-3.46 3.163-4.164zm.879-1.161l3.16-4.163 4.562 3.46-3.164 4.165-4.558-3.462zm8.878.178l4.559 3.46-3.162 4.165-4.56-3.461 3.163-4.164zm.879-1.16l3.162-4.165 4.557 3.461-3.16 4.164-4.559-3.46zm8.878.178l4.56 3.459-3.163 4.165-4.557-3.461 3.16-4.163zm.881-1.16l3.164-4.165 4.555 3.459-3.16 4.166-4.559-3.46zm8.882.178l4.556 3.459-3.163 4.165-4.557-3.46 3.164-4.164zm.879-1.162l3.162-4.164 4.559 3.461-3.162 4.163-4.559-3.46zm4.04-5.323l3.165-4.163 4.557 3.458-3.16 4.165-4.562-3.46zm8.884.178l4.554 3.458-3.16 4.166-4.558-3.462 3.164-4.162zm.878-1.162l3.161-4.164 4.557 3.462-3.159 4.163-4.559-3.461zm4.044-5.322l3.16-4.165 4.557 3.461-3.16 4.164-4.557-3.46zm4.044-5.325l3.159-4.165 4.557 3.462-3.16 4.164-4.556-3.461zm2.88-6.204l-4.558-3.46 3.161-4.165 4.558 3.461-3.161 4.164zm2.332-6.623l-2.848-2.161 3.163-4.163.197.148 4.358 3.312-3.162 4.164-1.708-1.3zm.836-8.475l-.77.542-4.57-3.677 3.807-4.273 3.172 1.816v-.002l1.375 1.973-2.95 3.622h-.064zm-6.517-4.23l-4.557-3.462 3.165-4.164 4.552 3.46-3.16 4.166zm-.879 1.16l-3.164 4.165-4.557-3.461 3.163-4.165 4.558 3.461zm-8.88-.179l-4.558-3.46 3.163-4.164 4.556 3.459-3.161 4.165zm-.881 1.16l-3.161 4.164-4.559-3.459 3.162-4.166 4.558 3.461zm-8.879-.177l-4.559-3.459 3.162-4.165 4.558 3.46-3.161 4.164zm-.879 1.16l-3.165 4.166-4.555-3.462 3.162-4.163 4.558 3.459zm-8.879-.178l-4.558-3.458 3.161-4.167 4.559 3.462-3.162 4.163zm-.879 1.158l-3.163 4.167-4.558-3.461 3.164-4.165 4.557 3.459zm-8.881-.175l-4.558-3.46 3.163-4.164 4.556 3.46-3.161 4.164zm-.88 1.16l-3.162 4.165-4.556-3.461 3.16-4.164 4.558 3.46zm-4.044 5.325l-3.162 4.164-4.556-3.461 3.161-4.166 4.557 3.463zm-8.879-.178l-4.557-3.46 3.16-4.164 4.56 3.461-3.163 4.163zm-.878 1.159l-3.164 4.166-4.557-3.46 3.16-4.166 4.561 3.46zm-9.518 8.835h-.002l1.435 1.451-3.254 4.345-1.786-1.174v.035l-2.771-2.14 3.206-4.527 3.172 2.01zm-2.611 7.136l-3.164 4.166-2.02-1.538-2.536-1.924 3.161-4.164 4.559 3.46zm-2.883 6.206l4.556 3.459-3.163 4.165-4.555-3.459 3.162-4.165zm.514 8.782l-3.161 4.166-4.558-3.46 3.165-4.163 4.554 3.457zm-2.884 6.206l4.56 3.461-3.162 4.162-4.556-3.462 3.158-4.161zm.518 8.784l-3.163 4.166-4.557-3.461 3.16-4.164 4.56 3.459zm1.158.879l4.557 3.463-3.161 4.162-4.558-3.459 3.162-4.166zm2.58-.268v.002l-1.438-.893 3.031-4.163 4.492 3.462-1.337 1.889-1.628 2.274-3.12-2.571zm6.337.397l.842-1.11 4.56 3.46-3.163 4.164-4.557-3.459 2.318-3.055zm5.099.293l-3.374-2.562 3.159-4.164 4.56 3.459-2.56 3.37-.604.797-1.181-.9zm5.504-2.386l4.557 3.461-3.162 4.163-4.558-3.459 3.163-4.165zm.879-1.158l3.163-4.166 4.555 3.462-3.16 4.164-4.558-3.46zm8.876.176l4.562 3.46-3.164 4.163-4.556-3.461 3.158-4.162zm.879-1.161l3.165-4.165 4.56 3.463-3.163 4.163-4.562-3.461zm8.886.177l4.552 3.462-3.156 4.164-4.559-3.458 3.163-4.168zm.877-1.16l3.163-4.163 4.555 3.46-3.158 4.164-4.56-3.461zm8.881.178l4.557 3.46-3.163 4.165-4.557-3.462 3.163-4.163zm.88-1.159l3.162-4.166 4.558 3.461-3.164 4.164-4.556-3.459zm4.044-5.326l3.161-4.162 4.559 3.458-3.163 4.166-4.557-3.462zm8.879.179l4.557 3.461-3.163 4.163-4.555-3.46 3.161-4.164zm.877-1.16l3.163-4.163 4.562 3.461-3.165 4.163-4.56-3.461zm4.045-5.323l3.16-4.164 4.556 3.46-3.163 4.165-4.553-3.461zm4.042-5.324l3.162-4.164 4.555 3.46-3.159 4.164-4.558-3.46zm4.043-5.324l3.16-4.166 4.558 3.462-3.162 4.164-4.556-3.46zm2.88-6.204l-4.556-3.46 3.158-4.161.005-.005 4.556 3.462-.128.169-3.035 3.995zm-.513-8.785l3.163-4.164 4.556 3.461-3.162 4.165-4.557-3.462zm2.881-6.204l-4.556-3.46 3.162-4.166 4.557 3.462-3.163 4.164zm-.513-8.786l3.164-4.163 4.557 3.461-3.165 4.165-4.556-3.463zm-1.158-.879l-2.765-2.099-1.794-1.361 2.142-2.819 1.021-1.344 4.559 3.46-3.163 4.163zm-5.717-4.34l-4.56-3.461 3.161-4.164 4.56 3.46-3.161 4.165zm-5.718-4.34l-4.557-3.462 3.164-4.164 4.554 3.46-3.161 4.166zm-.881 1.158l-3.16 4.163-4.56-3.459 3.164-4.166 4.556 3.462zm-8.878-.178l-4.559-3.459 3.164-4.165 4.556 3.46-3.161 4.164zm-.881 1.16l-3.164 4.165-4.556-3.46 3.163-4.165 4.557 3.46zm-8.88-.176l-4.556-3.461 3.163-4.164 1.878 1.426 2.68 2.033-3.165 4.166zm-.878 1.159l-3.164 4.164-4.557-3.46 3.161-4.165 4.56 3.461zm-6.772-1.358v.004l-1.497 1.176-5.167-3.46 3.158-4.164 5.166 3.461-1.66 2.983zm-2.99 2.341l-3.162 4.164-4.556-3.46 3.163-4.165 4.555 3.461zm-8.877-.176l-4.558-3.462 2.537-3.342.625-.822 4.556 3.46-3.16 4.166zm-.881 1.158l-3.162 4.165-4.557-3.461 3.161-4.164 4.558 3.46zm-4.041 5.324l-3.165 4.166-4.554-3.461 3.158-4.166 4.561 3.461zm-8.88-.176l-4.559-3.462 3.163-4.163 4.56 3.459-3.164 4.166zm-.881 1.161l-3.162 4.161-4.558-3.459 3.162-4.164 4.558 3.462zm-9.595 9.499l1.51 1.146-3.159 4.164-4.559-3.46 3.163-4.165 3.045 2.315zm-2.534 6.47l-3.158 4.165-4.561-3.46 3.163-4.165 4.556 3.46zm-4.04 5.326l-3.164 4.164-4.554-3.46 3.159-4.165 4.559 3.461zm-2.884 6.203l2.461 1.869 2.097 1.59-3.162 4.166-2.351-1.787-2.205-1.674 3.16-4.164zm-1.908 6.942l2.425 1.842-3.163 4.164-4.557-3.462 3.161-4.163 2.134 1.619zm-.461 8.046l4.559 3.459-3.161 4.166-4.56-3.463 3.162-4.162zm.517 8.784l-3.162 4.165-4.56-3.461 3.162-4.163 4.56 3.459zm-2.886 6.205l4.559 3.461-3.16 4.162-4.558-3.46 3.159-4.163zm5.716 4.341l4.561 3.461-3.162 4.161-4.558-3.458 3.159-4.164zm5.719 4.341l4.558 3.459-3.162 4.164-4.554-3.459 3.158-4.164zm.88-1.158l3.162-4.167 4.56 3.46-3.162 4.165-4.56-3.458zm8.881.175l4.558 3.459-3.164 4.165-4.557-3.459 3.163-4.165zm.879-1.16l3.164-4.166 4.556 3.462-3.161 4.163-4.559-3.459zm8.88.178l4.555 3.46-3.16 4.164-4.558-3.46 3.163-4.164zm.879-1.16l3.163-4.166 4.558 3.462-1.962 2.582-1.201 1.582-4.558-3.46zm6.574 3.216l2.307-3.041 4.558 3.464-3.163 4.164-1.709-1.301v.001l-2.848-2.162.855-1.125zm3.187-4.199l3.163-4.164 4.557 3.46-3.164 4.166-4.556-3.462zm8.878.175l4.56 3.462-3.164 4.164-4.559-3.46 3.163-4.166zm.88-1.159l3.163-4.164 4.556 3.461-3.159 4.165-4.56-3.462zm8.88.177l4.556 3.461-3.16 4.164-4.559-3.459 3.163-4.166zm.881-1.158l3.163-4.164 4.555 3.459-3.161 4.164-4.557-3.459zm4.044-5.324l3.162-4.166 4.556 3.459-3.163 4.166-4.555-3.459zm8.875.177l.552.418 4.007 3.042-3.162 4.165-2.819-2.141-1.737-1.321 3.159-4.163zm.882-1.16l3.162-4.164 4.557 3.46-3.161 4.165-4.558-3.461zm8.085-10.647l3.16-4.166 4.559 3.462-3.161 4.164-4.558-3.46zm4.043-5.325l3.159-4.165 4.557 3.461-3.159 4.165-4.557-3.461zm4.042-5.323l3.16-4.166 4.557 3.462-3.16 4.164-4.557-3.46zm2.881-6.205l-4.561-3.642 2.999-4.138h-.002l.163-.026 4.561 3.55-.282.423-2.878 3.833zm-.512-8.783l3.161-4.164 4.557 3.459-3.161 4.164-4.557-3.459zm2.882-6.204l-4.558-3.461 3.165-4.165 4.555 3.46-3.162 4.166zm-.515-8.786l3.163-4.163 4.556 3.459-3.161 4.163-4.558-3.459zm2.883-6.204l-4.557-3.459 3.16-4.165 4.559 3.46-3.162 4.164zm-5.716-4.34l-4.559-3.461 3.163-4.166 4.559 3.462-3.163 4.165zm-5.72-4.342l-4.556-3.461 3.162-4.164 1.476 1.121v-.001l3.083 2.341-3.165 4.164zm-5.715-4.341l-4.556-3.46 3.161-4.164 4.557 3.46-3.162 4.164zm-6.222-4.34l-2.604-1.76.611-.567-1.383-.067.413.391-1.621-1.095.027-.363 3.411-4.164 4.812 3.461-3.666 4.164zm-2.655-1.711l2.988 2.834-3.429 4.171-3.306-3.528 3.747-3.477zm-6.603 2.511l-.312-.418h-.001l-4.245-3.043 3.17-3.98 4.555 3.462-3.167 3.979zm-1.508.675l.683.609-3.188 4.194-4.568-3.447 3.205-4.211 3.868 2.855zm-8.247.489l-4.556-3.46 3.159-4.163 4.556 3.458-3.159 4.165zm-.879 1.16l-3.164 4.166-4.556-3.461 3.161-4.164 4.559 3.459zm-8.881-.176l-4.554-3.459 3.16-4.166 4.556 3.459-3.162 4.166zm-.88 1.16l-3.163 4.163-4.554-3.459 3.16-4.165 4.557 3.461zm-8.879-.179l-4.557-3.46 3.159-4.163 4.561 3.461-3.163 4.162zm-.88 1.162l-.852 1.119-2.311 3.045-4.557-3.462 1.42-1.868 1.742-2.295 4.558 3.461zm-4.042 5.322l-3.164 4.165-4.556-3.46 3.162-4.165 4.558 3.46zm-8.879-.177l-4.559-3.46 3.16-4.165 4.56 3.462-3.161 4.163zm-.881 1.162l-3.162 4.164-4.557-3.461 3.16-4.164 4.559 3.461zm-10.672 8.682l2.588 1.965-3.163 4.165-4.557-3.462 3.163-4.164 1.969 1.496zm-1.455 7.288l-3.163 4.164-4.557-3.46 3.163-4.164 4.557 3.46zm-4.041 5.323l-3.164 4.166-4.557-3.459 3.162-4.166 4.559 3.459zm-4.046 5.325l-3.157 4.163-4.56-3.46 3.161-4.164 4.556 3.461zm-2.881 6.204l4.558 3.459-3.162 4.166-4.555-3.46 3.159-4.165zm.515 8.785l-3.161 4.163-4.559-3.461 3.162-4.164 4.558 3.462zm-2.883 6.203l1.803 1.368v.001l2.756 2.09-3.163 4.164-3.015-2.288-1.543-1.173 3.162-4.162zm-2.571 6.442l3.082 2.343-3.159 4.164-3.343-2.54-1.215-.92 3.16-4.166 1.475 1.119zm.2 8.545l4.557 3.462-3.161 4.163-4.556-3.46 3.16-4.165zm1.676 9.666l4.558 3.46-3.163 4.164-4.558-3.46 3.163-4.164zm5.716 4.342l4.56 3.459-3.164 4.166-4.557-3.462 3.161-4.163zm5.714 4.34l4.562 3.46-3.164 4.165-4.557-3.46 3.159-4.165zm5.721 4.342l4.559 3.461-3.162 4.162-4.558-3.459 3.161-4.164zm.881-1.16l3.161-4.165 4.56 3.459-3.16 4.166-4.561-3.46zm8.878.176l4.556 3.461-3.16 4.163-4.558-3.461 3.162-4.163zm.881-1.159l3.162-4.164 4.556 3.46-3.161 4.166-4.557-3.462zm8.878.176l4.557 3.462-3.16 4.164-4.558-3.46 3.161-4.166zm.882-1.159l3.161-4.165 4.558 3.462-3.161 4.163-4.558-3.46zm8.88.178l4.555 3.46-1.348 1.775-1.814 2.39-4.557-3.461 3.164-4.164zm.88-1.16l3.162-4.165 4.559 3.461-3.166 4.164-4.555-3.46zm8.877.178l4.557 3.459-3.163 4.166-4.554-3.461 3.16-4.164zm.88-1.16l3.164-4.165 4.557 3.46-3.162 4.164-4.559-3.459zm8.881.177l4.558 3.458-3.164 4.165-4.557-3.461 3.163-4.162zm8.178-4.013l-3.255-2.471 3.161-4.164 4.556 3.459-3.16 4.164-1.302-.988zm5.624-2.295l4.555 3.46-3.163 4.165-4.557-3.459 3.165-4.166zm.878-1.161l3.16-4.163 4.56 3.461-3.164 4.164-4.556-3.462zm4.044-5.321l3.16-4.165 4.56 3.461-3.163 4.166-4.557-3.462zm4.043-5.324l3.16-4.166 2.191 1.663 2.366 1.797-3.16 4.166-4.557-3.46zm4.04-5.326l3.163-4.164 4.558 3.462-1.863 2.454-1.299 1.708-4.559-3.46zm4.045-5.321l3.16-4.165 4.561 3.461-3.165 4.164-4.556-3.46zm4.044-5.324l3.159-4.166 4.557 3.459-3.16 4.166-4.556-3.459zm2.882-6.205l-4.573-3.418 2.826-3.703h-.002l.337-.461 4.563 3.439-3.151 4.143zm-.516-8.784l3.162-4.164 4.556 3.46-3.162 4.164-4.556-3.46zm2.885-6.204l-4.56-3.46 3.162-4.165 4.559 3.46-3.161 4.165zm-.517-8.785l3.161-4.163 4.56 3.458-3.162 4.167-4.559-3.462zm4.043-5.323l3.161-4.166 4.558 3.461-3.162 4.164-4.557-3.459zm-1.16-.882l-4.557-3.459 3.161-4.166 4.56 3.461-3.164 4.164zm-1.674-9.664l-4.558-3.459 3.161-4.164 4.558 3.46-3.161 4.163zm-5.718-4.342l-4.555-3.459 3.158-4.166 4.561 3.462-3.164 4.163zm-5.715-4.341l-4.56-3.459 3.164-4.164 4.558 3.458-3.162 4.165zm-1.973-7.42v-.003l-2.98 3.036-5-3.44 3.073-4.146 5.134 3.416-.227 1.137zm-9.461-1.26l-2.133-1.62-2.426-1.843 3.161-4.164 4.557 3.46-3.159 4.167zm-5.72-4.343l-4.556-3.459 3.164-4.166 4.553 3.462-3.161 4.163zm-.878 1.162l-3.161 4.164-4.559-3.462 3.162-4.164 4.558 3.462zm-8.88-.18l-4.555-3.461 3.16-4.163 4.559 3.459-3.164 4.165zm-.878 1.16l-3.163 4.164-4.558-3.459 3.161-4.164 4.56 3.459zm-8.88-.175l-4.559-3.461 3.162-4.164 4.559 3.459-3.162 4.166zm-.883 1.16l-3.159 4.162-4.558-3.459 3.163-4.163 4.554 3.46zm-8.876-.178l-4.556-3.461 3.161-4.164 4.559 3.459-3.164 4.166zm-.88 1.16l-3.164 4.165-4.555-3.461 3.161-4.162 4.558 3.458zm-8.881-.177l-4.556-3.461 3.162-4.165 4.557 3.462-3.163 4.164zm-.878 1.159l-3.163 4.165-4.558-3.462 3.158-4.164 4.563 3.461zm-4.055 5.206l-3.173 4.147-4.577-3.679.259-.718h-.001l2.897-3.457 4.595 3.707zm-8.867-.061l-4.557-3.459 3.16-4.164 4.559 3.461-3.162 4.162zm-.879 1.162l-3.164 4.165-4.558-3.46 3.163-4.165 4.559 3.46zm-4.042 5.322l-3.164 4.166-4.56-3.461 3.164-4.164 4.56 3.459zm-7.586 2.523l4.622 2.702-1.098 2.77v.002l-2.062 1.391-5.226-3.388 2.807-4.146.957.669zm-.503 8.125l-3.159 4.166-4.559-3.46 3.162-4.165 4.556 3.459zm-4.042 5.325l-3.162 4.162-4.558-3.46 3.165-4.162 4.555 3.46zm-4.042 5.324l-3.162 4.163-4.555-3.458 3.161-4.166 4.556 3.461zm-4.042 5.323l-3.163 4.165-4.556-3.46 3.161-4.164 4.558 3.459zm-2.885 6.205l4.562 3.459-3.164 4.164-4.559-3.461 3.161-4.162zm.517 8.785l-3.162 4.164-4.558-3.462 3.162-4.163 4.558 3.461zm-2.885 6.203l4.558 3.46-3.159 4.166-4.561-3.462 3.162-4.164zm.515 8.785l-3.162 4.164-4.559-3.462 3.163-4.162 4.558 3.46zm-4.042 5.324l-3.159 4.164-.17-.131c-.595-2.388-1.057-4.821-1.384-7.29l.154-.205 4.559 3.462zm1.675 9.665l-2.229 2.931c-.83-2.044-1.554-4.135-2.169-6.27l4.398 3.339zm2.836 10.543l4.556 3.461-1.896 2.498c-1.226-1.602-2.357-3.266-3.403-4.981l.743-.978zm5.715 4.342l4.557 3.46-2.795 3.68c-1.376-1.386-2.675-2.831-3.89-4.337l2.128-2.803zm5.717 4.341l4.558 3.46-3.129 4.125c-1.521-1.187-2.979-2.428-4.349-3.738l2.92-3.847zm5.717 4.342l4.559 3.46-2.92 3.847c-1.631-.968-3.218-2.038-4.769-3.185l3.13-4.122zm5.716 4.341l4.558 3.46-2.127 2.803c-1.778-.766-3.52-1.629-5.227-2.583l2.796-3.68zm.881-1.159l3.161-4.166 4.556 3.46-3.161 4.164-4.556-3.458zm8.88.175l4.558 3.461-3.164 4.164-4.558-3.461 3.164-4.164zm.878-1.16l3.164-4.163 4.556 3.46-3.159 4.164-4.561-3.461zm8.881.179l4.555 3.46-3.159 4.165-4.556-3.463 3.16-4.162zm.879-1.161l3.165-4.166 4.556 3.462-3.163 4.164-4.558-3.46zm8.879.176l4.557 3.462-3.16 4.165-4.559-3.461 3.162-4.166zm.881-1.159l3.162-4.162 4.557 3.459-3.161 4.164-4.558-3.461zm8.878.178l4.561 3.46-3.165 4.164-4.556-3.46 3.16-4.164zm.882-1.159l3.161-4.165 4.557 3.46-3.163 4.164-4.555-3.459zm8.878.175l.902.688v-.001l3.654 2.774-3.162 4.164-2.465-1.871-2.091-1.589 3.162-4.165zm1.456-.723l-.578-.438 3.164-4.164 4.556 3.461-3.161 4.165-3.981-3.024zm3.466-5.759l3.164-4.166 4.555 3.462-3.162 4.163-4.557-3.459zm8.881.176l4.556 3.46-3.161 4.164-4.559-3.458 3.164-4.166zm.881-1.159l3.159-4.164 4.559 3.461-3.163 4.165-4.555-3.462zm4.043-5.325l3.159-4.162 4.561 3.46-3.164 4.164-4.556-3.462zm4.041-5.324l3.161-4.162 4.56 3.46-3.164 4.164-4.557-3.462zm4.042-5.322l3.159-4.166 4.56 3.46-3.162 4.166-4.557-3.46zm4.092-4.926l2.407-2.713h.003l.75-1.451.822.344 3.697 2.775-3.148 4.22-4.531-3.175zm3.996-5.723l3.16-4.164 4.557 3.461-3.163 4.163-4.554-3.46zm4.043-5.324l3.16-4.164 4.555 3.461-3.16 4.164-4.555-3.461zm2.88-6.205l-4.558-3.46 3.16-4.163 4.562 3.46-3.164 4.163zm-.513-8.784l3.158-4.164 4.559 3.461-3.164 4.164-4.553-3.461zm2.88-6.202l-4.558-3.461 3.163-4.164 4.557 3.458-3.162 4.167zm-.516-8.784l3.163-4.166 4.559 3.461-3.162 4.162-4.56-3.457zm7.408-9.337c.586 2.374 1.045 4.791 1.367 7.244l-.175.229-4.556-3.459 3.16-4.164.204.15zm-.609-2.289l-4.428-3.364 2.246-2.957c.838 2.059 1.57 4.168 2.182 6.321zm-2.827-7.879l-2.763 3.637-4.559-3.461 3.165-4.165 3.564 2.705c.2.426.404.85.593 1.284zm-2.867-5.688c.272.478.53.964.79 1.45l-1.199-.91.409-.54zm-.809-1.343l-.76 1.001-4.557-3.459 1.917-2.525c1.222 1.604 2.354 3.266 3.4 4.983zm-4.33-6.169l-2.147 2.828-4.559-3.459 2.818-3.708c1.373 1.388 2.675 2.833 3.888 4.339zm-4.925-5.383l-2.938 3.871-4.559-3.46 3.151-4.146c1.521 1.183 2.977 2.425 4.346 3.735zm-10.261-8.319c1.63.969 3.321 2.376 4.871 3.524l-2.759 4.122-.981-1.227-.01-.038-3.607-2.605 2.233-4.059.253.283zm-1.275-.341l-2.407 3.057h-.002l-.404.648-4.568-3.389 2.136-2.756c1.775.766 3.539 1.487 5.245 2.44zm-12.351-4.954c1.935.545 3.842 1.188 5.713 1.938l-1.913 2.523-4.557-3.46.757-1.001zm-1.51-.42l-.412.541-1.196-.913c.537.122 1.073.237 1.608.372zm-4.854-1.005l3.562 2.705-3.16 4.164-4.557-3.459 2.758-3.637c.47.067.931.149 1.397.227zm-3.068-.431l-2.246 2.959-4.43-3.363c2.238.014 4.467.151 6.676.404zm-3.126 4.12l-3.162 4.164-4.559-3.46 3.162-4.165 4.559 3.461zm-13.263-3.868c2.448-.348 4.897-.553 7.344-.626l.201.151-3.159 4.165-4.559-3.46.173-.23zm3.502 4.849l-3.159 4.166-4.559-3.462 3.161-4.163 4.557 3.459zm-5.878-4.465l.162.125-3.162 4.165-3.646-2.768c2.204-.618 4.424-1.125 6.646-1.522zm-8.392 2.023l4.513 3.426-3.163 4.165-4.556-3.462 3.111-4.097.095-.032zm-2.533.832l-1.835 2.417-1.524-1.158c1.114-.45 2.234-.867 3.359-1.259zm-4.899 1.92l2.186 1.657-3.163 4.164-4.335-3.292c1.749-.919 3.521-1.758 5.312-2.529zm-1.856 6.981l-3.163 4.163-4.559-3.46 3.162-4.164 4.56 3.461zm-7.277-2.289l-1.604 2.111-.806-.608c.798-.52 1.602-1.018 2.41-1.503zm-3.689 2.357l1.203.912-3.16 4.165-2.444-1.854c1.44-1.131 2.907-2.207 4.401-3.223zm-5.573 4.162l2.736 2.075-.166.218-.001-.001-2.996 3.945-3.599-2.729c1.316-1.223 2.658-2.389 4.026-3.508zm-5.087 4.53l3.779 2.868-3.161 4.166-4.297-3.262c1.19-1.312 2.427-2.557 3.679-3.772zm-4.636 4.872l4.372 3.322-3.163 4.163-4.541-3.45c1.074-1.392 2.188-2.732 3.332-4.035zm-4.212 5.194l4.543 3.452-3.163 4.162-4.372-3.319c.946-1.451 1.94-2.885 2.992-4.295zm-3.794 5.515l4.292 3.259-3.161 4.166-3.771-2.867c.83-1.535 1.699-3.059 2.64-4.558zm-3.341 5.857l3.594 2.727-3.165 4.164-2.727-2.071c.71-1.62 1.472-3.229 2.298-4.82zm-2.888 6.199l2.438 1.851-3.16 4.164-1.198-.906c.577-1.714 1.214-3.417 1.92-5.109zm-2.399 6.572l.795.602-1.584 2.086c.247-.897.508-1.794.789-2.688zm1.951 1.483l4.56 3.461-3.16 4.163-4.56-3.46 3.16-4.164zm-3.806 5.501l4.324 3.285-3.161 4.164-2.17-1.647c.261-1.934.593-3.87 1.007-5.802zm-1.225 7.463l1.504 1.146-1.814 2.39c.076-1.177.174-2.355.31-3.536zm-.428 6.098l3.093-4.073 4.556 3.462-3.16 4.164-4.493-3.413.004-.14zm3.611 4.711l-3.165 4.166-.139-.109c-.217-2.248-.324-4.521-.323-6.81l3.627 2.753zm2.172 84.489l-7.292-5.323-7.093-5.6c2.679-6.104 7.992-20.359 8.572-38.385 4.272 7.461 9.978 14.107 17.101 19.513 7.118 5.407 15.05 9.12 23.386 11.229-17.206 5.402-29.511 14.348-34.674 18.566zm36.41-28.472c-1.934-.547-3.84-1.189-5.715-1.938l1.896-2.497 4.56 3.46-.741.975zm1.51.418l.39-.515 1.144.871c-.514-.115-1.028-.226-1.534-.356zm4.786.997l-3.516-2.668 3.162-4.167 4.556 3.461-2.74 3.61c-.489-.068-.974-.155-1.462-.236zm3.137.439l2.228-2.932 4.394 3.336c-2.219-.014-4.431-.15-6.622-.404zm3.106-4.094l3.165-4.164 4.553 3.462-3.158 4.163-4.56-3.461zm13.28 3.844c-2.467.349-4.934.558-7.392.627l-.172-.128 3.162-4.166 4.559 3.463-.157.204zm-3.521-4.824l3.162-4.164 4.559 3.458-3.162 4.165-4.559-3.459zm5.857 4.446l-.142-.105 2.083-2.742 1.08-1.423 3.626 2.753c-2.206.617-4.421 1.123-6.647 1.517zm8.395-2.016l-.881-.672-3.613-2.743 3.161-4.162 4.56 3.461-3.093 4.073-.134.043zm2.571-.844l1.814-2.395 1.512 1.147c-1.105.446-2.214.859-3.326 1.248zm4.864-1.906l-2.168-1.646 3.162-4.164 4.324 3.284c-1.751.917-3.525 1.756-5.318 2.526zm1.874-6.969l3.163-4.166 4.556 3.459-3.163 4.165-4.556-3.458zm7.296 2.262l1.585-2.086.792.603c-.788.511-1.58 1.002-2.377 1.483zm3.657-2.338l-1.194-.908 3.164-4.164 2.437 1.852c-1.439 1.13-2.911 2.203-4.407 3.22zm5.579-4.161l-2.73-2.07 3.16-4.166 3.594 2.73c-1.312 1.224-2.657 2.388-4.024 3.506zm5.089-4.528l-3.775-2.866 3.161-4.165 4.295 3.261c-1.194 1.308-2.426 2.556-3.681 3.77zm4.639-4.869l-4.372-3.322 3.162-4.164 4.544 3.45c-1.076 1.393-2.192 2.735-3.334 4.036zm4.216-5.194l-4.546-3.451 3.163-4.165 4.373 3.324c-.946 1.449-1.939 2.882-2.99 4.292zm3.794-5.512l-4.296-3.262 3.162-4.163 3.777 2.866c-.832 1.535-1.701 3.059-2.643 4.559zm3.341-5.856l-3.596-2.729 3.161-4.166 2.732 2.077c-.707 1.62-1.47 3.227-2.297 4.818zm2.89-6.197l-2.442-1.857 3.162-4.164 1.202.915c-.575 1.712-1.219 3.414-1.922 5.106zm2.4-6.572l-.801-.609 1.602-2.112c-.25.908-.513 1.816-.801 2.721zm.352-7.293h-.003l-2.354 4.483-4.533-2.802 3.172-3.833 4.518 2.305-.8-.153zm.817 3.235l.126-.489-.126.489zm.689-2.925l-4.33-3.292 3.159-4.164 2.183 1.657c-.264 1.933-.594 3.867-1.012 5.799zm1.233-7.457l-1.523-1.157 1.835-2.418c-.077 1.188-.176 2.381-.312 3.575zm.429-6.136l-3.11 4.098-4.557-3.461 3.158-4.164 4.513 3.427-.004.1zM307.308 43.98l-.002.002h.002z"/></g></g></svg>