<svg xmlns="http://www.w3.org/2000/svg" width="100" height="144" viewBox="0 0 100 144"><path fill="#F1F0D4" d="M0 0v138c0 3.312 2.687 6 6 6h88c3.312 0 6-2.688 6-6v-138h-100z"/><path fill="#114036" d="M50 45.586c-25.002 0-41.176 25.49-41.176 25.49h82.354s-16.176-25.49-41.178-25.49zM50 96.566c-25.002 0-41.176-25.49-41.176-25.49h82.354s-16.176 25.49-41.178 25.49zM22.5 113.5h-4v-2.393c0-.929.398-1.621-.053-2.074-.488-.416-.719-.623-1.432-.623-.678 0-1.296.207-1.782.621-.511.452-.733 1.142-.733 2.069v14.09c0 .902.357 1.579.869 2.03.486.439 1.046.659 1.723.659.714 0 .771-.22 1.259-.66.451-.45.149-1.129.149-2.032v-4.687h-2v-3h6v7.684c0 2.163-.232 3.781-1.484 4.852-1.24 1.094-2.485 1.641-4.078 1.641-1.57 0-3.083-.546-4.312-1.641-1.31-1.069-2.125-2.684-2.125-4.848v-14.08c0-2.166.99-3.795 2.301-4.89 1.229-1.069 2.8-1.604 4.37-1.604 1.593 0 2.547.535 3.787 1.605 1.252 1.096 1.542 2.727 1.542 4.894v2.387zm13.928 18l-1.079-5h-5.047l-1.079 5h-3.7l5.771-26h3.081l5.754 26h-3.701zm-3.648-18l-1.823 9h3.7l-1.807-9h-.07zm26.72 18h-4v-16l-3.864 12h-1.847l-4.289-11.601v15.601h-4v-26h4.456l4.747 14h.071l4.729-14h3.997v26zm14-22h-7v7h6v4h-6v7h7v4h-11v-26h11v4zm15 4h-4v-1.87c0-.927.211-1.701-.178-2.323-.398-.573-.789-.872-1.729-.896-.987.024-1.588.372-1.93 1.042-.341.67-.48 1.467-.48 2.393-.024.977.115 1.713.387 2.213.259.524.841.969 1.735 1.334l2.825 1.17c1.587.598 2.646 1.469 3.176 2.613.481 1.182.713 2.742.689 4.68 0 2.302-.46 4.16-1.378 5.574-.967 1.475-2.627 2.223-4.982 2.247-1.813-.024-3.714-.631-4.867-1.822-1.214-1.167-2.268-2.663-2.268-4.486v-.869h4v.653c0 .695.462 1.316.875 1.866.391.573 1.105.86 2.05.86 1.229 0 2.107-.372 2.426-1.115.189-.352.347-.768.37-1.243.024-.475.063-1.011.063-1.608 0-1.363-.107-2.297-.342-2.796-.295-.499-.884-.913-1.778-1.242l-2.629-1.115c-1.545-.683-2.604-1.584-3.181-2.705-.579-1.121-.854-2.504-.831-4.149 0-2.071.532-3.807 1.591-5.208 1.061-1.365 2.639-2.06 4.734-2.083 1.883.023 3.13.643 4.239 1.855 1.082 1.217 1.412 2.596 1.412 4.136v2.894z"/><path fill="#F1F0D4" d="M49.998 53.408c-9.758 0-17.668 7.911-17.668 17.667 0 9.758 7.91 17.672 17.668 17.672 9.76 0 17.673-7.914 17.673-17.672 0-9.756-7.913-17.667-17.673-17.667z"/><path fill="#114036" d="M56.5 79.5h-2v4h-4v-4.286l-10-.002v-3.545l8.724-18.167h4.074l-8.635 19h5.837v-8h4v8h2v3z"/></svg>